<svg id="Layer_1" data-name="Layer 1" xmlns="http://www.w3.org/2000/svg" viewBox="0 0 18.31 18.4"><defs><style>.cls-1{fill:#fff;}</style></defs><path class="cls-1" d="M1.68,19.28a.83.83,0,0,1-.55-.91V11.19a1.13,1.13,0,0,1,.06-.36.48.48,0,0,1,.49-.28H4.85c.25,0,.38.09.38.27s-.13.26-.37.26H1.67v.58h17.1v-.58H6a.22.22,0,0,1-.2-.25v0h0a.28.28,0,0,1,.2-.24h4.65v-.39a.63.63,0,0,1,.6-.66h6.58a.64.64,0,0,1,.66.61v.45h.34a.48.48,0,0,1,.48.46h0v7.35a.83.83,0,0,1-.55.91Zm9.15-.53h7.59c.34,0,.36,0,.36-.34v-6.2H10.87Zm-5,0V12.21H1.67a.09.09,0,0,1,0,.07V18.5c0,.2.06.25.27.25H5.83Zm4.5,0V12.21h-4v6.53Zm.91-8.2H18v-.2c0-.31,0-.31-.31-.31h-6c-.46,0-.46,0-.4.5Z" transform="translate(-1.06 -1)"/><path class="cls-1" d="M18.77,19.33H1.66a.9.9,0,0,1-.58-1V11.19a1.21,1.21,0,0,1,0-.38.53.53,0,0,1,.53-.31H4.85c.35,0,.43.17.43.31A.27.27,0,0,1,5.2,11a.47.47,0,0,1-.34.1H1.72v.48h17V11.1H6a.31.31,0,0,1-.23-.37h0A.35.35,0,0,1,6,10.51h4.61v-.09a1.13,1.13,0,0,1,0-.26.67.67,0,0,1,.64-.7h6.58a.7.7,0,0,1,.71.66v.4h.3a.52.52,0,0,1,.52.5h0V18.4a.9.9,0,0,1-.58,1ZM1.69,19.24H18.75a.8.8,0,0,0,.51-.87V11a.41.41,0,0,0-.4-.42h-.42v-.44a.6.6,0,0,0-.57-.63H11.29a.61.61,0,0,0-.61.59v.47H6a.2.2,0,0,0-.18.2A.2.2,0,0,0,6,11H18.82v.67H1.62V11H4.86a.42.42,0,0,0,.27,0,.17.17,0,0,0,0-.14c0-.09,0-.22-.33-.22H1.67a.44.44,0,0,0-.44.25,1,1,0,0,0-.05.34v7.18A.8.8,0,0,0,1.69,19.24Zm1.42-.44H1.93c-.24,0-.32-.07-.32-.3V12.16H5.83V18.8ZM1.72,12.26V18.5c0,.17,0,.2.22.2H5.73V12.26Zm16.7,6.54H10.78V12.16h8v6.25C18.82,18.76,18.79,18.8,18.42,18.8Zm-7.54-.1h7.54c.31,0,.31,0,.31-.29V12.26H10.88Zm-.55.09h-4V12.16h4Zm-3.95-.1h3.84V12.26H6.39ZM18,10.59H11.15c0-.29-.05-.41,0-.49s.2-.08.45-.08h6c.17,0,.25,0,.31.06s0,.14,0,.3Zm-6.76-.09H18v-.16a.89.89,0,0,0,0-.23H11.66c-.21,0-.33,0-.38.05a.65.65,0,0,0,0,.34Z" transform="translate(-1.06 -1)"/><path class="cls-1" d="M17.93,6.47V5.79H10.79v.68h3.9a.23.23,0,0,1,.21.24.22.22,0,0,1-.17.26H10.84c-.41,0-.59-.18-.59-.6V5.74a.47.47,0,0,1,.44-.48h0a.26.26,0,0,0,.24-.17l1.15-2.21a1.09,1.09,0,0,0,.07-.3V1.4c0-.39.09-.33.32-.33h3.85c.24,0,.33.09.34.33s0,.78.05,1.17a.68.68,0,0,0,.07.28c.38.75.78,1.51,1.19,2.26a.35.35,0,0,0,.18.16.47.47,0,0,1,.34.45v.75a.49.49,0,0,1-.41.55H15.65a.25.25,0,0,1-.23-.27h0a.26.26,0,0,1,.25-.24h2.26ZM11.45,5.23h5.93L16.29,3.15a.24.24,0,0,0-.15-.09H12.72a.19.19,0,0,0-.2.12c-.27.54-.56,1.08-.84,1.61A3.68,3.68,0,0,0,11.45,5.23Zm4.67-3.61H12.69v.9h3.48Z" transform="translate(-1.06 -1)"/><path class="cls-1" d="M17.78,7H15.67a.3.3,0,0,1-.27-.33h0a.31.31,0,0,1,.3-.29h2.23V5.84H10.84v.58H14.7a.29.29,0,0,1,.25.29.28.28,0,0,1-.22.31.67.67,0,0,1-.2,0H10.84c-.44,0-.64-.19-.64-.64V5.74a.5.5,0,0,1,.47-.53h0a.24.24,0,0,0,.2-.15l.52-1L12,2.85a.55.55,0,0,0,.07-.28V1.4a.39.39,0,0,1,.09-.29A.4.4,0,0,1,12.47,1h3.85c.26,0,.38.11.39.38s0,.34,0,.51v.66a.54.54,0,0,0,.06.25c.42.83.82,1.57,1.19,2.27a.34.34,0,0,0,.16.13.55.55,0,0,1,.37.5v.75A.54.54,0,0,1,18,7h-.22Zm-.28-.09H18a.44.44,0,0,0,.47-.4v-.8a.43.43,0,0,0-.31-.4A.44.44,0,0,1,18,5.12L16.72,2.87a.73.73,0,0,1-.07-.29V1.4a.32.32,0,0,0-.33-.31H12.46a.26.26,0,0,0-.21.06.29.29,0,0,0-.06.22V2.55a.94.94,0,0,1-.08.33L11.47,4.1c-.2.42-.34.65-.51,1a.35.35,0,0,1-.28.2.4.4,0,0,0-.39.41h0v.68c0,.4.15.55.54.55H14.7a.23.23,0,0,0,.14-.28.24.24,0,0,0-.14-.14h-4V5.74H18v.78H15.7a.18.18,0,0,0-.2.16h0a.2.2,0,0,0,.18.22H17.5Zm0-1.67H11.38l.09-.2.16-.31.25-.45.59-1.16a.23.23,0,0,1,.25-.07h3.42a.27.27,0,0,1,.22.12l.87,1.66Zm-5.93-.1h5.76l-.18-.35-.87-1.66a.2.2,0,0,0-.15-.06H12.72a.14.14,0,0,0-.16.1L12,4.36l-.24.45c0,.1-.1.21-.16.31Zm4.65-2.58H12.64v-1h3.53Zm-3.48-.1h3.37v-.8H12.74Z" transform="translate(-1.06 -1)"/><path class="cls-1" d="M5.23,1.17h3.5c.43,0,.6.16.6.6V6.39c0,.43-.18.6-.6.6h-7c-.44,0-.61-.16-.61-.61V1.78c0-.45.17-.61.61-.61Zm.28,5.28H8.79V1.71H5.51ZM5,1.71H1.67V6.45H5Z" transform="translate(-1.06 -1)"/><path class="cls-1" d="M5,7H1.74c-.46,0-.61-.15-.61-.63V1.78c0-.48.19-.66.66-.66H8.73c.46,0,.65.18.65.65V6.39c0,.46-.2.65-.65.65ZM4.3,1.18H1.74c-.41,0-.56.13-.56.56V6.38c0,.42.15.57.56.57h7c.39,0,.55-.15.55-.56V1.77c0-.41-.15-.55-.55-.55H4.28ZM8.84,6.5H5.46V1.66H8.84ZM5.56,6.41H8.74V1.76H5.56ZM5,6.5H1.62V1.66H5ZM1.72,6.4H4.9V1.76H1.72Z" transform="translate(-1.06 -1)"/><path class="cls-1" d="M18.22,13.5v.29a.26.26,0,1,1-.52,0v-.65a.27.27,0,0,1,.23-.21.27.27,0,0,1,.25.27A.56.56,0,0,1,18.22,13.5Z" transform="translate(-1.06 -1)"/><path class="cls-1" d="M18,14.1h0a.32.32,0,0,1-.3-.3v-.66a.29.29,0,0,1,.3-.3h0a.33.33,0,0,1,.31.32v.64A.31.31,0,0,1,18,14.1ZM18,12.94a.21.21,0,0,0-.21.21v.65A.22.22,0,0,0,18,14h0a.23.23,0,0,0,.16-.17.67.67,0,0,0,0-.2v-.09h0v-.1a1,1,0,0,0,0-.24A.22.22,0,0,0,18,13Z" transform="translate(-1.06 -1)"/><path class="cls-1" d="M5.28,13.47v.29a.27.27,0,0,1-.25.29H5a.27.27,0,0,1-.26-.27h0v-.62A.26.26,0,0,1,5,12.94a.26.26,0,0,1,.25.27h0S5.27,13.37,5.28,13.47Z" transform="translate(-1.06 -1)"/><path class="cls-1" d="M5,14.1a.31.31,0,0,1-.31-.31h0v-.62a.35.35,0,0,1,.1-.24A.32.32,0,0,1,5,12.84a.32.32,0,0,1,.3.32v.21a.17.17,0,0,0,0,.1v.29a.32.32,0,0,1-.3.34Zm0-1.16a.22.22,0,0,0-.21.22v.61A.21.21,0,0,0,5,14H5a.23.23,0,0,0,.22-.24h0v-.39a.67.67,0,0,0,0-.2A.21.21,0,0,0,5,12.94Z" transform="translate(-1.06 -1)"/><path class="cls-1" d="M9.73,13.47v.33a.27.27,0,0,1-.24.25.25.25,0,0,1-.28-.19h0a4.57,4.57,0,0,1,0-.74.24.24,0,0,1,.25-.2h0a.25.25,0,0,1,.25.23h0A1.13,1.13,0,0,1,9.73,13.47Z" transform="translate(-1.06 -1)"/><path class="cls-1" d="M9.46,14.1a.41.41,0,0,1-.21-.1.34.34,0,0,1-.09-.19,4.57,4.57,0,0,1,0-.74.31.31,0,0,1,.62,0v.68a.29.29,0,0,1-.29.28Zm0-1.16a.2.2,0,0,0-.2.17,4.45,4.45,0,0,0,0,.73.24.24,0,0,0,.06.11.18.18,0,0,0,.16.05.2.2,0,0,0,.2-.2v-.66a.22.22,0,0,0-.2-.2Z" transform="translate(-1.06 -1)"/><path class="cls-1" d="M6.52,5.2v.31a.26.26,0,0,1-.26.26A.25.25,0,0,1,6,5.54V4.89a.27.27,0,0,1,.25-.27h0a.28.28,0,0,1,.27.26Z" transform="translate(-1.06 -1)"/><path class="cls-1" d="M6.25,5.82a.29.29,0,0,1-.31-.27V4.88a.31.31,0,0,1,.31-.31h0a.31.31,0,0,1,.31.3.89.89,0,0,1,0,.23v.1h0v.1a.81.81,0,0,1,0,.22.29.29,0,0,1-.28.3h0Zm0-1.15h0a.21.21,0,0,0-.18.22V5.5a.2.2,0,0,0,.18.22h0a.2.2,0,0,0,.21-.19h0a.74.74,0,0,0,0-.21V5.2h0V5.1a.81.81,0,0,0,0-.22.23.23,0,0,0-.23-.21Z" transform="translate(-1.06 -1)"/><path class="cls-1" d="M3.92,5.19v-.3a.26.26,0,0,1,.24-.27.27.27,0,0,1,.28.24h0a4,4,0,0,1,0,.69.24.24,0,0,1-.25.22h0A.23.23,0,0,1,4,5.55H4A1.46,1.46,0,0,1,3.92,5.19Z" transform="translate(-1.06 -1)"/><path class="cls-1" d="M4.19,5.82h0a.29.29,0,0,1-.28-.29h0a.81.81,0,0,1,0-.22V4.88a.3.3,0,0,1,.28-.3.35.35,0,0,1,.24.06.32.32,0,0,1,.1.22,4,4,0,0,1,0,.69.29.29,0,0,1-.28.28H4.19ZM4,5.19v.33a.19.19,0,0,0,.18.2h0a.19.19,0,0,0,.22-.16h0a3.86,3.86,0,0,0,0-.68.15.15,0,0,0-.07-.14.22.22,0,0,0-.16,0,.2.2,0,0,0-.18.2H4Z" transform="translate(-1.06 -1)"/></svg>