<svg id="Layer_1" data-name="Layer 1" xmlns="http://www.w3.org/2000/svg" viewBox="0 0 18.22 18.22"><defs><style>.cls-1{fill:#fff;}</style></defs><path class="cls-1" d="M1.11,12.05a.48.48,0,0,1,.44-.13H3.61a1.36,1.36,0,0,1-.22-1V9.71c0-.3.09-.39.39-.39H7.83c.29,0,.39.09.39.39V11a1.18,1.18,0,0,1-.23.87h4.77V10.53a1.75,1.75,0,0,1,.24-1,1.66,1.66,0,0,1,1.46-.83,1.59,1.59,0,0,1,1.45.83,2.77,2.77,0,0,1,.24.79.29.29,0,0,1-.19.35h0a.29.29,0,0,1-.31-.27h0a1.14,1.14,0,0,0-1.12-1.14,1.21,1.21,0,0,0-.59.16,1.18,1.18,0,0,0-.55,1.25c.23,0,.56-.06.55.31s-.32.25-.55.27v.67h5.52c.36,0,.44.08.44.44v6.51c0,.35-.09.44-.43.44H1.55a.47.47,0,0,1-.44-.19Zm13.05,6.63V12.46H6.23v6.22Zm-12.47,0h4V15.29h-4Zm17.07-3.39h-4v3.39h4ZM4.82,12.45c-.06.23-.22.28-.44.28H3c-.21,0-.39-.05-.44-.27H1.7v2.25h4V12.45Zm9.93,2.25H18.7V12.45h-.82c-.1.24-.15.27-.41.27H16.05c-.23,0-.41,0-.47-.28h-.83ZM7.64,9.9H4v1.39c0,.2.13.29.34.3h3c.22,0,.34-.09.34-.3C7.65,10.84,7.64,10.38,7.64,9.9Z" transform="translate(-1.11 -1.09)"/><path class="cls-1" d="M16.27,1.09a.48.48,0,0,1,.18.43V4.94c0,.31-.09.41-.4.41H4.37c-.31,0-.4-.1-.4-.41V1.52a.48.48,0,0,1,.2-.43ZM4.54,1.66v3.1H9.91V1.66Zm11.3,3.11V1.67H10.49v3.1Z" transform="translate(-1.11 -1.09)"/><path class="cls-1" d="M4.74,5.92c.24,0,.37.15.34.33a.72.72,0,0,1-.31.54H4.71c-.25.2-.25.22,0,.44a.73.73,0,0,1,.26,1H5a.69.69,0,0,1-.26.25.52.52,0,0,0-.23.31A.26.26,0,0,1,4.19,9h0A.29.29,0,0,1,4,8.69a.85.85,0,0,1,.32-.56c.33-.24.33-.25,0-.5a.73.73,0,0,1-.21-1,.67.67,0,0,1,.21-.2.63.63,0,0,0,.29-.33C4.58,6,4.7,6,4.74,5.92Z" transform="translate(-1.11 -1.09)"/><path class="cls-1" d="M6.16,5.92c.24,0,.37.15.34.33a.74.74,0,0,1-.31.54h0c-.32.27-.32.27-.08.49a.73.73,0,0,1,.25,1,.72.72,0,0,1-.25.24.52.52,0,0,0-.23.31A.28.28,0,0,1,5.6,9a.29.29,0,0,1-.22-.32.77.77,0,0,1,.31-.54l.1-.09c.21-.16.2-.19,0-.36a2.13,2.13,0,0,1-.3-.3.71.71,0,0,1,.17-1h0A.64.64,0,0,0,6,6.09C6,6,6.11,6,6.16,5.92Z" transform="translate(-1.11 -1.09)"/><path class="cls-1" d="M7.16,9c-.25,0-.38-.15-.35-.33a.77.77,0,0,1,.33-.57c.3-.22.3-.24,0-.48a.71.71,0,0,1-.22-1h0a.58.58,0,0,1,.22-.22.57.57,0,0,0,.25-.32.24.24,0,0,1,.29-.2h0a.26.26,0,0,1,.22.31h0a.77.77,0,0,1-.33.57c-.31.23-.31.24,0,.48a.73.73,0,0,1,.21,1,.8.8,0,0,1-.21.2.54.54,0,0,0-.26.33A.27.27,0,0,1,7.16,9Z" transform="translate(-1.11 -1.09)"/><path class="cls-1" d="M10.2,16.7H6.92c-.32,0-.41-.09-.41-.41v-2.6c0-.31.09-.39.39-.39h6.6c.3,0,.39.08.39.39v2.62c0,.29-.09.39-.39.39Zm-3.11-.58h6.22V13.87H7.09Z" transform="translate(-1.11 -1.09)"/><path class="cls-1" d="M10.2,17.55H12a.38.38,0,0,1,.19.26c0,.1-.11.18-.19.26s-.13,0-.18,0H8.5a.29.29,0,0,1-.28-.28h0a.27.27,0,0,1,.26-.28H10.2Z" transform="translate(-1.11 -1.09)"/><path class="cls-1" d="M7.09,3.65H6c-.23,0-.36-.11-.36-.29s.13-.28.36-.29H8.14c.22,0,.36.12.36.29s-.14.29-.36.29Z" transform="translate(-1.11 -1.09)"/><path class="cls-1" d="M13.32,3.65H12.26c-.22,0-.36-.11-.36-.29s.14-.28.36-.29h2.12c.23,0,.36.12.36.29s-.13.29-.36.29Z" transform="translate(-1.11 -1.09)"/></svg>