<?xml version="1.0" encoding="utf-8"?>
<!-- Generator: Adobe Illustrator 25.2.0, SVG Export Plug-In . SVG Version: 6.00 Build 0)  -->
<svg version="1.1" id="Layer_1" xmlns="http://www.w3.org/2000/svg" xmlns:xlink="http://www.w3.org/1999/xlink" x="0px" y="0px"
	 viewBox="0 0 20.4 20.4" style="enable-background:new 0 0 20.4 20.4;" xml:space="preserve">
<style type="text/css">
	.st0{fill:#FFFFFF;}
</style>
<path class="st0" d="M3.5,15.1H1.1c-0.3,0-0.4-0.1-0.4-0.4v-1.6c0-0.3,0.1-0.4,0.4-0.4h2.4v-1.4c0-0.4,0-0.4,0.4-0.4h0.8V9.5H3.8
	c-0.3,0-0.4-0.1-0.4-0.4V7.7H1c-0.3,0-0.3-0.1-0.3-0.3V5.7c0-0.3,0.1-0.3,0.3-0.3h2.4V4c0-0.5,0-0.5,0.5-0.5h11.3
	c0.4,0,0.5,0,0.5,0.5v1.4h0.8c0.3,0,0.3,0.1,0.3,0.3v1.5h2.4c0.3,0,0.4,0.1,0.4,0.4v1.6c0,0.3-0.1,0.3-0.4,0.3h-2.4v1.4h2.4
	c0.3,0,0.4,0,0.4,0.4v1.6c0,0.3-0.1,0.4-0.4,0.4h-2.4v1.4h2.4c0.3,0,0.3,0.1,0.3,0.4v1.6c0,0.3-0.1,0.4-0.4,0.4H3.9
	c-0.4,0-0.4,0-0.4-0.4V15.1z M7.4,4H4v1.3h3.4V4z M13,14.6h3.5v-1.4H13V14.6z M4,7.7V9h3.4V7.7H4z M4.7,14.6v-1.4H1.2v1.4H4.7z
	 M7.9,7.7V9h3.4V7.7H7.9z M15.8,7.7V9h3.4V7.7H15.8z M5.1,10.9h3.4V9.5H5.1V10.9z M9.1,9.5v1.4h3.4V9.5H9.1z M13,10.9h3.5V9.5H13
	V10.9z M11.3,5.3V4H7.9v1.3H11.3z M8.6,14.6v-1.4H5.1v1.4H8.6z M12.5,13.2H9.1v1.4h3.4V13.2z M15.3,4h-3.4v1.3h3.4L15.3,4z M11.8,9
	h3.4V7.7h-3.4V9z M4.6,5.8H1.2v1.3h3.5V5.8z M5.1,7.2h3.4V5.8H5.1V7.2z M12.5,5.8H9.1v1.3h3.4V5.8z M7.4,11.4H4v1.4h3.4V11.4z
	 M11.4,11.4H7.9v1.4h3.5V11.4z M15.8,11.4v1.4h3.5v-1.4H15.8z M13,5.8v1.4h3.5V5.8H13z M4,15.1v1.4h3.4v-1.4H4z M11.4,15.1H7.9v1.4
	h3.5L11.4,15.1z M15.8,16.4h3.4v-1.3h-3.5L15.8,16.4z M15.3,11.4h-3.5v1.4h3.4L15.3,11.4z M15.3,15.1h-3.5v1.3h3.4v-1.2
	C15.3,15.2,15.3,15.1,15.3,15.1L15.3,15.1z"/>
</svg>
