<svg id="Layer_1" data-name="Layer 1" xmlns="http://www.w3.org/2000/svg" viewBox="0 0 20.4 20.4"><defs><style>.cls-1{fill:#fff;}</style></defs><path class="cls-1" d="M1,3.35a.18.18,0,0,0,.05-.15,1.12,1.12,0,0,1,1.08-.73h.29V2.12a.81.81,0,0,1,.84-.78.81.81,0,0,1,.83.78V3.4a.81.81,0,0,1-.83.78h0a.81.81,0,0,1-.84-.78V3.06a.62.62,0,0,0-.83.34.61.61,0,0,0-.05.29V4.77H15.4V3.55a.56.56,0,0,0-.54-.49h-.29v.29a.9.9,0,0,1-.83.88.86.86,0,0,1-.89-.78V3.1H5.24C5,3.1,4.85,3,4.85,2.86s.15-.3.39-.3H12.9V2.17a.86.86,0,0,1,.88-.78.89.89,0,0,1,.84.83v.3a2.24,2.24,0,0,1,.54,0A1.1,1.1,0,0,1,16,3.64v6c0,.2-.1.35-.29.35s-.25-.15-.25-.35V5.36H1.66V15a.6.6,0,0,0,.54.68h7.85a.24.24,0,0,1,.25.25.27.27,0,0,1-.25.29H2.29a1.12,1.12,0,0,1-1.22-.83H1Zm12.32-.64V3.3a.3.3,0,1,0,.59,0h0V2.12a.31.31,0,0,0-.29-.29h0a.31.31,0,0,0-.3.29h0Zm-9.72,0V2.17a.42.42,0,0,0-.29-.34h0a.31.31,0,0,0-.3.29H3V3.25a.32.32,0,0,0,.3.3h0a.32.32,0,0,0,.29-.3h0a1,1,0,0,1,0-.54Z"/><path class="cls-1" d="M10.79,14.79a4.3,4.3,0,1,1,4.32,4.27A4.22,4.22,0,0,1,10.79,14.79Zm4.32-3.73a3.73,3.73,0,1,0,3.73,3.73,3.73,3.73,0,0,0-3.73-3.73Z"/><path class="cls-1" d="M10.05,7.87H6.62c-.3,0-.4-.1-.4-.25s.15-.29.4-.29h6.92c.24,0,.39.1.39.29s-.15.25-.39.25Z"/><path class="cls-1" d="M9,10.22h2.65c.15,0,.25.2.2.3a.22.22,0,0,1-.2.2H6.52c-.25,0-.4-.1-.4-.3s.15-.29.4-.29Z"/><path class="cls-1" d="M5.29,10.52a1.14,1.14,0,0,1-1.13,1.13A1.18,1.18,0,0,1,3,10.52,1.14,1.14,0,0,1,4.16,9.39a1.08,1.08,0,0,1,1.13,1.13ZM4.16,9.88a.59.59,0,1,0,.59.59A.63.63,0,0,0,4.16,9.88Z"/><path class="cls-1" d="M5.29,7.62A1.13,1.13,0,1,1,4.16,6.49,1.11,1.11,0,0,1,5.29,7.62Zm-1.13.59a.59.59,0,1,0-.59-.59A.6.6,0,0,0,4.16,8.21Z"/><path class="cls-1" d="M5.29,13.37a1.13,1.13,0,1,1-1.13-1.13A1.14,1.14,0,0,1,5.29,13.37Zm-1.13-.59a.57.57,0,0,0-.59.59h0a.6.6,0,0,0,.59.59.57.57,0,0,0,.59-.59.6.6,0,0,0-.59-.59Z"/><path class="cls-1" d="M8.19,13.66H6.52a.27.27,0,0,1-.3-.2.36.36,0,0,1,.1-.29.38.38,0,0,1,.2-.1H9.91a.28.28,0,0,1,.29.25h0a.32.32,0,0,1-.29.29h0Z"/><path class="cls-1" d="M14.52,16.17l1.23-1.23c.39-.39.78-.74,1.13-1.13a.25.25,0,0,1,.39-.05h0a.29.29,0,0,1,.05.39l-.05,0a3.74,3.74,0,0,0-.39.44L15,16.51a.62.62,0,0,1-.78.15l-.15-.15L13,15.38a.29.29,0,0,1,0-.39.24.24,0,0,1,.3-.1s.09,0,.14.15Z"/></svg>