<svg id="Layer_1" data-name="Layer 1" xmlns="http://www.w3.org/2000/svg" viewBox="0 0 52.8 52.8"><defs><style>.cls-1{fill:#ffc742;}</style></defs><path d="M50.35,50c.37,0,.66,0,.95,0a.77.77,0,0,1,.74.78.75.75,0,0,1-.71.8,5.43,5.43,0,0,1-.57,0H2a5.33,5.33,0,0,1-.57,0A.79.79,0,0,1,1.5,50c.19,0,.38,0,.64,0V17.74c0-1.1.2-1.3,1.29-1.3H6.05v-2.9H3.19c-.78,0-1-.28-1-1.07,0-1.16,0-2.31,0-3.47,0-.77.3-1.06,1.07-1.06H29.62c.79,0,1.06.26,1.06,1.06,0,1.17,0,2.35,0,3.53,0,.76-.26,1-1,1H26.76v2.88l.48,0c.87,0,1.73,0,2.6,0a.76.76,0,0,1,.83.79,5.42,5.42,0,0,1,0,.57V49.9h2.88v-.62c0-7.52,0-15,0-22.57a1.15,1.15,0,0,1,.8-1.21q7.24-3.09,14.46-6.21c1.07-.46,1.54-.15,1.54,1V50ZM3.8,18.11V49.9H8.41V41.78H7.12c-.75,0-1-.27-1-1V37.58c0-1,.25-1.21,1.19-1.21H25.75c.67,0,1,.28,1,.93,0,1.19,0,2.39,0,3.58a.79.79,0,0,1-.89.89H24.44V49.9h4.61V18.11Zm18.94,31.8V41.82H10.13v8.09ZM35.22,30.29v9H48.69v-9ZM48.7,41H35.24V49.9H48.7Zm0-19.78-.09,0L35.45,26.82a.49.49,0,0,0-.25.33c0,.48,0,1,0,1.46H48.7ZM29,9.61H3.8v2.27H29Zm-21.3,6.8H25.06V13.56H7.74ZM25.09,38.05H7.75v2.08H25.09Z"/><path d="M41.9,18.51h-.31c-1.32,0-1.31,0-1.79-1.22a1,1,0,0,0-.41-.48,20.11,20.11,0,0,0-2.2-1.26,2,2,0,0,0-1.19,0A.94.94,0,0,1,34.85,15c-.3-.53-.6-1-.91-1.57a.85.85,0,0,1,.11-1.17,1.79,1.79,0,0,0,.58-1.63,5.34,5.34,0,0,1,0-1.13,2.1,2.1,0,0,0-.67-2,.74.74,0,0,1-.11-1l1-1.79A.87.87,0,0,1,36,4.33a1.64,1.64,0,0,0,1.51-.26,8,8,0,0,1,1-.6A2.16,2.16,0,0,0,40,1.85a.73.73,0,0,1,.81-.59c.65,0,1.31,0,2,0a.88.88,0,0,1,1,.73,1.68,1.68,0,0,0,1,1.24,8.09,8.09,0,0,1,1,.56,2.13,2.13,0,0,0,2.1.44.78.78,0,0,1,1,.47c.31.54.61,1.08.94,1.61a.87.87,0,0,1-.12,1.22,1.73,1.73,0,0,0-.56,1.57,6.61,6.61,0,0,1,0,1.09,2.22,2.22,0,0,0,.7,2.1.75.75,0,0,1,.07,1c-.32.57-.66,1.14-1,1.71a.86.86,0,0,1-1.09.46,1.63,1.63,0,0,0-1.59.25,6,6,0,0,1-1,.58,2.23,2.23,0,0,0-1.46,1.64.77.77,0,0,1-.87.59C42.55,18.5,42.23,18.51,41.9,18.51Zm6.32-5.65c-.83-.51-.78-1.31-.76-2.12s0-1.66,0-2.48a1.32,1.32,0,0,1,.43-1.17c.37-.32.09-.56,0-.85A.43.43,0,0,0,47.22,6,1.42,1.42,0,0,1,46,5.78c-.87-.53-1.76-1-2.65-1.52a1.48,1.48,0,0,1-.86-1c-.07-.42-.38-.36-.67-.37s-.54,0-.6.39a1.45,1.45,0,0,1-.88,1.07c-.92.51-1.81,1.08-2.74,1.56a1.86,1.86,0,0,1-1,.17c-.36,0-.63,0-.77.37-.06.15-.15.29-.26.5.79.47.79,1.23.76,2s0,1.52,0,2.28a1.81,1.81,0,0,1-.51,1.56c-.35.31,0,.57.17.8a.56.56,0,0,0,.47.2,1.8,1.8,0,0,1,1.47.25c.86.54,1.75,1,2.64,1.53a1.35,1.35,0,0,1,.75.93c.07.39.33.41.64.4s.59,0,.65-.4a1.45,1.45,0,0,1,.85-1c.9-.49,1.78-1,2.65-1.53a1.42,1.42,0,0,1,1.27-.21.41.41,0,0,0,.58-.26A5.79,5.79,0,0,1,48.22,12.86Z"/><path class="cls-1" d="M22.74,49.91H10.13V41.82H22.74Z"/><path class="cls-1" d="M25.09,38.05v2.08H7.75V38.05Z"/><path d="M16.39,25.78H14.52a.78.78,0,0,1-.87-.86c0-1.28,0-2.56,0-3.84a.82.82,0,0,1,.91-.89c1.25,0,2.49,0,3.74,0a.82.82,0,0,1,.91.9c0,1.26,0,2.52,0,3.79,0,.62-.31.9-.94.9Zm-1.08-3.94v2.29h2.23V21.84Z"/><path d="M8.86,25.78H7c-.61,0-.93-.27-.94-.86,0-1.29,0-2.59,0-3.89A.8.8,0,0,1,7,20.19c1.25,0,2.49,0,3.74,0a.8.8,0,0,1,.9.89q0,1.92,0,3.84a.78.78,0,0,1-.87.86ZM10,24.13V21.86H7.74v2.27Z"/><path d="M16.43,33.57H14.51a.79.79,0,0,1-.87-.87q0-1.92,0-3.84a.81.81,0,0,1,.87-.88c1.26,0,2.53,0,3.79,0a.82.82,0,0,1,.9.86c0,1.3,0,2.6,0,3.89,0,.57-.33.84-.9.85Zm1.12-1.63v-2.3H15.32v2.3Z"/><path d="M8.91,33.57H7a.79.79,0,0,1-.89-.86c0-1.29,0-2.59,0-3.89A.82.82,0,0,1,7,28h3.74a.82.82,0,0,1,.9.9c0,1.26,0,2.53,0,3.79,0,.62-.3.9-.94.91ZM7.74,29.64v2.29H10V29.64Z"/><path d="M26.72,23c0,.64,0,1.28,0,1.92a.76.76,0,0,1-.85.83H22A.75.75,0,0,1,21.2,25c0-1.3,0-2.6,0-3.89a.78.78,0,0,1,.87-.87c1.26,0,2.52,0,3.78,0a.79.79,0,0,1,.87.87C26.73,21.72,26.72,22.37,26.72,23Zm-1.65,1.11V21.85H22.83v2.29Z"/><path d="M26.72,30.8c0,.62,0,1.24,0,1.86s-.28.9-.87.91H22.06a.77.77,0,0,1-.86-.86q0-1.92,0-3.84a.8.8,0,0,1,.89-.9h3.74a.81.81,0,0,1,.89.91C26.73,29.52,26.72,30.16,26.72,30.8Zm-3.9,1.11h2.26V29.64H22.82Z"/><path d="M39.51,37.31H37.65a.8.8,0,0,1-.87-.76.76.76,0,0,1,.79-.84c1.28,0,2.56,0,3.83,0a.82.82,0,0,1,.84.82.83.83,0,0,1-.91.79Z"/><path d="M46.63,34.76c0,.55,0,1.1,0,1.66a.82.82,0,1,1-1.63,0q0-1.63,0-3.27a.82.82,0,0,1,.81-.89c.48,0,.81.36.82.93S46.63,34.24,46.63,34.76Z"/><path d="M38.27,33.87c-.24,0-.48,0-.72,0a.74.74,0,0,1-.76-.7.68.68,0,0,1,.58-.85,9.28,9.28,0,0,1,1.9,0,.67.67,0,0,1,.56.8.75.75,0,0,1-.73.74C38.82,33.89,38.55,33.87,38.27,33.87Z"/><path d="M44.49,48c-.61,0-1.21,0-1.81,0a.83.83,0,0,1-.91-.79.82.82,0,0,1,.87-.83c1.25,0,2.49,0,3.73,0a.85.85,0,0,1,.88.83.84.84,0,0,1-.9.8C45.73,48,45.11,48,44.49,48Z"/><path d="M37.51,45.44c0-.55,0-1.1,0-1.65a.82.82,0,0,1,.77-.87.8.8,0,0,1,.82.77c0,1.18,0,2.37,0,3.56a.78.78,0,0,1-.85.73.79.79,0,0,1-.74-.83C37.5,46.58,37.51,46,37.51,45.44Z"/><path d="M45.69,44.55c-.24,0-.48,0-.72,0a.81.81,0,1,1,0-1.62,12.51,12.51,0,0,1,1.5,0,.81.81,0,0,1,0,1.62C46.21,44.57,46,44.55,45.69,44.55Z"/><path d="M37.82,9.86a4,4,0,0,1,8.08,0,4,4,0,1,1-8.08,0Zm6.44.05a2.41,2.41,0,1,0-2.4,2.38A2.39,2.39,0,0,0,44.26,9.91Z"/><path class="cls-1" d="M15.31,21.84h2.23v2.29H15.31Z"/><path class="cls-1" d="M10,24.13H7.74V21.86H10Z"/><path class="cls-1" d="M17.55,31.94H15.32v-2.3h2.23Z"/><path class="cls-1" d="M7.74,29.64H10v2.29H7.74Z"/><path class="cls-1" d="M25.07,24.14H22.83V21.85h2.24Z"/><path class="cls-1" d="M22.82,31.91V29.64h2.26v2.27Z"/></svg>