<svg id="Layer_1" data-name="Layer 1" xmlns="http://www.w3.org/2000/svg" viewBox="0 0 52.8 52.8"><defs><style>.cls-1{fill:#ffc742;}</style></defs><path d="M30.26,51.1a1.61,1.61,0,0,1-.83-1.73c0-.19,0-.39,0-.58A2.57,2.57,0,0,1,32.16,46h.61v-2.6c0-.71,0-1.42,0-2.12a1.76,1.76,0,0,1,1.76-1.79c.74,0,1.48,0,2.26,0V10.61c-1-.13-2.35.4-2.59-1.27H18.78c0,.8,0,1.6,0,2.39,0,.12.14.25.24.35.71.77,1.42,1.54,2.15,2.28a1.07,1.07,0,0,0,.66.28c1,0,1.42.44,1.43,1.46s0,1.93,0,2.9-.43,1.35-1.37,1.36q-3.86,0-7.71,0A1.21,1.21,0,0,1,12.82,19q0-1.5,0-3a1.19,1.19,0,0,1,1.33-1.34,1,1,0,0,0,.87-.39c.68-.75,1.39-1.48,2.07-2.22a.73.73,0,0,0,.22-.4c0-.75,0-1.51,0-2.33H13.83a1.23,1.23,0,0,1-1.29-1.23c0-1.3,0-2.6,0-3.9A1.25,1.25,0,0,1,13.93,3H34.18c.39-1.13.58-1.26,1.75-1.26h8.25c1.17,0,1.36.13,1.75,1.26h3.51c1,0,1.48.45,1.48,1.46V7.84c0,1-.45,1.48-1.51,1.48H45.9c-.22,1.67-1.54,1.18-2.59,1.28V39.51c.71,0,1.43,0,2.14,0a1.92,1.92,0,0,1,2.13,2.14c0,1.27,0,2.54,0,3.81V46c.4,0,.76,0,1.1.08a2.53,2.53,0,0,1,2.23,2.45c0,.32,0,.65,0,1A1.52,1.52,0,0,1,50,51.1Zm.67-1.48H49.44v-.69c0-1.07-.35-1.42-1.41-1.42H42.24c-.71,0-1.07-.25-1.07-.75s.36-.73,1.09-.73H46.1c0-1.54,0-3,0-4.49,0-.45-.18-.58-.6-.58H34.84c-.46,0-.63.17-.62.62,0,1.35,0,2.7,0,4.05,0,.13,0,.25,0,.4h4a.76.76,0,0,1,.84.75.78.78,0,0,1-.85.73c-.16,0-.32,0-.48,0H32.06a1,1,0,0,0-1.12.9C30.9,48.8,30.93,49.2,30.93,49.62ZM35.75,9.11h8.6V3.18h-8.6Zm-14,9.75V16.18H14.33v2.68Zm-2-11.18,3.06-3.24h-6Zm10.15,0L33,4.44H26.92Zm-8.07.15h6.24l-3.3-3.2ZM38.55,20l3.18,3V17Zm3.2,13.13v-6l-3.19,3Zm-.18-18.16-3.19-3V17.9ZM38.36,28l3.17-3-3.17-3Zm0,4.15V38l3.16-2.94ZM14.06,4.35V7.84h3.51c-.94-1-2-2.16-3.05-3.3C14.43,4.44,14.25,4.43,14.06,4.35ZM49.44,6.88V4.44H47.23ZM32,7.84h2.17V5.5ZM45.9,5.41V7.85h2.27Zm-6.5,5.2,2.35,2.25V10.61Zm2.33,28.88v-2.2l-2.33,2.2Zm-25-24.88h2.67L18,13.18Z"/><path d="M2.67,51.1a1.38,1.38,0,0,1-.79-1.41q0-15.39,0-30.78c0-1.07.36-1.43,1.41-1.43H10c1,0,1.33.3,1.33,1.32v8h2.53v-2.1a.71.71,0,0,1,.59-.76.72.72,0,0,1,.85.75c0,.69,0,1.38,0,2.13h3.25a.72.72,0,0,1,.74.72.69.69,0,0,1-.74.72c-.86,0-1.73,0-2.6,0h-.61v3.69h2.82c.77,0,1.13.38,1.14,1.13,0,1.16,0,2.32,0,3.48,0,.78,0,1.57,0,2.36,0,.55-.31.9-.74.89s-.73-.36-.73-.9V33.42H10.92c-.83,0-1.07-.23-1.07-1.06V26.29c-.76,0-1.46,0-2.16,0a.73.73,0,0,1-.75-.68.69.69,0,0,1,.6-.75,3.33,3.33,0,0,1,.63,0H9.82v-2.6H7.59a.79.79,0,0,1-.85-.5.72.72,0,0,1,.74-1c.59,0,1.19,0,1.78,0h.56V19H3.38V49.62H17.83V42.71a1.81,1.81,0,0,1,.06-.52.72.72,0,0,1,1.39.12,3.85,3.85,0,0,1,0,.48c0,2.25,0,4.5,0,6.75a1.68,1.68,0,0,1-.72,1.56ZM13.83,31.9V28.27H11.36V31.9Z"/><path d="M10.57,42.82h4.24a1.13,1.13,0,0,1,1.31,1.29c0,.87,0,1.73,0,2.6S15.71,48,14.87,48C12,48,9.16,48,6.3,48c-.84,0-1.23-.42-1.23-1.26s0-1.73,0-2.6.41-1.28,1.31-1.28Zm-.75,3.64V44.34H6.55v2.12Zm4.8-2.12H11.37v2.11h3.25Z"/><path d="M10.58,35.56h4.29c.83,0,1.23.38,1.24,1.2s0,1.83,0,2.75a1.08,1.08,0,0,1-1.22,1.17H6.3a1.08,1.08,0,0,1-1.23-1.2c0-.92,0-1.84,0-2.75a1.05,1.05,0,0,1,1.17-1.17ZM9.82,37H6.56v2.15H9.82Zm4.81,0H11.37V39.2h3.26Z"/><path class="cls-1" d="M30.93,49.62c0-.42,0-.82,0-1.21a1,1,0,0,1,1.12-.9H37.8c.16,0,.32,0,.48,0a.78.78,0,0,0,.85-.73.76.76,0,0,0-.84-.75h-4c0-.15,0-.27,0-.4,0-1.35,0-2.7,0-4.05,0-.45.16-.62.62-.62H45.5c.42,0,.61.13.6.58,0,1.47,0,3,0,4.49H42.26c-.73,0-1.08.24-1.09.73s.36.75,1.07.75H48c1.06,0,1.41.35,1.41,1.42v.69Z"/><path class="cls-1" d="M35.75,9.11V3.18h8.6V9.11Z"/><path class="cls-1" d="M21.76,18.86H14.33V16.18h7.43Z"/><path class="cls-1" d="M16.71,14.61,18,13.18l1.34,1.43Z"/><path class="cls-1" d="M13.83,31.9H11.36V28.27h2.47Z"/><path class="cls-1" d="M9.82,46.46H6.55V44.34H9.82Z"/><path class="cls-1" d="M14.62,44.34v2.11H11.37V44.34Z"/><path class="cls-1" d="M9.82,37v2.15H6.56V37Z"/><path class="cls-1" d="M14.63,37V39.2H11.37V37Z"/></svg>