<svg id="Layer_1" data-name="Layer 1" xmlns="http://www.w3.org/2000/svg" viewBox="0 0 52.8 52.8"><defs><style>.cls-1{fill:#ffc742;}</style></defs><polygon class="cls-1" points="15.29 27.79 7.4 29.28 7.4 19.89 15.29 19.89 15.29 27.79"/><path d="M28.46,8.32a11.93,11.93,0,0,1,21.82,9.59,11.58,11.58,0,0,1-6.91,6.9,11.79,11.79,0,0,1-9.78-.56v4.26c4.45-2.05,8.72-1.83,12.7,1.07a11.37,11.37,0,0,1,4.65,7.85A11.92,11.92,0,0,1,40,51a11.62,11.62,0,0,1-7-1.68,11.92,11.92,0,0,1-5.55-12.58h-2c.07.5.15,1,.18,1.47A11.93,11.93,0,1,1,3.2,33.47a1.39,1.39,0,0,0,.16-.55q0-7.56,0-15.1s0-.07,0-.15H1.78a24,24,0,0,0,0-2.82,2.48,2.48,0,0,1,1.3-2.57c4.46-3.2,8.86-6.49,13.29-9.75a3.27,3.27,0,0,1,4.24,0ZM39.13,28.78A10.33,10.33,0,1,0,49.47,39.11,10.38,10.38,0,0,0,39.13,28.78ZM13.66,49.44A10.33,10.33,0,1,0,3.37,39.07,10.38,10.38,0,0,0,13.66,49.44ZM39.1,24A10.34,10.34,0,1,0,28.8,13.63,10.38,10.38,0,0,0,39.1,24ZM19.31,17.66a1.19,1.19,0,0,0,0,.14c0,3.49,0,7,0,10.48a.67.67,0,0,0,.32.46,10.59,10.59,0,0,1,3.33,2.87c.79,1.09,1.44,2.28,2.21,3.53.71,0,1.61,0,2.5,0a.5.5,0,0,0,.36-.29,12.29,12.29,0,0,1,3.72-5.06.76.76,0,0,0,.25-.53c0-1.91,0-3.81,0-5.71,0-.13,0-.3-.08-.37-.47-.44-1-.86-1.53-1.35v6.93H20.89V20.81h8.6l-1.68-3.15ZM5,17.67V30.94c.43-.38.81-.75,1.22-1.07a.85.85,0,0,0,.36-.75c0-3.11,0-6.22,0-9.33v-.53h9.53v.56q0,3.57,0,7.15c0,.16.08.43.19.48.44.16.91.26,1.37.38V17.67ZM5,12.85H17.63V3.58L12.11,7.65a2.59,2.59,0,0,1,.19.45c.15.78.68,1,1.4,1.11s1.67.32,2.55.5l-.32,1.57c-1.41-.28-2.78-.55-4.15-.84a.65.65,0,0,1-.36-.35c-.23-.46-.43-.94-.65-1.46ZM14.46,27.2V20.86H8.15v7.69A12.08,12.08,0,0,1,14.46,27.2Zm4.83-14.35h7.87c.21-1,.43-1.88.62-2.79a.4.4,0,0,0-.12-.33c-1.15-.86-2.31-1.71-3.5-2.58L22.92,8.63l2.27,1.15-.71,1.43-2.05-1v1.05H20.86c0-.79,0-1.53,0-2.27a1.18,1.18,0,0,1,.24-.66c.56-.72,1.15-1.4,1.75-2.13L19.29,3.56Zm9.49,14.31V22.45h-6.3v4.71ZM17.67,14.5H3.4V16H17.67Zm1.62,0V16h8.13l-.19-1.55Z"/><path class="cls-1" d="M39.1,24a10.34,10.34,0,1,1,10.37-10.3A10.39,10.39,0,0,1,39.1,24ZM32.8,9.31c-.54.55-1,1-1.44,1.47a.68.68,0,0,0-.16.39A4.76,4.76,0,0,0,36.71,16a.81.81,0,0,1,.83.26c1.25,1.27,2.53,2.53,3.79,3.8a2.35,2.35,0,0,0,2.3.72,2.38,2.38,0,0,0,1.14-4.05c-1.28-1.32-2.61-2.6-3.89-3.91a1,1,0,0,1-.22-.69,4.79,4.79,0,0,0-4.2-5.58,1.48,1.48,0,0,0-.9.08c-.55.44-1,1-1.56,1.5.59.57,1.11,1.1,1.66,1.61a.46.46,0,0,1,.1.69,3.59,3.59,0,0,1-.56.61.54.54,0,0,1-.85-.09C33.87,10.39,33.35,9.89,32.8,9.31Z"/><path d="M43.39,42.91l-3.45-3.46c-.58.58-1.14,1.13-1.69,1.7-.07.07,0,.27,0,.39A2.38,2.38,0,0,1,37.62,44c-.5.51-1,1-1.51,1.51a2.39,2.39,0,1,1-3.39-3.37c.47-.49,1-1,1.44-1.44A2.33,2.33,0,0,1,36.6,40a.6.6,0,0,0,.69-.2c.48-.49,1-1,1.48-1.44L35.32,35c1.78-1.28,7.67-2.51,10.16-2.14A22,22,0,0,1,43.39,42.91Zm-5.06-7.5,4.51,4.51a18.81,18.81,0,0,0,1-5.55A19.29,19.29,0,0,0,38.33,35.41Zm-4.06,9.32a1.59,1.59,0,0,0,.53-.22c.61-.58,1.22-1.16,1.79-1.78a.68.68,0,0,0-.08-1,.7.7,0,0,0-1-.06,19.83,19.83,0,0,0-1.7,1.73.93.93,0,0,0-.08.8C33.78,44.43,34.08,44.56,34.27,44.73Z"/><path d="M8.17,36.89c1.9.48,3.8,1,5.71,1.42.51.11.66.31.63.82a18.92,18.92,0,0,0,0,2.13.68.68,0,0,0,.27.49A2.37,2.37,0,0,1,16.08,44c0,.49,0,1,0,1.49a2.38,2.38,0,0,1-4.76,0c0-.53,0-1.06,0-1.59a2.25,2.25,0,0,1,1.25-2.1.52.52,0,0,0,.34-.57c0-.49,0-1,0-1.49-1.94-.49-3.84-1-5.75-1.43-.46-.1-.64-.26-.63-.76,0-1.31,0-2.62,0-4a2.72,2.72,0,0,1,.39,0c.69,0,1.39,0,2.08,0a1.09,1.09,0,0,0,1.19-.6,2,2,0,0,1,1.88-1c2.13,0,4.27,0,6.4,0a2.38,2.38,0,0,1,0,4.76H12.16A2.29,2.29,0,0,1,10,35.45a.5.5,0,0,0-.53-.32c-.43,0-.86,0-1.32,0Zm7.08-1.75h3c.61,0,1-.33,1-.81s-.39-.78-1-.78h-6c-.61,0-1,.32-1,.8s.39.78,1,.79Zm-.76,9.54c0-.28,0-.56,0-.84a.82.82,0,0,0-.78-.75.8.8,0,0,0-.79.74,15.69,15.69,0,0,0,0,1.68.8.8,0,0,0,.78.75.81.81,0,0,0,.78-.74A7.85,7.85,0,0,0,14.49,44.68Z"/><path d="M32.8,9.31c.55.58,1.07,1.08,1.55,1.63a.54.54,0,0,0,.85.09,3.59,3.59,0,0,0,.56-.61.46.46,0,0,0-.1-.69c-.55-.51-1.07-1-1.66-1.61.54-.53,1-1.06,1.56-1.5a1.48,1.48,0,0,1,.9-.08,4.79,4.79,0,0,1,4.2,5.58,1,1,0,0,0,.22.69c1.28,1.31,2.61,2.59,3.89,3.91a2.38,2.38,0,0,1-1.14,4.05,2.35,2.35,0,0,1-2.3-.72c-1.26-1.27-2.54-2.53-3.79-3.8a.81.81,0,0,0-.83-.26,4.76,4.76,0,0,1-5.51-4.82.68.68,0,0,1,.16-.39C31.81,10.31,32.26,9.86,32.8,9.31ZM33,11.77l-.11.07c0,.13,0,.27.08.4a3.13,3.13,0,0,0,4.14,2,.73.73,0,0,1,.93.21q2.18,2.22,4.39,4.39a1.32,1.32,0,0,0,.86.35.77.77,0,0,0,.56-.52,1.13,1.13,0,0,0-.27-.86c-1.43-1.49-2.9-3-4.38-4.4a.83.83,0,0,1-.25-1.05,3.12,3.12,0,0,0-2.07-4.1,2,2,0,0,0-.34,0,10.36,10.36,0,0,0,.72.85,1.32,1.32,0,0,1,.3.72,3.15,3.15,0,0,1-2.75,3.08,1.08,1.08,0,0,1-1.18-.4A6.87,6.87,0,0,0,33,11.77Z"/></svg>