<svg id="Layer_1" data-name="Layer 1" xmlns="http://www.w3.org/2000/svg" viewBox="0 0 20.4 20.4"><defs><style>.cls-1{fill:#fff;}</style></defs><path class="cls-1" d="M.93,10c.3-.84.54-1.73.84-2.56.34-1,.64-2,1-3a.87.87,0,0,1,1.18-.59c.4.15.79.25,1.19.4A.83.83,0,0,1,5.81,5,5,5,0,0,0,7,4.9a3.4,3.4,0,0,1,1.87,0,8.51,8.51,0,0,1,.79.34c.05,0,.15,0,.2,0A2.9,2.9,0,0,1,12.65,5l1,.4a.82.82,0,0,0,.69,0,.18.18,0,0,0-.05-.15.86.86,0,0,1,.54-1,13.14,13.14,0,0,1,1.38-.49.83.83,0,0,1,1.08.49C18,6.13,18.61,8,19.3,9.77a.85.85,0,0,1-.54,1.14c-.44.14-.89.34-1.28.49a.81.81,0,0,1-1.13-.49c0-.05-.05-.05-.1-.1A1.61,1.61,0,0,1,16,12a1,1,0,0,1-1.13.29,1.27,1.27,0,0,1-.44,1.14,1.18,1.18,0,0,1-1.19.19c-.09.94-.44,1.29-1.28,1.38a1.06,1.06,0,0,1-1.67,1c-.25.49-.59.84-1.18.74a1.29,1.29,0,0,1-1-.94,1.24,1.24,0,0,1-1.67-.69A1.1,1.1,0,0,1,5,15.09a1.15,1.15,0,0,1-.4-1.23H4.28a1.18,1.18,0,0,1-.89-1.67,5.45,5.45,0,0,1,.3-.55c.05,0,.05-.14.1-.24s-.1,0-.15,0a1,1,0,0,1-.79.15l-1.33-.45a.92.92,0,0,1-.64-.69A1.45,1.45,0,0,0,.93,10Zm6.8,2.61a1.19,1.19,0,0,1,1.08.25,1.24,1.24,0,0,1,.4,1H9.7a.15.15,0,0,0-.1,0,.32.32,0,0,1-.15-.39c.1-.15.2-.15.4-.05s.09.05.14.05l1.68.88a.69.69,0,0,0,1-.44.71.71,0,0,0-.39-.84l-1.58-.83c-.19-.1-.24-.25-.15-.4s.2-.15.4,0,.69.4,1.08.59l1.33.74a.67.67,0,0,0,.74-.05.62.62,0,0,0,.3-.69.9.9,0,0,0-.4-.54c-.74-.39-1.48-.79-2.21-1.23-.2-.1-.25-.25-.15-.34s.2-.15.39-.05l.59.29c.79.45,1.63.89,2.42,1.28.44.25.74,0,.83-.44a1,1,0,0,0-.39-.94,10.91,10.91,0,0,0-1.28-.78c-.59-.35-1.28-.6-1.87-1a1.47,1.47,0,0,0-1.28-.15,11.73,11.73,0,0,1-1.38.45A2.07,2.07,0,0,1,7.28,8.2c-.14-.2-.14-.25,0-.5a1.83,1.83,0,0,1,.39-.49c.54-.54,1.08-1.08,1.67-1.62a.17.17,0,0,0,0-.1,2.46,2.46,0,0,0-1.67-.3,8.5,8.5,0,0,1-2,.25.29.29,0,0,0,0,.19c-.25.69-.44,1.43-.69,2.12S4.48,9.23,4.28,10c0,.2,0,.39-.1.59a1.24,1.24,0,0,1,2.07.84C7.24,11.5,7.53,11.69,7.73,12.63ZM7.68,8v.05l.05,0a1.37,1.37,0,0,0,1.57.39A10.65,10.65,0,0,0,10.68,8a1.65,1.65,0,0,1,1.19-.1,4,4,0,0,1,.68.3c.65.34,1.33.64,2,1a4.36,4.36,0,0,1,1.37,1s.1,0,.15.09v-.19c-.49-1.38-1-2.71-1.52-4.09,0,0,0-.1,0-.15a1.48,1.48,0,0,1-1,0,5.19,5.19,0,0,1-.93-.39,2.47,2.47,0,0,0-2.71.39C9.16,6.37,8.57,7,8,7.56ZM1.42,10.17a.38.38,0,0,0,.3.39A10.41,10.41,0,0,0,3,11c.29.1.44,0,.54-.29.59-1.82,1.18-3.6,1.72-5.42.1-.29,0-.44-.29-.54s-.79-.25-1.18-.4-.5,0-.59.3C2.6,6.37,2.06,8.15,1.47,9.92A.67.67,0,0,0,1.42,10.17Zm15.08-6a.38.38,0,0,0-.2,0l-1.23.44c-.3.1-.35.29-.25.59.64,1.77,1.33,3.55,2,5.32a.36.36,0,0,0,.54.25l1.19-.45c.34-.14.39-.29.29-.59-.39-1-.79-2.07-1.13-3.1-.25-.74-.54-1.48-.79-2.17A.38.38,0,0,0,16.5,4.21ZM5.07,14.06a.68.68,0,0,0,.54.69.6.6,0,0,0,.74-.35c.24-.49.49-.93.74-1.43A.64.64,0,0,0,6.84,12a.67.67,0,0,0-.93.29c-.25.45-.5.89-.74,1.38A3.19,3.19,0,0,1,5.07,14.06Zm-.54-.79a.63.63,0,0,0,.54-.35c.19-.39.39-.73.59-1.13a.65.65,0,0,0-.3-.88.62.62,0,0,0-.83.24,12.52,12.52,0,0,0-.64,1.18A.64.64,0,0,0,4.53,13.27ZM8,13.07a.53.53,0,0,0-.44.3c-.2.34-.39.74-.59,1.08a.65.65,0,0,0,.3.84.68.68,0,0,0,.88-.2c.2-.34.4-.69.59-1.08A.73.73,0,0,0,8,13.07ZM9.5,14.35a1.13,1.13,0,0,0-.93,1.19v0a.85.85,0,0,0,.64.6.54.54,0,0,0,.59-.4l.29-.59A.59.59,0,0,0,9.5,14.35Zm.89-.14c.34.49.39.59.15,1.33.34.24.64.24.78,0a.55.55,0,0,0-.09-.79A2.93,2.93,0,0,0,10.39,14.21Z"/><path class="cls-1" d="M9.3,16.77H9.11A1.48,1.48,0,0,1,8,15.83a1.2,1.2,0,0,1-1.62-.69A1.17,1.17,0,0,1,5,15a1.13,1.13,0,0,1-.44-1.23h-.3a1.19,1.19,0,0,1-.89-1.72,2.44,2.44,0,0,0,.15-.35c0-.1.1-.14.15-.24s.05-.1.05-.15H3.69a.86.86,0,0,1-.84.15,2.37,2.37,0,0,1-.54-.2,4.81,4.81,0,0,0-.79-.25.92.92,0,0,1-.64-.69h0V10l.3-.94c.19-.54.34-1.08.54-1.62s.34-1.09.54-1.63.3-.93.44-1.38a.9.9,0,0,1,1.23-.64L4.38,4c.24.1.49.15.74.25A1,1,0,0,1,5.86,5,4.35,4.35,0,0,0,7,4.9H7A4.15,4.15,0,0,1,9,4.9l.49.19.3.15c.05,0,.15,0,.15,0A3.13,3.13,0,0,1,12.7,5l.35.15c.19.1.44.15.64.25a.92.92,0,0,0,.64,0v-.1a1,1,0,0,1,.54-1.09c.44-.19.94-.34,1.38-.49a.93.93,0,0,1,1.18.54c.64,1.78,1.33,3.6,2,5.47A.89.89,0,0,1,18.91,11c-.39.15-.84.3-1.28.5a.9.9,0,0,1-1.18-.45,1.46,1.46,0,0,1-.3,1.09,1,1,0,0,1-1.13.29,1.26,1.26,0,0,1-1.68,1.28c-.1.89-.44,1.28-1.28,1.38a1.13,1.13,0,0,1-.49,1.09,1,1,0,0,1-1.18-.05A1.54,1.54,0,0,1,9.3,16.77ZM8.12,15.68h0a1.32,1.32,0,0,0,1,1c.49,0,.83-.15,1.13-.74v0l.05,0c.44.25.84.3,1.13.05a1.07,1.07,0,0,0,.44-1.08v-.05H12c.84-.1,1.14-.45,1.24-1.33v0h0a1.06,1.06,0,0,0,1.14-.2,1.13,1.13,0,0,0,.44-1.08v0h0A1,1,0,0,0,16,11.89a1.4,1.4,0,0,0,.25-1.18v-.1l.1.05.1.1a.79.79,0,0,0,1.08.44c.49-.2.89-.34,1.28-.49a.81.81,0,0,0,.49-1.09c-.69-1.82-1.38-3.69-2-5.46a.78.78,0,0,0-1-.5c-.44.15-.89.35-1.38.5a.81.81,0,0,0-.49,1v.2h-.05a.94.94,0,0,1-.74,0c-.2-.1-.44-.15-.64-.25l-.35-.14a3,3,0,0,0-2.7.19.23.23,0,0,1-.25,0L9.3,5a4.1,4.1,0,0,0-.49-.2,3.94,3.94,0,0,0-1.87,0H6.89a3.16,3.16,0,0,1-1.18.1h0v0c0-.4-.3-.59-.69-.74a4.3,4.3,0,0,1-.74-.25l-.44-.15a.86.86,0,0,0-1.14.6c-.14.44-.29.93-.44,1.37s-.34,1.09-.54,1.63-.35,1.08-.54,1.63l-.2,1.18v.29a.86.86,0,0,0,.59.64c.25.1.54.15.79.25a2.37,2.37,0,0,1,.54.2.78.78,0,0,0,.74-.1,0,0,0,0,0,.05,0,0,0,0,0,0,0-.05l.1-.05,0,.1s0,0-.05.1,0,.1,0,.15-.1.14-.15.24l-.15.3a1.32,1.32,0,0,0,0,1,1.09,1.09,0,0,0,.84.59h.4v0A1.19,1.19,0,0,0,5,15,1.09,1.09,0,0,0,6.3,15l0,0v0a1.32,1.32,0,0,0,1.77.64Zm1.13.59H9.16a.76.76,0,0,1-.64-.64v-.05h0a1,1,0,0,1,.29-.83.92.92,0,0,1,.69-.4h0a.64.64,0,0,1,.59.3.71.71,0,0,1,.05.64c-.1.2-.2.39-.29.54v.05A.67.67,0,0,1,9.25,16.27Zm.25-1.92h0a1.51,1.51,0,0,0-.64.4,1,1,0,0,0-.29.79h0v0a.73.73,0,0,0,.59.55c.29.05.44-.15.59-.4v-.05c.1-.19.19-.34.29-.54a.43.43,0,0,0,0-.54.74.74,0,0,0-.49-.25ZM11,15.73a.8.8,0,0,1-.49-.19h-.05v0c.19-.69.19-.84-.15-1.28l-.15-.2.2.1a1.17,1.17,0,0,1,.24.14,3.73,3.73,0,0,1,.6.35.52.52,0,0,1,.24.39.51.51,0,0,1-.15.5C11.27,15.68,11.13,15.73,11,15.73Zm-.4-.24c.3.19.55.19.74,0a.42.42,0,0,0,.1-.4.51.51,0,0,0-.19-.34,3.73,3.73,0,0,0-.6-.35c-.05,0-.05-.05-.09-.05C10.78,14.7,10.78,14.9,10.58,15.49Zm-3-.1a.83.83,0,0,1-.34-.1.68.68,0,0,1-.3-.89,7.9,7.9,0,0,1,.59-1.08A.68.68,0,0,1,8,13H8a.84.84,0,0,1,.69.35.6.6,0,0,1,0,.64,7.9,7.9,0,0,1-.59,1.08A.76.76,0,0,1,7.58,15.39ZM8,13.12a.53.53,0,0,0-.44.25c-.25.44-.44.79-.59,1.08a.59.59,0,0,0,.3.79.61.61,0,0,0,.83-.2A7,7,0,0,0,8.66,14a.52.52,0,0,0-.05-.54.77.77,0,0,0-.64-.3ZM5.76,14.8h-.2A.69.69,0,0,1,5,14.11H5s0,0,.05-.1,0-.15.1-.25c.24-.44.49-.88.74-1.38A.77.77,0,0,1,6.4,12a.69.69,0,0,1,.54,0,.73.73,0,0,1,.25,1c-.25.45-.5.94-.74,1.43A1,1,0,0,1,5.76,14.8Zm-.64-.69a.68.68,0,0,0,.49.64.57.57,0,0,0,.69-.3A14,14,0,0,0,7,13a.59.59,0,0,0-.25-.88.47.47,0,0,0-.44-.05.87.87,0,0,0-.4.34c-.24.49-.49.94-.73,1.38,0,0,0,.15-.1.25Zm6.89.34a1.18,1.18,0,0,1-.39-.1,11.4,11.4,0,0,1-1.18-.64c-.15-.1-.35-.19-.5-.29l0-.05c-.05,0-.05,0-.1,0s-.25-.1-.3,0,0,.24.1.29l.25.15H9.11v-.05a1.18,1.18,0,0,0-.4-1,1.1,1.1,0,0,0-1-.25h0v0c-.2-.88-.44-1.08-1.43-1.08h0v-.05a1.26,1.26,0,0,0-.79-1,1.33,1.33,0,0,0-1.23.25l-.1,0v-.3a1,1,0,0,1,0-.39c.2-.64.4-1.28.59-1.87l.1-.35c.2-.54.35-1.08.54-1.62l.15-.49s0-.1,0-.15l0-.1h.05a4,4,0,0,0,1.33-.15,2.43,2.43,0,0,1,.59-.1,2.4,2.4,0,0,1,1.68.3l0,.05.1.19,0,0-.49.5c-.39.39-.79.74-1.18,1.13a2.79,2.79,0,0,0-.39.49c-.1.2-.1.25,0,.4a2,2,0,0,0,2.36.64,4.81,4.81,0,0,1,.79-.25c.19-.05.39-.15.59-.2a1.59,1.59,0,0,1,1.33.15,6.41,6.41,0,0,0,1.08.54c.25.15.54.25.79.4s.79.49,1.28.79a1,1,0,0,1,.44,1c0,.25-.14.44-.29.49s-.35,0-.59-.05c-.59-.29-1.18-.64-1.78-.93l-.88-.45c-.15,0-.25-.14-.4-.19s-.24,0-.34.05,0,.1,0,.14.05.1.15.15c.74.4,1.47.79,2.21,1.23a.81.81,0,0,1,.45.55.68.68,0,0,1-.3.73.66.66,0,0,1-.79,0c-.29-.14-.59-.34-.88-.49s-.3-.15-.45-.25c-.34-.19-.69-.39-1.08-.59s-.35,0-.35.05a.11.11,0,0,0,0,.15s.1.1.2.15l.59.29,1,.55a.79.79,0,0,1,.44.88.66.66,0,0,1-.39.49A.4.4,0,0,1,12,14.45ZM9.7,13.27a.3.3,0,0,1,.2.05s0,0,.09,0l0,.05c.15.1.35.19.5.29.39.2.78.45,1.18.64a.81.81,0,0,0,.59.05.61.61,0,0,0,.34-.44.67.67,0,0,0-.39-.79l-1-.54-.59-.3a.31.31,0,0,1-.19-.24.3.3,0,0,1,0-.2c0-.1.19-.25.49-.1s.69.4,1.08.59c.15.1.3.15.44.25.3.15.6.34.89.49a.58.58,0,0,0,.69,0,.63.63,0,0,0,.25-.64.67.67,0,0,0-.4-.49c-.74-.39-1.47-.79-2.21-1.23-.1-.05-.2-.15-.2-.2a.3.3,0,0,1,0-.2.31.31,0,0,1,.44-.09c.15,0,.25.14.4.19l.88.45c.59.29,1.19.64,1.78.93a.58.58,0,0,0,.49.05.42.42,0,0,0,.25-.44.87.87,0,0,0-.4-.89,15,15,0,0,0-1.28-.79c-.25-.14-.54-.24-.79-.39s-.74-.35-1.08-.59a1.35,1.35,0,0,0-1.23-.15c-.2.05-.4.15-.59.2A5.06,5.06,0,0,1,9.7,9a2.1,2.1,0,0,1-2.46-.69c-.15-.19-.2-.29,0-.54a2.79,2.79,0,0,1,.39-.49c.39-.39.79-.79,1.18-1.13l.49-.5.05,0a2.46,2.46,0,0,0-1.57-.24c-.2.05-.4.05-.59.1a6.08,6.08,0,0,1-1.33.14v0c0,.05,0,.1,0,.15l-.15.49c-.2.55-.35,1.09-.54,1.63l-.2.25-.59,1.87a.93.93,0,0,0,0,.39v.1a1.3,1.3,0,0,1,1.23-.2,1.32,1.32,0,0,1,.84,1.09c1,.05,1.28.24,1.48,1.13a1.09,1.09,0,0,1,1.08.3,1,1,0,0,1,.39,1h.3c-.2-.1-.2-.25-.15-.44A.43.43,0,0,1,9.7,13.27Zm-5.17.05h0A.84.84,0,0,1,3.84,13a.6.6,0,0,1,0-.64,6.76,6.76,0,0,1,.64-1.18.7.7,0,0,1,.93-.24.73.73,0,0,1,.35.93c-.15.35-.35.69-.59,1.13a.76.76,0,0,1-.59.35ZM5,10.86a.65.65,0,0,0-.54.29c-.25.45-.45.84-.64,1.18a.45.45,0,0,0,.05.55.64.64,0,0,0,.59.29A.56.56,0,0,0,5,12.88a8.33,8.33,0,0,0,.59-1.14.61.61,0,0,0-.3-.83A1.59,1.59,0,0,0,5,10.86Zm-1.87.19A.3.3,0,0,1,3,11a11.3,11.3,0,0,0-1.28-.39.36.36,0,0,1-.3-.44h0v-.05a.18.18,0,0,1,0-.15C2,8.2,2.56,6.42,3.15,4.65c.1-.39.29-.44.69-.35l.39.15c.25.1.49.15.79.25a.41.41,0,0,1,.29.59c-.59,1.82-1.18,3.6-1.72,5.42A.46.46,0,0,1,3.15,11.05Zm-1.68-.88c0,.19.05.29.25.34.44.15.88.3,1.28.4s.39,0,.49-.25c.59-1.82,1.18-3.6,1.73-5.42.09-.25,0-.39-.25-.49s-.49-.15-.79-.25l-.39-.15c-.35-.09-.45,0-.54.3C2.65,6.42,2.11,8.2,1.52,10c-.05,0-.05.1-.05.2ZM17.19,11c-.2,0-.3-.09-.4-.34-.64-1.77-1.33-3.55-2-5.32-.1-.3-.05-.49.3-.64s.78-.3,1.23-.44c0,0,.1,0,.15,0h0A.47.47,0,0,1,17,4.5c.2.54.39,1.09.59,1.58L19,9.77c.15.35.05.54-.3.69l-.14,0c-.35.15-.69.25-1,.4A1.76,1.76,0,0,0,17.19,11ZM16.5,4.26h0c-.05,0-.1,0-.15,0-.4.15-.79.3-1.23.45-.25.1-.35.24-.25.49.64,1.77,1.33,3.55,2,5.32.1.25.25.35.49.25s.69-.25,1-.4l.15-.05c.29-.09.34-.24.24-.54L17.43,6.13c-.2-.54-.39-1.09-.59-1.58A.32.32,0,0,0,16.5,4.26Zm-.3,6.1-.05,0h0a.19.19,0,0,1-.1,0,4.9,4.9,0,0,0-1.38-1L13.1,8.49l-.45-.2c-.05,0-.1,0-.14-.09A2.34,2.34,0,0,0,12,8a2.39,2.39,0,0,0-1.18.1,2.37,2.37,0,0,0-.54.2l-.89.29A1.44,1.44,0,0,1,7.78,8.1l0,0V7.9h0c0-.05,0-.1.1-.1a.56.56,0,0,1,.24-.24l.5-.5c.44-.44.88-.83,1.33-1.23a2.61,2.61,0,0,1,2.75-.39l.15,0,.79.29a1.45,1.45,0,0,0,1,0h.05l.05,0s0,0,0,.1c.49,1.38,1,2.71,1.53,4.09v.2ZM11.57,7.8a1,1,0,0,1,.39,0,2.68,2.68,0,0,1,.55.25c0,.05.09.05.14.1l.45.19c.49.25,1,.55,1.52.79a6,6,0,0,1,1.43,1l.05.05v-.1c-.49-1.38-1-2.71-1.53-4.09,0,0,0,0,0-.1h0a1.48,1.48,0,0,1-1,0l-.79-.29-.15,0a2.37,2.37,0,0,0-2.65.39c-.45.39-.89.84-1.33,1.23l-.5.49-.24.25-.1.1h0l0,.05a1.35,1.35,0,0,0,1.52.39l.89-.29c.2-.05.35-.15.54-.2A4.19,4.19,0,0,1,11.57,7.8Z"/></svg>