<svg id="Layer_1" data-name="Layer 1" xmlns="http://www.w3.org/2000/svg" viewBox="0 0 40.4 40.4"><defs><style>.cls-1{fill:#fff;}</style></defs><path class="cls-1" d="M30.4,35a2.39,2.39,0,0,1-.72,3.31,2.45,2.45,0,0,1-1.07.37,24,24,0,0,1-2.68.06H14.36a10.2,10.2,0,0,1-3.25-.43.43.43,0,0,0-.36.14,1.69,1.69,0,0,1-1.48.83H5.06A1.64,1.64,0,0,1,3.4,37.64V24.29A1.64,1.64,0,0,1,5,22.57H9.27a1.46,1.46,0,0,1,1.43.83.77.77,0,0,0,.94.54h0a1,1,0,0,1,.35,0,.76.76,0,0,0,.71-.32,12.86,12.86,0,0,1,3.39-2.7c.8-.45,1.59-.93,2.35-1.45a5.1,5.1,0,0,0,2.2-3c.09-.4.12-.8.2-1.2a2.51,2.51,0,0,1,2.52-2,2.38,2.38,0,0,1,2.36,2.06,17,17,0,0,1,.14,2.58,6.33,6.33,0,0,1-1.75,4.42,1.62,1.62,0,0,0-.1.18h6.81a2.47,2.47,0,0,1,2.49,1.79,2.43,2.43,0,0,1-1.15,2.76l-.15.12a2.48,2.48,0,0,1,.48,2,2.53,2.53,0,0,1-1.24,1.68,2.51,2.51,0,0,1-.37,3.52,2.65,2.65,0,0,1-.6.36Zm-8.24-.67a2.53,2.53,0,0,1,0-3.57,3.47,3.47,0,0,1,.29-.25,2.51,2.51,0,0,1-.65-2.09,2.48,2.48,0,0,1,1.27-1.79,2.58,2.58,0,0,1-.17-3h-.64c-.33,0-.64,0-.76-.42s.16-.57.47-.71A4.51,4.51,0,0,0,24.33,20a7.84,7.84,0,0,0,.4-3.56,5.55,5.55,0,0,0-.12-.9,1.25,1.25,0,0,0-1.25-1.13,1.39,1.39,0,0,0-1.45,1.12c-.07.38-.1.76-.2,1.16a6.57,6.57,0,0,1-3.05,4c-.69.46-1.41.86-2.13,1.28a12.06,12.06,0,0,0-3.28,2.71,1,1,0,0,1-.88.41H10.94v12a7.17,7.17,0,0,0,2.67.52h7.94A2.51,2.51,0,0,1,22.16,34.32Zm-12.32-10c0-.47-.17-.65-.64-.66h-4c-.48,0-.65.21-.65.77V37.29c0,.72.14.86.85.87H9c.66,0,.77-.13.77-.77V30.91h0Zm21,2a1.32,1.32,0,0,0,1.41-1.23.17.17,0,0,0,0-.07A1.32,1.32,0,0,0,31,23.66h-6a1.33,1.33,0,0,0,.05,2.65Zm-.77,3.77a1.33,1.33,0,0,0,1.29-1,1.27,1.27,0,0,0-.62-1.48,1.64,1.64,0,0,0-.76-.18H24.36a1.34,1.34,0,1,0-.2,2.67h5.95ZM24,31.18a1.31,1.31,0,0,0-1.41,1.21.13.13,0,0,1,0,.06,1.27,1.27,0,0,0,1.16,1.37h5.65a1.31,1.31,0,0,0,1.33-1.29v-.11a1.34,1.34,0,0,0-1.38-1.27H24Zm4.45,6.4a1.28,1.28,0,0,0,1.23-1.16,1.33,1.33,0,0,0-.91-1.4,1.82,1.82,0,0,0-.46-.06H23.69a1.31,1.31,0,0,0-1.34,1.27v.06a1.28,1.28,0,0,0,1.29,1.28H26c.82,0,1.63,0,2.44,0Z"/><path class="cls-1" d="M12.3,12.42c-.71-.35-1.42-.72-2.12-1.11a.51.51,0,0,0-.53,0c-.69.38-1.39.77-2.09,1.09a.72.72,0,0,1-.61,0,.72.72,0,0,1-.21-.57c.1-.76.23-1.53.39-2.29A.58.58,0,0,0,6.94,9c-.55-.51-1.09-1-1.59-1.59a.76.76,0,0,1-.2-.64.79.79,0,0,1,.54-.4C6.45,6.19,7.22,6.12,8,6a.63.63,0,0,0,.38-.28c.34-.65.65-1.3,1-2,.13-.27.28-.51.63-.51s.47.24.6.49c.32.66.63,1.33,1,2A.58.58,0,0,0,11.9,6c.77.13,1.53.2,2.25.34a1,1,0,0,1,.61.39c.17.25,0,.49-.23.68-.54.52-1.07,1-1.61,1.53a.52.52,0,0,0-.18.51c.16.8.29,1.62.42,2.39C13.13,12.38,12.74,12.64,12.3,12.42ZM9.17,6.5A.81.81,0,0,1,8.41,7c-.53,0-1,.16-1.58.24.39.41.76.81,1.14,1.19a.76.76,0,0,1,.26.84c-.12.51-.17,1-.27,1.65.39-.19.76-.39,1.13-.61a1.24,1.24,0,0,1,1.58,0c.37.21.75.41,1.13.59-.09-.55-.15-1-.25-1.53a1,1,0,0,1,.33-1.08c.37-.32.69-.71,1-1.09-.53-.08-1.07-.18-1.6-.23a.84.84,0,0,1-.63-.49c-.22-.48-.46-1-.76-1.53Z"/><path class="cls-1" d="M23.39,10.33C22.7,10,22,9.62,21.34,9.25a.56.56,0,0,0-.61,0c-.64.36-1.29.71-1.95,1a.88.88,0,0,1-.71,0,.82.82,0,0,1-.2-.65c.09-.77.24-1.45.37-2.17a.61.61,0,0,0-.19-.62c-.53-.48-1-1-1.53-1.48-.22-.2-.45-.45-.29-.76a1,1,0,0,1,.59-.34c.76-.15,1.52-.23,2.29-.39a.54.54,0,0,0,.36-.27c.35-.66.65-1.35,1-2a1,1,0,0,1,.57-.45c.3-.07.47.19.6.46.32.66.64,1.32,1,2a.62.62,0,0,0,.38.29c.76.14,1.52.24,2.24.35a.58.58,0,0,1,.62.4.69.69,0,0,1-.28.72c-.5.47-1,1-1.48,1.41a.78.78,0,0,0-.25.77c.15.76.27,1.53.38,2.15A.57.57,0,0,1,23.39,10.33Zm-.71-3.1a.84.84,0,0,1,.25-.85c.39-.37.76-.77,1.15-1.19-.51-.07-1-.17-1.48-.21a1,1,0,0,1-.87-.61c-.19-.47-.44-.92-.7-1.44-.26.52-.52,1-.72,1.47a.9.9,0,0,1-.84.58c-.49,0-1,.14-1.49.21.4.42.76.83,1.16,1.19a.84.84,0,0,1,.25.82c-.1.53-.18,1.06-.29,1.67.5-.27,1-.49,1.41-.77a1,1,0,0,1,1.06,0c.43.26.89.48,1.39.77C22.87,8.27,22.78,7.75,22.68,7.23Z"/><path class="cls-1" d="M32.73,3.68c.35.66.67,1.36,1,2a.57.57,0,0,0,.37.29c.76.13,1.52.23,2.29.33.27,0,.56.1.59.41a.94.94,0,0,1-.22.64c-.52.56-1.09,1.07-1.61,1.62a.66.66,0,0,0-.16.5c.1.77.26,1.53.35,2.25a.89.89,0,0,1-.2.65c-.18.22-.45.12-.68,0-.67-.36-1.35-.7-2-1.06a.48.48,0,0,0-.54,0c-.64.36-1.3.69-1.94,1-.25.13-.5.26-.76.06a.71.71,0,0,1-.2-.76c.13-.77.26-1.45.36-2.17A.59.59,0,0,0,29.23,9c-.52-.54-1.1-1-1.61-1.6a.81.81,0,0,1-.22-.65A.74.74,0,0,1,28,6.38c.76-.15,1.53-.22,2.29-.35a.7.7,0,0,0,.39-.31c.36-.67.66-1.37,1-2,.1-.19.32-.32.56-.55A3.68,3.68,0,0,1,32.73,3.68ZM30.17,8.36a1,1,0,0,1,.32,1.09c-.1.47-.16,1-.26,1.49l1.49-.76a.78.78,0,0,1,.88,0c.46.26.94.5,1.49.76-.1-.6-.17-1.14-.29-1.67a.77.77,0,0,1,.25-.82c.39-.38.77-.77,1.17-1.2-.54-.08-1.07-.19-1.61-.24a.81.81,0,0,1-.71-.53c-.23-.48-.47-1-.76-1.52l-.77,1.52a.76.76,0,0,1-.65.48c-.55.06-1.09.16-1.63.24A9.59,9.59,0,0,0,30.17,8.36Z"/></svg>