<svg id="Layer_1" data-name="Layer 1" xmlns="http://www.w3.org/2000/svg" viewBox="0 0 52.8 52.8"><defs><style>.cls-1{fill:#fff;}</style></defs><path class="cls-1" d="M2,27.75a9.27,9.27,0,0,1,.86-1.34,2.21,2.21,0,0,1,1.68-.66c.69,0,1.37,0,2.06,0A2.57,2.57,0,0,1,9.29,28.4c0,.08,0,.16,0,.31.53,0,1.07,0,1.61,0s1,.07,1.61.11v-6l-.83.76c-.4.38-.8.76-1.22,1.14a2.48,2.48,0,1,1-3.4-3.61c1.66-1.58,3.32-3.16,5-4.7a1.69,1.69,0,0,0,.6-1.4c0-1.86,0-3.72,0-5.58,0-1.11.42-1.52,1.53-1.52h3.25c1.07,0,1.48.42,1.49,1.51,0,.14,0,.27,0,.48.16-.15.28-.24.39-.35l5-4.71a2.51,2.51,0,0,1,3.7,0l9.86,9.24c.13.12.32.25.33.39a1.19,1.19,0,0,1-.13.81c-.13.15-.5.15-.76.13s-.28-.2-.41-.32L27.22,6c-.77-.72-1.25-.72-2,0l-17,16a3.06,3.06,0,0,0-.42.46A1,1,0,0,0,8,23.7a1,1,0,0,0,1.27.18,2.86,2.86,0,0,0,.48-.38L25.42,8.71c.67-.63.9-.64,1.56,0q7.89,7.4,15.79,14.78a2.16,2.16,0,0,0,.89.49.9.9,0,0,0,1-.46,1,1,0,0,0,0-1.12,3,3,0,0,0-.44-.5l-3.59-3.36a2.66,2.66,0,0,1-.32-.35.69.69,0,0,1,.93-1c.3.23.57.5.85.76L45.35,21a2.41,2.41,0,0,1,.78,2.54A2.33,2.33,0,0,1,44.4,25.3a2.46,2.46,0,0,1-2.46-.67c-.64-.61-1.3-1.21-2-1.88V35.64l.48-.3c1.86-1.24,3.72-2.5,5.59-3.74a3,3,0,0,1,4.5,1A2.89,2.89,0,0,1,50,36c-1.25,1.22-2.57,2.37-3.87,3.54-1.76,1.59-3.56,3.14-5.28,4.77a9.07,9.07,0,0,1-5.31,2.41c-3,.37-6,.85-9,1.28-1.86.26-3.71.55-5.58.74a4.11,4.11,0,0,1-1.76-.27c-3.19-1.17-6.36-2.39-9.54-3.59l-.42-.15a2.6,2.6,0,0,1-1.37,2.28,2.63,2.63,0,0,1-1,.29,22.9,22.9,0,0,1-2.62,0,2.45,2.45,0,0,1-2.28-1.8,1.21,1.21,0,0,0-.1-.14v-2.1c.27-.29.57-.52,1-.33s.43.55.43.93,0,.48,0,.72A1.21,1.21,0,0,0,4.72,46c.54,0,1.08,0,1.62,0,1.11,0,1.53-.42,1.53-1.52V33.82c0-1.77,0-3.53,0-5.3a1.19,1.19,0,0,0-1.34-1.36H4.86c-1.11,0-1.49.38-1.49,1.48,0,3.44,0,6.87,0,10.31,0,.4-.06.77-.5.93s-.68-.1-.92-.39Zm7.36,2.39c0,.14,0,.25,0,.36,0,4.12,0,8.24,0,12.36,0,.32.14.43.41.53,3.31,1.25,6.61,2.52,9.93,3.74a3.72,3.72,0,0,0,1.62.21c1.55-.15,3.09-.4,4.63-.62,3-.43,6-.92,9.05-1.29a8.57,8.57,0,0,0,5.31-2.38c1.65-1.63,3.44-3.12,5.16-4.67l3.48-3.14a1.57,1.57,0,0,0,.5-1.64,1.55,1.55,0,0,0-1.17-1.14,1.76,1.76,0,0,0-1.48.36Q42.06,36,37.36,39.07a1.6,1.6,0,0,1-.87.28c-1.9-.12-3.81-.26-5.71-.43q-6.16-.51-12.35-1.06c-.51,0-.83-.33-.81-.75s.34-.68.87-.67l.38,0,2.65.25,9.69.85L33,37.7a3,3,0,0,0-2.54-3c-2.21-.27-4.42-.54-6.63-.76a16.22,16.22,0,0,1-6.13-1.77A25.08,25.08,0,0,0,15,31,14,14,0,0,0,9.31,30.14Zm4.7-1a18.76,18.76,0,0,1,4.68,2,9.94,9.94,0,0,0,2.95,1v-.56q0-3.51,0-7c0-1.07.46-1.54,1.54-1.54h6c1.21,0,1.66.45,1.66,1.67q0,4,0,8.07v.55l.17.07a4.47,4.47,0,0,1,3.41,4.12.51.51,0,0,0,.35.32c1,.1,2.09.2,2.92-.68.14-.14.37-.2.5-.35a1,1,0,0,0,.3-.57c0-4.82,0-9.64,0-14.47a1,1,0,0,0-.29-.64q-5.79-5.47-11.62-10.91c-.1-.1-.21-.19-.34-.3-.13.11-.25.21-.36.32q-5.82,5.48-11.63,11a.85.85,0,0,0-.24.57c0,2.32,0,4.64,0,7C14,28.87,14,29,14,29.15Zm15.4,4V24.49H23.07v8ZM14.11,14.39a.53.53,0,0,0,.15-.07l3.09-2.9a.46.46,0,0,0,.15-.28c0-.6,0-1.19,0-1.79h-3.4Z"/><path class="cls-1" d="M20.75,48.89a4.54,4.54,0,0,1-1.51-.3c-2.36-.87-4.75-1.77-7.06-2.65L9.7,45l-.27-.1h0A2.64,2.64,0,0,1,8,47.13a2.73,2.73,0,0,1-1,.3,22.71,22.71,0,0,1-2.62,0A2.55,2.55,0,0,1,2,45.58l-.05-.06,0-.05,0,0V43.28l0,0A.9.9,0,0,1,3,42.9c.43.19.48.6.48,1s0,.52,0,.72a1.12,1.12,0,0,0,1.26,1.26H6.34c1.07,0,1.44-.38,1.44-1.43V32.22c0-1.23,0-2.46,0-3.7a1.11,1.11,0,0,0-1.25-1.27H4.86c-1.06,0-1.4.34-1.41,1.39V39c0,.42-.06.84-.55,1a.88.88,0,0,1-1-.42l0,0V27.7c.09-.14.17-.28.25-.42a5.19,5.19,0,0,1,.62-.93,2.31,2.31,0,0,1,1.75-.69c.7,0,1.39,0,2.06,0A2.66,2.66,0,0,1,9.38,28.4c0,.05,0,.1,0,.17v.05h1.53c.36,0,.72,0,1.1.07l.42,0V23l-.12.11-.55.51-.44.42-.79.73A2.57,2.57,0,1,1,7,21c2-1.92,3.55-3.38,5-4.71A1.58,1.58,0,0,0,12.6,15c0-1.38,0-2.8,0-4.16,0-.48,0-.95,0-1.42,0-1.16.45-1.61,1.61-1.61h3.25c1.11,0,1.57.47,1.58,1.6,0,.09,0,.17,0,.28h0l.24-.21,1.92-1.81,3.08-2.9a2.58,2.58,0,0,1,3.82,0L38,14l.07.07c.13.11.27.24.28.38a1.3,1.3,0,0,1-.15.88c-.13.14-.4.19-.84.16a.74.74,0,0,1-.37-.25l-.09-.09L27.15,6c-.73-.69-1.15-.69-1.88,0l-6,5.69L8.32,22a2.44,2.44,0,0,0-.4.44,1,1,0,0,0,.1,1.2.93.93,0,0,0,1.16.16,2.2,2.2,0,0,0,.47-.37L25.36,8.64c.71-.67,1-.67,1.68,0l3.39,3.17c4.06,3.8,8.26,7.74,12.4,11.6a2,2,0,0,0,.85.47.79.79,0,0,0,.87-.42.87.87,0,0,0,0-1,2.41,2.41,0,0,0-.42-.48l-2.16-2-1.43-1.34a2.33,2.33,0,0,1-.34-.36.73.73,0,0,1,.08-1,.69.69,0,0,1,1-.11,8.52,8.52,0,0,1,.71.62l.18.17,3.25,3a2.52,2.52,0,0,1,.81,2.64,2.43,2.43,0,0,1-1.8,1.79,2.56,2.56,0,0,1-2.54-.68l-1.36-1.27L40,23V35.48l0,0,.29-.18L42.21,34c1.23-.83,2.49-1.68,3.74-2.5A3.29,3.29,0,0,1,48.62,31a3.05,3.05,0,0,1,2,1.58,3,3,0,0,1-.48,3.5c-1,.92-2,1.82-2.93,2.69l-1,.86c-.58.53-1.18,1.06-1.76,1.57-1.16,1-2.37,2.11-3.52,3.2a9.16,9.16,0,0,1-5.36,2.43c-2,.25-4,.55-6,.84l-3,.44-1.14.16c-1.45.21-2.95.43-4.44.58ZM9.23,44.64l.26.09.28.1,2.47.94c2.31.88,4.7,1.79,7.06,2.65A4.14,4.14,0,0,0,21,48.7c1.48-.16,3-.37,4.42-.59L26.59,48l3-.44c1.95-.29,4-.59,5.95-.84a9,9,0,0,0,5.27-2.39c1.15-1.09,2.36-2.16,3.52-3.19l1.76-1.57.95-.86c1-.87,2-1.77,2.92-2.68a2.83,2.83,0,0,0,.45-3.3,2.9,2.9,0,0,0-1.84-1.49,3.14,3.14,0,0,0-2.53.49c-1.25.82-2.51,1.67-3.74,2.5l-1.85,1.24-.3.18-.18.11-.14.09V22.55l.81.75L42,24.57a2.39,2.39,0,0,0,2.37.64,2.28,2.28,0,0,0,1.68-1.67,2.37,2.37,0,0,0-.76-2.46L42,18l-.18-.17a8.27,8.27,0,0,0-.7-.61.52.52,0,0,0-.74.09.55.55,0,0,0-.06.76,1.93,1.93,0,0,0,.31.33l1.43,1.34,2.16,2a2.74,2.74,0,0,1,.45.51,1.05,1.05,0,0,1,0,1.22,1,1,0,0,1-1.06.49,2.13,2.13,0,0,1-.93-.51L30.3,11.92,26.92,8.75c-.62-.58-.8-.58-1.44,0q-7.85,7.4-15.71,14.79a2,2,0,0,1-.5.4,1.11,1.11,0,0,1-1.37-.19,1.14,1.14,0,0,1-.13-1.43,3.29,3.29,0,0,1,.43-.47L19.11,11.58l6-5.69c.79-.75,1.33-.74,2.13,0L37,15l.09.09c.09.09.19.19.26.2.5,0,.65,0,.7-.1s.11-.6.1-.74-.12-.18-.22-.26l-.08-.08L28,4.88a2.39,2.39,0,0,0-3.57,0l-3.09,2.9L19.41,9.6l-.24.21L19,10l-.14.12V9.88a1.28,1.28,0,0,1,0-.19c0-.11,0-.2,0-.29,0-1.05-.38-1.42-1.4-1.42H14.19c-1.06,0-1.44.37-1.44,1.43v1.42c0,1.36,0,2.77,0,4.16a1.75,1.75,0,0,1-.63,1.46c-1.46,1.34-3,2.79-5,4.71a2.39,2.39,0,1,0,3.27,3.47l.78-.72.44-.42L12.2,23l.42-.38v6.32h-.1l-.52,0c-.37,0-.73-.06-1.09-.07s-.75,0-1.11,0H9.23l0-.22c0-.07,0-.12,0-.17a2.5,2.5,0,0,0-2.65-2.58H4.49a2.1,2.1,0,0,0-1.61.63,4.55,4.55,0,0,0-.6.9l-.24.4V39.46c.23.28.45.47.8.34s.44-.42.44-.85c0-3.44,0-6.87,0-10.31,0-1.16.41-1.57,1.58-1.57H6.53A1.29,1.29,0,0,1,8,28.52V44.46c0,1.14-.47,1.61-1.62,1.61H4.72a1.29,1.29,0,0,1-1.44-1.44c0-.2,0-.46,0-.72,0-.42-.06-.7-.38-.85s-.59,0-.86.29v2a.38.38,0,0,1,.09.12,2.36,2.36,0,0,0,2.2,1.74,22.55,22.55,0,0,0,2.61,0,2.48,2.48,0,0,0,2.27-2.49Zm11.69,2.81a3.81,3.81,0,0,1-1.33-.24c-2.25-.82-4.52-1.69-6.72-2.52L9.66,43.48a.58.58,0,0,1-.47-.62c0-3.16,0-6.36,0-9.46V30.5c0-.08,0-.15,0-.23s0-.09,0-.13v-.09h.09a13.9,13.9,0,0,1,5.76.81,27.17,27.17,0,0,1,2.63,1.25,16,16,0,0,0,6.1,1.76c2.26.23,4.58.51,6.63.76A3,3,0,0,1,33,37.7v.09H33l-.55,0-1.19-.09-9.69-.85-1.7-.16-1-.09-.38,0h0c-.45,0-.73.22-.74.59s.26.61.73.65l3.53.31,8.82.76c2.21.18,4,.32,5.71.42a1.48,1.48,0,0,0,.81-.27c3.17-2.09,6.36-4.23,9.36-6.25a1.88,1.88,0,0,1,1.55-.37,1.63,1.63,0,0,1,1.23,1.21,1.65,1.65,0,0,1-.52,1.73l-3.48,3.13-1.61,1.43c-1.18,1-2.41,2.12-3.55,3.24a8.63,8.63,0,0,1-5.36,2.41c-2.06.25-4.15.56-6.17.86l-2.88.43-1,.15c-1.18.17-2.4.35-3.61.47ZM9.39,30.23v.05c0,.08,0,.15,0,.22v2.9c0,3.1,0,6.31,0,9.46,0,.27.1.36.35.45l3.21,1.21c2.2.84,4.48,1.7,6.72,2.52a3.63,3.63,0,0,0,1.59.21c1.2-.12,2.42-.3,3.59-.47l1-.15,2.88-.42c2-.3,4.11-.62,6.17-.86A8.5,8.5,0,0,0,40.16,43c1.15-1.13,2.37-2.21,3.56-3.26.53-.46,1.08-.94,1.61-1.42,1-.86,2.21-2,3.47-3.13a1.52,1.52,0,0,0-.63-2.63,1.65,1.65,0,0,0-1.4.34c-3,2-6.19,4.16-9.36,6.25a1.59,1.59,0,0,1-.93.3c-1.68-.11-3.5-.24-5.7-.43L22,38.26,18.43,38c-.57-.05-.92-.38-.9-.84s.38-.77,1-.76l.39,0,1,.09,1.69.16,9.69.85,1.19.09.46,0a2.85,2.85,0,0,0-2.46-2.79c-2.05-.25-4.37-.54-6.63-.76a16.26,16.26,0,0,1-6.16-1.78A26.65,26.65,0,0,0,15,31,13.77,13.77,0,0,0,9.39,30.23ZM35.77,38c-.33,0-.67,0-1-.06-.16,0-.42-.23-.43-.4a4.34,4.34,0,0,0-3.34-4l-.11,0-.07,0-.06,0V30.52c0-1.94,0-3.87,0-5.81,0-1.17-.41-1.58-1.56-1.58h-6c-1,0-1.45.42-1.45,1.45v7.69l-.11,0a10.13,10.13,0,0,1-3-1,19.12,19.12,0,0,0-4.66-2h-.06v-.07s0-.09,0-.14a2.46,2.46,0,0,1,0-.26V27.69c0-1.94,0-3.94,0-5.91a1,1,0,0,1,.26-.64L24.7,11.2l1.1-1L26,10l.12-.11.06,0,.06,0,.12.11.22.19L28,11.46l10.22,9.6a1,1,0,0,1,.32.71c0,4.77,0,9.64,0,14.47a1.07,1.07,0,0,1-.32.63,1.42,1.42,0,0,1-.28.2.63.63,0,0,0-.22.16A2.57,2.57,0,0,1,35.77,38Zm-4.83-4.72h0l.08,0a4.54,4.54,0,0,1,3.46,4.19.45.45,0,0,0,.28.24,3.1,3.1,0,0,0,2.85-.65,1.24,1.24,0,0,1,.26-.19.84.84,0,0,0,.23-.16.86.86,0,0,0,.28-.51c0-4.83,0-9.7,0-14.47a.89.89,0,0,0-.26-.58L27.9,11.6l-1.4-1.32-.22-.19L26.22,10l-.06.05-.24.21-1.09,1c-3.46,3.26-7,6.62-10.54,9.94a.76.76,0,0,0-.21.51c0,2,0,4,0,5.91v1.06c0,.07,0,.15,0,.25v.07a19,19,0,0,1,4.64,2,10.05,10.05,0,0,0,2.82,1V24.59c0-1.12.5-1.62,1.63-1.63h6c1.25,0,1.74.49,1.74,1.76,0,1.94,0,3.87,0,5.81Zm-1.44,0L23,32.53V24.4H29.5Zm-6.34-.91,6.16.71v-8.5H23.16ZM14,14.52V9.26H17.6v.53c0,.45,0,.9,0,1.35a.5.5,0,0,1-.18.34c-1,1-2.09,2-3.09,2.91a.39.39,0,0,1-.11.06l-.07,0Zm.18-5.08v4.82h0c1-.93,2.05-1.92,3.09-2.91a.5.5,0,0,0,.13-.21c0-.45,0-.9,0-1.34V9.44Z"/></svg>