<svg id="Layer_1" data-name="Layer 1" xmlns="http://www.w3.org/2000/svg" viewBox="0 0 20.4 20.4"><defs><style>.cls-1{fill:#ffc742;}</style></defs><path d="M6.51,10.48A6.27,6.27,0,0,1,8.1,9.72h.06c.31,0,.36-.24.4-.49a1.59,1.59,0,0,1-1-.79.17.17,0,0,0-.14-.06A1.22,1.22,0,0,1,6.24,7.09V5.65c-.49-.14-.61-.3-.61-.8V4.44a.62.62,0,0,1,.54-.65.19.19,0,0,0,.14-.13,3.66,3.66,0,0,1,7.18.06.08.08,0,0,0,0,0c.52.11.66.28.66.81V4.9a.66.66,0,0,1-.61.74c0,.45,0,.92,0,1.38a1.67,1.67,0,0,1,0,.39,1.18,1.18,0,0,1-1.14.95.28.28,0,0,0-.26.16,1.45,1.45,0,0,1-.89.7.5.5,0,0,0,.42.5,6.28,6.28,0,0,1,3.56,2.56l.13.2c0-.3.07-.55.1-.8.07-.58.13-1.16.21-1.74a.41.41,0,0,0-.16-.43,1.24,1.24,0,0,1-.39-1.29.87.87,0,0,1,.47-.66.31.31,0,0,0,.12-.18.93.93,0,0,1,.93-.84h.61a.9.9,0,0,1,.9.9c0,2.29,0,4.59,0,6.88A2.38,2.38,0,0,1,14,15.85l-.15-.16v4H7.25a1.22,1.22,0,0,1-1.31-1.3.45.45,0,0,0-.24-.43,3.31,3.31,0,0,1-1.58-3.23A5.61,5.61,0,0,1,4.52,13a.33.33,0,0,0,0-.24L2.42,9.65a.79.79,0,0,1,0-.86,1.49,1.49,0,0,1,.39-.47,2.6,2.6,0,0,1,2.39-.44,1.07,1.07,0,0,1,.79.8C6.11,9.28,6.32,9.87,6.51,10.48Zm4.91-.19c0,1.9,0,3.77,0,5.65a.25.25,0,0,0,.11.16.93.93,0,0,1,.49.84v.48a.94.94,0,0,1-.52.92.16.16,0,0,0-.08.12c0,.19,0,.38,0,.57h1.84V13.26h.6v1a.57.57,0,0,0,0,.22c.1.2.2.41.31.61a1.72,1.72,0,0,0,1.47.9,1.76,1.76,0,0,0,1.84-1.76c0-1.41,0-2.82,0-4.23a.28.28,0,0,0,0-.09H16.27l-.58,4.9-.6-.08c0-.36.08-.69.11-1a.61.61,0,0,0,0-.27,5.78,5.78,0,0,0-2-2.33A5.49,5.49,0,0,0,11.42,10.29ZM8.07,5.64c0,.74,0,1.48,0,2.22A.87.87,0,0,0,9,8.67H10.8a.91.91,0,0,0,.93-.92V5.64ZM6.54,13.1v2.05c0,.63,0,.67.62.76A14.83,14.83,0,0,0,8.79,16c.06,0,.12-.06.17-.1a3.51,3.51,0,0,1,.48-.4.24.24,0,0,0,.15-.26V13.1A7.46,7.46,0,0,1,6.54,13.1ZM5,13.5H4.93c-.06.39-.15.78-.2,1.17a2.74,2.74,0,0,0,2.18,3.09,9.92,9.92,0,0,0,1.64.06h.12V16.59a3.71,3.71,0,0,1-3.59-1.33l.5-.38.33.38a.67.67,0,0,0,0-.4C5.61,14.4,5.3,14,5,13.5Zm.9.24h0v-.18c0-.49,0-1,0-1.48A.94.94,0,0,1,6,11.59.65.65,0,0,0,6,11c-.16-.48-.31-1-.47-1.45a2.88,2.88,0,0,1-2,.65ZM6.25,5h7.3V4.42H6.25ZM9,1.51a2.9,2.9,0,0,0-2,2.27H9V1.51Zm3.89,2.28a2.9,2.9,0,0,0-2-2.26V3.79Zm4.65,5.49c0-.63,0-1.24,0-1.86,0-.17-.13-.26-.31-.27h-.55a.32.32,0,0,0-.35.36v.54c-.61.06-.64.1-.61.66v0c0,.14.35.55.48.55Zm-7,7.32v-.27a.32.32,0,0,0-.34-.34h-.3c-.16,0-.57.33-.58.48,0,.44,0,.89,0,1.35h1.83a.29.29,0,0,0,.3-.3c0-.19,0-.39,0-.58a.31.31,0,0,0-.34-.34ZM7.87,11.42H7.11a.62.62,0,0,0-.57.6.61.61,0,0,0,.58.62H9a.61.61,0,0,0,0-1.22.63.63,0,0,0-.62.6v.3H7.73Zm2.93-.64c-.16.2-.3.39-.45.55a.5.5,0,0,0-.16.57.68.68,0,0,1,0,.25v3.19l.6.23ZM4.47,8.35c-.18,0-.33,0-.47.07A1.67,1.67,0,0,0,3,9c-.15.2-.13.35.09.48a1.85,1.85,0,0,0,.33.12,1.79,1.79,0,0,0,1-.06,2.44,2.44,0,0,0,.68-.35.6.6,0,0,0,.22-.39c0-.18-.18-.26-.34-.3S4.61,8.38,4.47,8.35ZM9.9,10.93a6.81,6.81,0,0,1,.62-.76.59.59,0,0,0,.12-.76c-.05-.09-.08-.13-.18-.13H9.64c-.47,0-.48,0-.59.47a.17.17,0,0,0,0,.14C9.33,10.23,9.61,10.57,9.9,10.93Zm-.32,7.52a20.29,20.29,0,0,1-3-.13.59.59,0,0,0,.59.72q.91,0,1.83,0A.59.59,0,0,0,9.58,18.45Zm.61-14.66V1.37H9.6V3.79Zm-3,7H9l-.37-.46a.17.17,0,0,0-.14-.07A4.69,4.69,0,0,0,7.18,10.79Zm.27-4.24a.6.6,0,0,0-.6.66.58.58,0,0,0,.6.53Zm4.9,1.2a.6.6,0,0,0,0-1.2ZM10.8,19v-.59h-.57l-.17.59ZM7.45,5.9V5.64H6.86v.43Zm4.9-.27V5.9l.58.17V5.63Z"/><path class="cls-1" d="M6.54,13.1a7.46,7.46,0,0,0,3.05,0v2.13a.24.24,0,0,1-.15.26,3.51,3.51,0,0,0-.48.4c-.05,0-.11.1-.17.1a14.83,14.83,0,0,1-1.63-.08c-.62-.09-.62-.13-.62-.76Z"/><path class="cls-1" d="M5.9,13.74,3.53,10.2a2.88,2.88,0,0,0,2-.65c.16.49.31,1,.47,1.45a.65.65,0,0,1,0,.59.94.94,0,0,0-.09.48c0,.49,0,1,0,1.48v.18Z"/><path class="cls-1" d="M9,1.51V3.78h-2A2.9,2.9,0,0,1,9,1.51Z"/><path class="cls-1" d="M12.87,3.79h-2V1.53A2.9,2.9,0,0,1,12.87,3.79Z"/><path class="cls-1" d="M7.87,11.42l-.14.9h.64V12a.63.63,0,0,1,.62-.6.61.61,0,0,1,0,1.22H7.12A.61.61,0,0,1,6.54,12a.62.62,0,0,1,.57-.6h.76Z"/><path class="cls-1" d="M4.47,8.35c.14,0,.32.05.49.1s.35.12.34.3a.6.6,0,0,1-.22.39,2.44,2.44,0,0,1-.68.35,1.79,1.79,0,0,1-1,.06,1.85,1.85,0,0,1-.33-.12C2.85,9.3,2.83,9.15,3,9a1.67,1.67,0,0,1,1-.53C4.14,8.38,4.29,8.38,4.47,8.35Z"/><path class="cls-1" d="M9.58,18.45A.59.59,0,0,1,9,19q-.92,0-1.83,0a.59.59,0,0,1-.59-.72A20.29,20.29,0,0,0,9.58,18.45Z"/></svg>