<svg id="Layer_1" data-name="Layer 1" xmlns="http://www.w3.org/2000/svg" viewBox="0 0 20.4 20.4"><defs><style>.cls-1{fill:#ffc742;}</style></defs><path d="M17.89,8.38l.15.15c.2.15.45.25.64.4a.36.36,0,0,1,.15.5c-.29.5-.54.94-.84,1.44-.15.25-.25.25-.5.15s-.45-.25-.65-.4a.18.18,0,0,1-.15,0v.15a2.83,2.83,0,0,0,.4.65c.15.2.1.35-.1.5-.5.3-1,.6-1.5.85a.32.32,0,0,1-.5-.15c-.15-.2-.25-.45-.4-.65s-.1-.05-.15-.1,0,.1,0,.15v.75c0,.25-.1.35-.35.35H12.35c-.25,0-.35-.1-.35-.35V12c0-.05-.05-.1-.05-.15s-.1,0-.1.1c-.15.2-.25.45-.4.65a.36.36,0,0,1-.5.15L9.5,11.87c-.25-.15-.25-.25-.15-.5s.25-.45.4-.65v-.15H9.6A2.83,2.83,0,0,0,9,11a.32.32,0,0,1-.5-.15c-.3-.5-.6-1-.85-1.49-.1-.2-.1-.35.15-.45l.7-.4c.05,0,.05-.1.1-.1s-.1-.05-.15-.05H7.65c-.25,0-.34-.1-.34-.35V6.28c0-.25.09-.35.34-.35H8.4s.1,0,.15,0-.05-.1-.1-.15S8,5.48,7.8,5.33s-.3-.3-.15-.5c.3-.49.55-.94.85-1.44.15-.25.25-.25.5-.15s.4.25.65.35c0,.05.1.05.2.05a.3.3,0,0,0,0-.2c-.1-.2-.25-.45-.35-.65a.32.32,0,0,1,.15-.5c.5-.3,1-.55,1.45-.85.2-.15.35-.1.5.15s.25.45.4.65c.05,0,.1,0,.15.1s.05-.1.05-.15V1.44c0-.25.1-.35.35-.35h1.69c.25,0,.35.1.35.35v.75c0,.05.05.1.05.15s.1,0,.15-.1c.15-.2.25-.45.4-.65s.25-.25.5-.15c.5.3,1,.55,1.45.85.25.15.25.25.15.5s-.25.45-.4.65v.15H17a2.83,2.83,0,0,0,.65-.4c.25-.15.35-.1.5.15.3.5.54,1,.84,1.44a.32.32,0,0,1-.15.5c-.19.15-.44.25-.64.4s-.1.1-.1.15.1,0,.15,0H19c.25,0,.35.1.35.35v1.7c0,.25-.1.35-.35.35-.44.05-.74.05-1.09.1Zm-.3-4.49a2,2,0,0,1-.45.25.68.68,0,0,1-.9-.1.74.74,0,0,1-.1-.9,1.56,1.56,0,0,0,.25-.5L15.34,2a4.4,4.4,0,0,1-.3.5.77.77,0,0,1-.8.35.71.71,0,0,1-.5-.7V1.64H12.55v.55a.67.67,0,0,1-.5.7.7.7,0,0,1-.8-.35A4.4,4.4,0,0,1,11,2l-1,.6c.1.15.2.35.3.5a.67.67,0,0,1-.1.85.74.74,0,0,1-.9.1,1.56,1.56,0,0,0-.5-.25l-.6,1a4.4,4.4,0,0,1,.5.3A.77.77,0,0,1,9,6a.71.71,0,0,1-.7.5H7.7v1.2h.45a.75.75,0,0,1,.8.5c.1.35,0,.6-.45.85l-.4.25.6,1a2,2,0,0,1,.45-.24.74.74,0,0,1,.9.05.73.73,0,0,1,.1.89,4.4,4.4,0,0,0-.3.5l1.05.6a4.4,4.4,0,0,1,.3-.5.77.77,0,0,1,.8-.35.71.71,0,0,1,.5.7v.55h1.19V12a.77.77,0,0,1,.5-.75.68.68,0,0,1,.8.4l.3.45,1.05-.6c-.1-.15-.2-.35-.3-.5a.66.66,0,0,1,.1-.84A.68.68,0,0,1,17,10a4.43,4.43,0,0,0,.5.29l.6-1a2.87,2.87,0,0,0-.35-.2c-.5-.3-.6-.5-.45-1.1.05-.25.15-.3.4-.3h.8V6.48h-.55a.67.67,0,0,1-.7-.5.7.7,0,0,1,.35-.8,4.4,4.4,0,0,1,.5-.3A6.14,6.14,0,0,0,17.59,3.89Z"/><path d="M2.81,9.48c.1,0,.15.1.25.15a2.31,2.31,0,0,0,.35.35s.2.1.25,0a.43.43,0,0,0,.15-.25v-.5a.32.32,0,0,1,.35-.35H5.31a.32.32,0,0,1,.35.35v.45a.3.3,0,0,0,.15.3.71.71,0,0,0,.3-.1l.3-.3c.15-.15.3-.15.5,0l.79.79a.28.28,0,0,1,0,.45,1.89,1.89,0,0,0-.34.35.31.31,0,0,0-.05.3c.05.05.14.15.24.15H8a.32.32,0,0,1,.35.35v1.15a.32.32,0,0,1-.35.35H7.55c-.1,0-.19.1-.24.15s0,.2.09.3l.3.3c.15.15.15.3,0,.5l-.79.8c-.15.15-.3.15-.5,0a2.31,2.31,0,0,0-.35-.35.31.31,0,0,0-.3-.05.43.43,0,0,0-.15.25v.44a.32.32,0,0,1-.35.35H4.11a.32.32,0,0,1-.35-.35v-.44a.43.43,0,0,0-.15-.25c0-.05-.2,0-.3.1l-.3.3c-.15.15-.3.15-.5,0l-.79-.8c-.15-.15-.15-.3,0-.5a2.86,2.86,0,0,0,.34-.35.33.33,0,0,0,0-.3.43.43,0,0,0-.25-.15H1.42a.32.32,0,0,1-.35-.35V12a.32.32,0,0,1,.35-.35h.44a.43.43,0,0,0,.25-.15c.05-.05,0-.2-.1-.3a1.74,1.74,0,0,1-.29-.35c-.15-.15-.15-.3,0-.5l.79-.79A.54.54,0,0,0,2.81,9.48Zm3.85.74a1,1,0,0,1-1.1.35.93.93,0,0,1-.55-1h-.6a.84.84,0,0,1-.55,1,.91.91,0,0,1-1-.3c-.15.15-.3.25-.45.4a.87.87,0,0,1,.3,1.1.84.84,0,0,1-1,.5v.6a.85.85,0,0,1,1,.55.81.81,0,0,1-.35,1.05,3.23,3.23,0,0,1,.4.45.89.89,0,0,1,1.1-.35.94.94,0,0,1,.55,1H5a.85.85,0,0,1,.55-1,.91.91,0,0,1,1,.3c.15-.15.3-.25.45-.4a.89.89,0,0,1,.69-1.6v-.6a.85.85,0,0,1-1-.55.89.89,0,0,1,.35-1.1A3,3,0,0,1,6.66,10.22Z"/><path d="M11.7,14l.35-.35c.15-.15.3-.15.5,0l.79.8c.15.15.15.3,0,.5l-.34.35h.49a.32.32,0,0,1,.35.35v1.14c0,.25-.1.35-.35.35h-.4l-.05.05.3.3c.2.2.2.35,0,.5s-.49.55-.79.8-.3.15-.5,0a2.17,2.17,0,0,0-.35-.3V19c0,.25-.1.35-.35.35h-1.1c-.25,0-.35-.1-.35-.35v-.45l-.3.3a.33.33,0,0,1-.5,0c-.25-.25-.55-.5-.8-.8s-.15-.3,0-.5l.3-.3v-.05H8.15c-.25,0-.35-.1-.35-.35V15.72c0-.25.1-.35.35-.35h.5l-.3-.3a.33.33,0,0,1,0-.55l.75-.75c.2-.2.35-.2.5,0l.3.3h0v-.4c0-.25.1-.35.4-.35h1.1c.25,0,.35.1.35.35C11.7,13.67,11.7,13.82,11.7,14ZM8.35,16.51H8.9c.2,0,.3.15.4.3a.38.38,0,0,1-.05.5c-.15.1-.25.25-.4.35l.45.45.4-.4c.15-.15.3-.1.5-.05a.35.35,0,0,1,.3.4v.55h.6v-.55a.33.33,0,0,1,.3-.35c.15-.05.35-.15.5,0s.25.3.35.4a2,2,0,0,1,.5-.4,2.5,2.5,0,0,0-.4-.35.38.38,0,0,1,0-.5c.1-.2.15-.35.4-.3h.54V16H12.7c-.25,0-.3-.14-.4-.29a.38.38,0,0,1,0-.5,2.31,2.31,0,0,0,.35-.35,3.23,3.23,0,0,1-.4-.45l-.4.4a.38.38,0,0,1-.5.05c-.2-.1-.3-.15-.3-.4v-.55h-.6v.55a.33.33,0,0,1-.3.35c-.2.05-.35.15-.5,0a2.5,2.5,0,0,1-.35-.4l-.45.45a2.31,2.31,0,0,1,.35.35c.2.15.15.3.05.5s-.15.34-.4.29H8.4A2.43,2.43,0,0,0,8.35,16.51Z"/><path class="cls-1" d="M6.66,10.22a3.23,3.23,0,0,0,.45.4.89.89,0,0,0-.35,1.1.93.93,0,0,0,1,.55v.6a1,1,0,0,0-1,.5.93.93,0,0,0,.3,1.1c-.15.15-.3.25-.45.4a.84.84,0,0,0-1.05-.3.94.94,0,0,0-.55,1h-.6a.94.94,0,0,0-.55-1,.89.89,0,0,0-1.1.35c-.15-.15-.25-.3-.4-.45a1,1,0,0,0,.35-1.05.93.93,0,0,0-1-.55v-.6a1,1,0,0,0,1-.5.93.93,0,0,0-.3-1.1c.15-.15.3-.25.45-.4a.84.84,0,0,0,1.05.3.93.93,0,0,0,.55-1h.6a.87.87,0,0,0,.55,1C6,10.77,6.36,10.57,6.66,10.22Zm-1.9,3.55a1.2,1.2,0,1,0-1.2-1.2A1.15,1.15,0,0,0,4.76,13.77Z"/><path class="cls-1" d="M8.35,16.51v-.6h.5a.5.5,0,0,0,.35-.79,2.31,2.31,0,0,1-.35-.35l.45-.45c.1.15.25.25.35.4s.3.1.5,0a.37.37,0,0,0,.3-.35v-.55h.6v.55c0,.25.15.3.3.4a.38.38,0,0,0,.5-.05,3,3,0,0,1,.4-.4c.15.15.25.3.4.45l-.35.35a.38.38,0,0,0-.05.5c.1.19.15.29.4.29h.54v.6h-.54c-.25,0-.3.15-.4.3a.38.38,0,0,0,.05.5c.15.1.25.25.4.35a4.37,4.37,0,0,1-.5.4,2.86,2.86,0,0,1-.35-.4.38.38,0,0,0-.5,0,.37.37,0,0,0-.3.35v.55h-.6v-.55c0-.2-.15-.3-.3-.4s-.35-.15-.5.05a3,3,0,0,1-.4.4l-.45-.45c.15-.1.25-.25.4-.35s.1-.3.05-.5a.39.39,0,0,0-.4-.3Zm2.45-.89a.57.57,0,0,0-.6.59.6.6,0,0,0,1.2,0A.6.6,0,0,0,10.8,15.62Z"/><path d="M9.9,8.68l.55-.25a3,3,0,1,0,2.74-4.29V3.59a3.55,3.55,0,0,1,3.5,2.69A3.62,3.62,0,0,1,9.9,8.68Z"/><path d="M13.19,5a2.13,2.13,0,0,1,0,4.25A2.06,2.06,0,0,1,11.1,7.13,2.11,2.11,0,0,1,13.19,5Zm1.5,2.1a1.47,1.47,0,0,0-1.5-1.5,1.51,1.51,0,0,0-1.54,1.5,1.54,1.54,0,0,0,1.49,1.5A1.48,1.48,0,0,0,14.69,7.13Z"/><path d="M9.6,7.78c0-.25,0-.45,0-.65h.6c0,.2,0,.35,0,.55A2.51,2.51,0,0,1,9.6,7.78Z"/><path d="M4.76,13.77A1.2,1.2,0,1,1,6,12.57,1.22,1.22,0,0,1,4.76,13.77Zm.6-1.2a.6.6,0,1,0-.6.6A.64.64,0,0,0,5.36,12.57Z"/><path d="M10.8,15.62a.6.6,0,0,1,.6.59.6.6,0,0,1-1.2,0A.54.54,0,0,1,10.8,15.62Z"/></svg>