<?xml version="1.0" encoding="utf-8"?>
<!-- Generator: Adobe Illustrator 25.2.0, SVG Export Plug-In . SVG Version: 6.00 Build 0)  -->
<svg version="1.1" id="Layer_1" xmlns="http://www.w3.org/2000/svg" xmlns:xlink="http://www.w3.org/1999/xlink" x="0px" y="0px"
	 viewBox="0 0 20.4 20.4" style="enable-background:new 0 0 20.4 20.4;" xml:space="preserve">
<style type="text/css">
	.st0{fill:#FFFFFF;}
</style>
<path class="st0" d="M18.7,14.1v-1.5c0-0.2-0.1-0.3-0.3-0.3h-0.3v-0.7c0-0.2-0.1-0.2-0.2-0.2h-0.7v-0.1c0-0.2-0.1-0.2-0.2-0.2l0,0
	c-0.1,0-0.2,0-0.2,0.2v0.1H16v-0.1c0,0,0-0.1,0-0.1v-0.4c0-0.3,0-0.7,0-1c0-0.1-0.1-0.2-0.2-0.2c0,0,0,0,0,0l0,0
	c-0.1,0-0.2,0.1-0.2,0.2c0,0.1,0,0.2,0,0.2v1.4h-0.8v-0.1c0-0.2-0.1-0.2-0.2-0.2s-0.2,0-0.2,0.2v0.1h-0.4c-0.4,0-0.4,0-0.4,0.4v0.5
	H2c-0.3,0-0.3,0.1-0.3,0.3v6.5c0,0.1,0,0.3,0.1,0.3h16.8c0.1-0.1,0.1-0.2,0.1-0.3L18.7,14.1z M13.8,11.8h3.9v0.5h-3.9L13.8,11.8z
	 M7.2,19H2.1v-3h5.1V19z M7.2,15.6H2.1v-3h5.1V15.6z M10,19H7.6v-6.3H10V19z M12.8,19h-2.4v-6.3h2.4L12.8,19z M18.3,19h-5.1v-6.3
	h5.1L18.3,19z"/>
<path class="st0" d="M18.4,1H2C1.8,1,1.7,1,1.7,1.3v6.5c0,0.2,0.1,0.3,0.3,0.3h5.3c0.2,0,0.3-0.1,0.3-0.3V5.7h5.1v2.2
	c0,0.2,0.1,0.3,0.3,0.3h5.4c0.2,0,0.3-0.1,0.3-0.3V1.3C18.7,1,18.7,1,18.4,1z M7.2,7.7H2.1V1.4h5.1V7.7z M12.8,5.3H7.6V1.4h5.1V5.3z
	 M18.3,7.7h-5.1V1.4h5.1V7.7z"/>
<path class="st0" d="M14.1,15.5c0-0.1-0.1-0.2-0.2-0.2c0,0,0,0,0,0l0,0c-0.1,0-0.2,0.1-0.2,0.2c0,0,0,0,0,0c0,0.2,0,0.4,0,0.6
	c0,0.1,0.1,0.2,0.2,0.2c0,0,0,0,0,0l0,0c0.1,0,0.2-0.1,0.2-0.2c0-0.1,0-0.1,0-0.2v-0.2C14.1,15.7,14.1,15.6,14.1,15.5z"/>
<path class="st0" d="M4.1,13.4c0,0.1,0.1,0.2,0.2,0.2c0,0,0,0,0,0H5c0.1,0,0.2-0.1,0.2-0.2c0-0.1-0.1-0.2-0.2-0.2c0,0,0,0,0,0H4.3
	C4.2,13.2,4.1,13.3,4.1,13.4C4.1,13.4,4.1,13.4,4.1,13.4z"/>
<path class="st0" d="M4.4,16.6L4.4,16.6c-0.2,0-0.3,0.1-0.3,0.2c0,0,0,0,0,0c0,0.1,0.1,0.2,0.2,0.2c0,0,0,0,0,0c0.2,0,0.4,0,0.6,0
	c0.1,0,0.2-0.1,0.2-0.2c0,0,0,0,0,0c0-0.1-0.1-0.2-0.2-0.2c-0.1,0-0.1,0-0.2,0H4.4z"/>
<path class="st0" d="M11.3,15.5c0-0.1-0.1-0.2-0.2-0.2c0,0,0,0,0,0l0,0c-0.1,0-0.2,0.1-0.2,0.2c0,0.2,0,0.4,0,0.6
	c0,0.1,0.1,0.2,0.3,0.2c0.1,0,0.1-0.1,0.2-0.2V15.5L11.3,15.5z"/>
<path class="st0" d="M9.1,16.2c0,0.1,0.1,0.2,0.2,0.2c0,0,0,0,0,0l0,0c0.1,0,0.2-0.1,0.2-0.2c0,0,0,0,0,0c0-0.2,0-0.4,0-0.7
	c0-0.1-0.1-0.2-0.2-0.2c0,0,0,0,0,0l0,0c-0.1,0-0.2,0.1-0.2,0.2L9.1,16.2L9.1,16.2z"/>
<path class="st0" d="M3,4.2C3,4.1,3,4,2.9,4c0,0,0,0-0.1,0C2.7,4,2.6,4.1,2.6,4.2c0,0,0,0,0,0c0,0.2,0,0.4,0,0.6
	C2.6,4.9,2.7,5,2.8,5c0,0,0,0,0,0C2.9,5,3,5,3,4.9c0-0.1,0-0.1,0-0.2V4.5l0,0C3,4.4,3,4.3,3,4.2z"/>
<path class="st0" d="M14.1,4.2c0-0.1,0-0.2-0.1-0.2c0,0,0,0-0.1,0l0,0c-0.1,0-0.2,0.1-0.2,0.2c0,0,0,0,0,0c0,0.2,0,0.4,0,0.6
	c0,0.1,0.1,0.2,0.2,0.2c0,0,0,0,0,0l0,0c0.1,0,0.2-0.1,0.2-0.2c0-0.1,0-0.1,0-0.2V4.5C14.1,4.4,14.1,4.3,14.1,4.2z"/>
<path class="st0" d="M9.7,4.5c0,0.1,0.1,0.2,0.2,0.2c0,0,0,0,0,0h0.6c0.1,0,0.2-0.1,0.2-0.2c0,0,0,0,0,0c0-0.1-0.1-0.2-0.2-0.2
	c0,0,0,0,0,0H9.9C9.8,4.3,9.7,4.4,9.7,4.5C9.7,4.5,9.7,4.5,9.7,4.5z"/>
</svg>
