<?xml version="1.0" encoding="utf-8"?>
<!-- Generator: Adobe Illustrator 25.2.0, SVG Export Plug-In . SVG Version: 6.00 Build 0)  -->
<svg version="1.1" id="Layer_1" xmlns="http://www.w3.org/2000/svg" xmlns:xlink="http://www.w3.org/1999/xlink" x="0px" y="0px"
	 viewBox="0 0 20.4 20.4" style="enable-background:new 0 0 20.4 20.4;" xml:space="preserve">
<style type="text/css">
	.st0{fill:#FFFFFF;}
</style>
<path class="st0" d="M18.9,18.4c0,0.1,0,0.3,0.2,0.3l0,0c0.2,0,0.2-0.1,0.2-0.2V9.3c0,0,0-0.1,0-0.1c0-0.1-0.1-0.2-0.2-0.2
	c-0.1,0-0.2,0.1-0.2,0.2c0,0,0,0,0,0v0.4h-0.1c-0.1,0-0.1,0-0.2,0.1c-0.6,0.2-1,0.7-1,1.4c0,0.2,0,0.5,0,0.7c-0.1,0.6,0,1.2,0.1,1.8
	l0,0.1h-1.2v-2.3c0-0.3-0.1-0.3-0.3-0.3H4.1c-0.3,0-0.3,0-0.3,0.4v2.3H2.6v-0.1c0-0.1,0-0.1,0-0.2c0-0.1,0.1-0.2,0.1-0.4v-0.3
	c0-0.6,0-1.2,0-1.7c0-0.6-0.4-1.1-1-1.2H1.5L1.4,9.6V9.4c0,0,0-0.1,0-0.1c0-0.1,0-0.1,0-0.2c0-0.1-0.1-0.2-0.2-0.2c0,0,0,0,0,0l0,0
	C1.1,8.9,1,9,1,9.1c0,0.1,0,0.1,0,0.2v9.1c0,0.1,0,0.1,0,0.2c0,0.1,0.1,0.2,0.2,0.2c0.1,0,0.2-0.1,0.2-0.2c0,0,0-0.1,0-0.1v-3.1h2.3
	v3.1c0,0.3,0.2,0.3,0.2,0.3c0.1,0,0.1,0,0.2,0c0.1-0.1,0.1-0.2,0.1-0.2c0-0.7,0-1.3,0-2v-1.2h1.4v2.1c0,0.4,0,0.7,0,1
	c0,0.1,0,0.2,0.1,0.2c0.1,0,0.1,0,0.2,0C6,18.6,6,18.5,6,18.4v-1.2c0-0.6,0-1.2,0-1.8c0-0.2,0-0.4,0-0.6c-0.1-0.6-0.6-1.1-1.2-1.2
	c-0.1,0-0.2,0-0.3,0H4.3H4.2v-1H7v3.8c0,0.1,0,0.1,0,0.2c0,0.1,0.1,0.2,0.2,0.2s0.2-0.1,0.2-0.2v-4H13v4c0,0.1,0.1,0.2,0.2,0.2l0,0
	c0.1,0,0.2-0.1,0.2-0.2c0-0.1,0-0.1,0-0.2v-3.8h2.8v0.9h-0.4c-0.5,0-0.9,0.2-1.1,0.6c-0.2,0.3-0.3,0.6-0.3,1c0,0.8,0,1.5,0,2.3v0.9
	c0,0,0,0.1,0,0.1c0,0.1,0.1,0.2,0.2,0.2c0,0,0,0,0,0l0,0c0.1,0,0.2-0.1,0.2-0.2c0,0,0-0.1,0-0.1v-2.8c0-0.1,0-0.1,0-0.2v-0.2h1.4
	v2.5c0,0.2,0,0.5,0,0.7c0,0.1,0.1,0.2,0.2,0.2c0,0,0,0,0,0c0.1,0,0.2-0.1,0.2-0.2c0,0,0,0,0,0v-2.9c0-0.1,0-0.1,0-0.2v-0.2h2.2
	L18.9,18.4L18.9,18.4z M1.7,13.6l-0.1,0.1V10l0.1,0.1c0.4,0.1,0.6,0.5,0.6,0.9c0,0.6,0,1.2,0,1.7C2.3,13.1,2.1,13.4,1.7,13.6z
	 M4.6,14c0.4,0,0.7,0.2,0.8,0.6v0.1H1.9v-0.1C2,14.2,2.4,14,2.7,14C3.4,14,4,14,4.6,14z M4.2,12.1v-0.1v-0.1c0-0.1,0-0.2,0-0.3v-0.3
	h12v0.8L4.2,12.1z M14.9,14.7v-0.1c0.1-0.4,0.4-0.6,0.8-0.6c0.5,0,1.2,0,1.8,0c0.4,0,0.7,0.2,0.8,0.6l0.1,0.1L14.9,14.7z M18.9,13.6
	h-0.1c-0.4-0.1-0.6-0.4-0.6-0.8c0-0.7,0-1.3,0-1.8c0-0.4,0.2-0.7,0.6-0.8l0.1-0.1V13.6z"/>
<path class="st0" d="M10,3.2v0.7C10,4,10,4,10,4.1v0.1H9.8H9.7C8.4,4.5,7.4,5.7,7.6,7c0,0.3,0.1,0.4,0.4,0.4h0.8v0.1
	c0.1,0.8,0.7,1.4,1.5,1.4l0,0c0.8,0,1.4-0.6,1.5-1.3V7.4h0.8c0.3,0,0.4-0.1,0.4-0.3c0.1-0.7-0.2-1.5-0.7-2c-0.4-0.5-1-0.7-1.6-0.8
	h-0.1V2c0-0.2-0.1-0.3-0.2-0.3c-0.1,0-0.1,0-0.2,0C10,1.8,10,1.9,10,2V3.2z M11.2,7.5c-0.1,0.5-0.5,0.8-1,0.8c-0.5,0-0.9-0.3-1-0.8
	V7.4h2V7.5z M10.2,4.7L10.2,4.7c0.6,0,1.2,0.3,1.6,0.7c0.4,0.4,0.6,0.9,0.5,1.4v0.1H8V6.8c0-0.5,0.2-1.1,0.6-1.5
	C9,4.9,9.6,4.7,10.2,4.7z"/>
</svg>
