<?xml version="1.0" encoding="utf-8"?>
<!-- Generator: Adobe Illustrator 25.2.0, SVG Export Plug-In . SVG Version: 6.00 Build 0)  -->
<svg version="1.1" id="Layer_1" xmlns="http://www.w3.org/2000/svg" xmlns:xlink="http://www.w3.org/1999/xlink" x="0px" y="0px"
	 viewBox="0 0 20.4 20.4" style="enable-background:new 0 0 20.4 20.4;" xml:space="preserve">
<style type="text/css">
	.st0{fill:#FFFFFF;}
</style>
<path class="st0" d="M10.2,19.2h-8c-0.5,0.1-0.9-0.3-1-0.7c0-0.1,0-0.2,0-0.3v-16c-0.1-0.5,0.3-0.9,0.7-1c0.1,0,0.2,0,0.3,0h16
	c0.5-0.1,0.9,0.3,1,0.7c0,0.1,0,0.2,0,0.3v16c0.1,0.5-0.3,0.9-0.7,1c-0.1,0-0.2,0-0.3,0L10.2,19.2z M9.9,14.5V1.8H6.1v12.8L9.9,14.5
	z M14.3,14.5V1.8h-3.8v12.8L14.3,14.5z M5.5,14.5V1.8H2.2c-0.4,0-0.4,0.1-0.4,0.4v12.4L5.5,14.5z M14.9,1.8v12.8h3.8V4.3
	c0-0.7,0-1.4,0-2.1c0-0.3-0.1-0.4-0.4-0.4C18.3,1.8,14.9,1.8,14.9,1.8z M9.9,15.2H1.8v3c0,0.4,0.1,0.4,0.4,0.4h7.7L9.9,15.2z
	 M10.5,18.6h7.7c0.3,0,0.4-0.1,0.4-0.4v-3.1h-8.1L10.5,18.6z"/>
<path class="st0" d="M6.7,7.3h0.6v2.3H6.7V7.3z"/>
<path class="st0" d="M13.7,9.6h-0.6V7.3h0.6V9.6z"/>
<path class="st0" d="M5,9.6H4.4V7.3H5V9.6z"/>
<path class="st0" d="M15.4,7.3H16v2.3h-0.6L15.4,7.3z"/>
<path class="st0" d="M4.7,15.7H7v0.6H4.7V15.7z"/>
<path class="st0" d="M15.7,15.7v0.6h-2.3v-0.6L15.7,15.7z"/>
</svg>
