<?xml version="1.0" encoding="utf-8"?>
<!-- Generator: Adobe Illustrator 25.2.0, SVG Export Plug-In . SVG Version: 6.00 Build 0)  -->
<svg version="1.1" id="Layer_1" xmlns="http://www.w3.org/2000/svg" xmlns:xlink="http://www.w3.org/1999/xlink" x="0px" y="0px"
	 viewBox="0 0 20.4 20.4" style="enable-background:new 0 0 20.4 20.4;" xml:space="preserve">
<style type="text/css">
	.st0{fill:#FFFFFF;}
</style>
<path class="st0" d="M8.6,8.8h9.9c0.5,0,0.8,0.2,0.8,0.8v8.8c0,0.5-0.2,0.8-0.8,0.8H8.7c-0.1,0-0.3-0.1-0.4-0.1H8.2
	c-0.3,0-0.6,0.1-0.9,0.1c-1.8,0-3.6,0-5.4,0c-0.5,0-0.8-0.2-0.8-0.8V2.4c0-0.5,0.2-0.8,0.8-0.8c1.9,0,3.9,0,5.8,0
	c0.4-0.1,0.8,0.2,0.8,0.6c0,0.1,0,0.1,0,0.2c0,2,0,4,0,6L8.6,8.8z M7.9,18.4V7.1H1.8v11.3L7.9,18.4z M1.8,6.5h6.1V2.3H1.8V6.5z
	 M13.4,9.4v9h5.1v-9H13.4z M8.6,13v5.5h4.2V13H8.6z M8.6,12.3h4.2V9.4H8.6V12.3z"/>
<path class="st0" d="M14.4,4.2h-1.5c-0.3,0-0.4-0.1-0.4-0.5c0.1-0.7,0.7-1.3,1.4-1.4c0.2,0,0.2-0.1,0.2-0.2c0-0.2,0-0.3,0-0.5
	c0-0.2,0.1-0.3,0.3-0.3c0,0,0,0,0,0c0.2,0,0.3,0.2,0.3,0.3c0,0,0,0,0,0c0,0.2,0,0.3,0,0.5c0,0.1,0,0.2,0.2,0.2
	c0.5,0.1,1,0.3,1.2,0.8c0.1,0.2,0.2,0.5,0.2,0.7c0,0.2-0.1,0.4-0.4,0.4H14.4z M15.5,3.6c0-0.2-0.2-0.4-0.4-0.5
	c-0.4-0.2-0.9-0.2-1.4,0c-0.2,0.1-0.4,0.3-0.4,0.5L15.5,3.6L15.5,3.6z"/>
<path class="st0" d="M7.3,10.8v0.8C7.3,11.8,7.2,12,7,12c-0.2,0-0.3-0.2-0.3-0.4c0,0,0,0,0,0c0-0.5,0-1,0-1.5c0-0.2,0.1-0.3,0.3-0.4
	c0,0,0.1,0,0.1,0c0.2,0,0.3,0.1,0.3,0.4L7.3,10.8z"/>
<path class="st0" d="M7.3,4.4v0.8c0,0.2-0.1,0.4-0.3,0.4S6.7,5.4,6.6,5.1V3.6c0-0.2,0.1-0.4,0.3-0.4s0.3,0.1,0.3,0.4V4.4z"/>
<path class="st0" d="M16,12.3h1.2c0.3-0.1,0.7,0.1,0.8,0.5c0,0.1,0,0.2,0,0.2c0,0.6,0,1.1,0,1.7c0,0.8,0,1.5,0,2.3
	c0,0.5-0.2,0.8-0.8,0.8h-2.4c-0.4,0-0.7-0.2-0.8-0.6c0,0,0-0.1,0-0.1c0-0.4,0-0.9,0-1.3c0.1-0.9,0-1.7,0-2.6c0-0.6,0.2-0.8,0.8-0.8
	L16,12.3z M17.3,13h-2.6v1.9h2.6V13z M17.3,15.6h-2.6v1.6h2.6V15.6z"/>
<path class="st0" d="M16,11h1.6c0.2,0,0.4,0.1,0.4,0.3s-0.1,0.3-0.4,0.3h-3.1c-0.2,0-0.4-0.1-0.4-0.3s0.1-0.3,0.4-0.3H16z"/>
</svg>
