<?xml version="1.0" encoding="utf-8"?>
<!-- Generator: Adobe Illustrator 25.2.0, SVG Export Plug-In . SVG Version: 6.00 Build 0)  -->
<svg version="1.1" id="Layer_1" xmlns="http://www.w3.org/2000/svg" xmlns:xlink="http://www.w3.org/1999/xlink" x="0px" y="0px"
	 viewBox="0 0 20.4 20.4" style="enable-background:new 0 0 20.4 20.4;" xml:space="preserve">
<style type="text/css">
	.st0{fill:#FFFFFF;}
</style>
<path class="st0" d="M19.2,10H16V9h-1.1v0.4h0.7V10h-2.3V9.4h0.7V8.9h-1.1v1H1.2v0.5h0.4v8.7h17.2v-8.7h0.3V10z M18.4,18.7H2.1v-8.3
	h16.3V18.7z"/>
<path class="st0" d="M7.3,8.3L7.3,8.3c1.2,0,2-1,2-2.1c0-0.9-0.7-1.7-1.6-1.9H7.7V2.7h1.7V2.3H7.6V1.6H7.2v0.7H3.8V1.6H3.3v0.7h-1
	v0.5h1v0.7c0,0.9,0,1.7,0,2.6c0,0.1-0.1,0.2-0.2,0.3c-0.3,0.2-0.5,0.6-0.5,1C2.7,7.7,3.1,8,3.6,8l0,0C4,8,4.3,7.7,4.4,7.3
	c0.1-0.4-0.1-0.8-0.5-1C3.8,6.2,3.8,6.1,3.8,5.9V3c0,0,0-0.1,0-0.1V2.8h3.4v1.6H7.1C6,4.6,5.3,5.5,5.4,6.6C5.5,7.5,6.3,8.3,7.3,8.3z
	 M3.9,6.7C4,6.8,4,6.9,4,7.1c0,0.2-0.2,0.4-0.5,0.4l0,0c-0.3,0-0.5-0.2-0.5-0.5c0-0.3,0.2-0.5,0.5-0.5l0,0C3.7,6.6,3.8,6.6,3.9,6.7z
	 M7.4,4.8L7.4,4.8c0.4,0,0.8,0.2,1.1,0.4C8.7,5.6,8.9,6,8.9,6.4c0,0.8-0.7,1.5-1.5,1.5l0,0c-0.8,0-1.5-0.7-1.5-1.5
	C5.9,5.5,6.6,4.9,7.4,4.8z"/>
<path class="st0" d="M11.5,3.3L11.5,3.3c-0.1,0-0.1,0-0.1,0.1c0,0.3,0,0.6,0,0.9v0.2h6.1V4.3c0-0.3,0-0.6,0-0.9l0,0l-0.2-0.1
	C17,3.2,16.8,3.1,16.5,3c-0.4-0.1-0.6-0.4-0.6-0.8c0,0,0,0,0-0.1c0-0.2,0-0.5,0-0.7c0-0.1,0-0.1,0-0.2h-3.2v0.2c0,0.3,0,0.6,0,1
	c0,0.2-0.1,0.3-0.2,0.4C12.2,3,11.8,3.2,11.5,3.3z M13.1,3.1c0.1,0,0.1-0.1,0.1-0.2c0-0.2,0-0.5,0-0.8V1.7h2.3v0.4
	c0,0.2,0,0.5,0,0.7c0,0.1,0,0.2,0.1,0.2c0,0,0,0,0,0c0.3,0.1,0.6,0.3,0.9,0.4l0.2,0.1c0.1,0,0.1,0.1,0.1,0.1l0,0L17,3.8L16.9,4h-0.1
	h-5.2l0.2-0.2l0.1-0.1c0,0,0.1-0.1,0.1-0.1L13.1,3.1z"/>
<path class="st0" d="M3,11.7v6h7.1v-6H3z M3.5,12.2h6.1v2.3H3.5L3.5,12.2z M9.6,17.3H3.5V15h6.2V17.3z"/>
<path class="st0" d="M11.4,13.1v4.3h6v-4.3H11.4z M17,17h-5.1v-3.4H17V17z"/>
<path class="st0" d="M14.6,11.4L14.6,11.4c-0.2,0-0.4,0.2-0.4,0.4c0,0.1,0,0.2,0.1,0.3c0.1,0.1,0.2,0.1,0.3,0.1l0,0
	c0.1,0,0.2,0,0.3-0.1c0.1-0.1,0.1-0.2,0.1-0.3c0-0.1,0-0.2-0.1-0.3C14.8,11.4,14.7,11.4,14.6,11.4z"/>
<path class="st0" d="M16.6,11.5c-0.1-0.1-0.2-0.1-0.3-0.1l0,0c-0.2,0-0.4,0.2-0.4,0.4c0,0.1,0,0.2,0.1,0.3c0.2,0.2,0.4,0.2,0.6,0
	c0,0,0,0,0,0c0.1-0.1,0.1-0.2,0.1-0.3C16.7,11.7,16.7,11.6,16.6,11.5z"/>
<rect x="5.8" y="13.1" class="st0" width="1.2" height="0.4"/>
<rect x="5.8" y="15.9" class="st0" width="1.1" height="0.4"/>
<rect x="13.8" y="14.2" class="st0" width="1.1" height="0.4"/>
</svg>
