<?xml version="1.0" encoding="utf-8"?>
<!-- Generator: Adobe Illustrator 25.2.0, SVG Export Plug-In . SVG Version: 6.00 Build 0)  -->
<svg version="1.1" id="Layer_1" xmlns="http://www.w3.org/2000/svg" xmlns:xlink="http://www.w3.org/1999/xlink" x="0px" y="0px"
	 viewBox="0 0 20.4 20.4" style="enable-background:new 0 0 20.4 20.4;" xml:space="preserve">
<style type="text/css">
	.st0{fill:#FFFFFF;}
</style>
<path class="st0" d="M18,19.3h0.9c0.2,0,0.3,0.1,0.3,0.2s-0.1,0.2-0.3,0.2H1.4c-0.1,0-0.2-0.1-0.2-0.2c0,0,0,0,0,0
	c0-0.1,0.1-0.2,0.2-0.2c0,0,0,0,0,0h1v-7.9H1.5c-0.3,0-0.4-0.1-0.4-0.4V9.7c0-0.2,0.1-0.3,0.3-0.3h4.6c0.1-0.5,0.3-0.7,0.8-0.7h1.3
	c0.4-0.1,0.7,0.2,0.7,0.6c0,0,0,0.1,0,0.1h2.5c0.1-0.5,0.3-0.7,0.8-0.7h1.3c0.5,0,0.7,0.2,0.8,0.7h4.6c0.3,0,0.4,0.1,0.4,0.4v1.3
	c0,0.3-0.1,0.3-0.3,0.3H18V19.3z M8.4,11.4v7.9H12v-7.9H8.4z M7.9,19.3V15h-5v4.4L7.9,19.3z M12.5,15v4.4h5V15H12.5z M1.7,10.9h17.1
	v-1H1.7V10.9z M2.9,11.4v3.1h5v-3.1H2.9z M17.5,14.5v-3.1h-5v3.1H17.5z M6.6,9.3L6.6,9.3l1.9,0.1c0-0.1,0-0.2-0.2-0.2H6.8
	C6.7,9.2,6.6,9.3,6.6,9.3z M13.8,9.4L13.8,9.4c-0.1-0.1-0.1-0.2-0.2-0.2h-1.5c-0.1,0-0.2,0-0.1,0.2L13.8,9.4z"/>
<path class="st0" d="M10.2,6.4H7.4c-0.1,0-0.3,0-0.4-0.1S7,6,7.2,5.9c0.4-0.5,0.8-1,1.2-1.5c0.1-0.1,0.1-0.2,0.1-0.3
	c0-1,0-2.1,0-3.1c0-0.3,0.1-0.4,0.3-0.4h2.8c0.3,0,0.4,0.1,0.4,0.3C12,2,12,3,12,4.1c0,0.1,0,0.2,0.1,0.3c0.4,0.5,0.8,1,1.2,1.6
	c0.1,0.1,0.2,0.2,0.1,0.3s-0.2,0.1-0.4,0.1L10.2,6.4z M8.9,1.1v3h2.6v-3L8.9,1.1z M8.3,5.2h3.8l-0.5-0.6c0,0-0.1-0.1-0.2-0.1H8.9
	c-0.1,0-0.1,0-0.2,0.1C8.6,4.8,8.4,5,8.3,5.2z M7.8,6h4.9c-0.1-0.2-0.2-0.3-0.4-0.3H8.2C8,5.7,7.8,5.8,7.8,6z"/>
<path class="st0" d="M5.4,17.3c-0.4,0-0.7-0.2-0.8-0.5c0-0.1,0-0.3,0.2-0.4s0.3,0,0.3,0.2c0,0.1,0.1,0.1,0.2,0.1c0.1,0,0.2,0,0.2,0
	c0.1,0,0.2,0,0.2-0.2c0-0.1,0.1-0.2,0.2-0.2c0,0,0,0,0,0c0.1,0,0.2,0.1,0.2,0.3c0,0,0,0,0,0c0,0.2-0.2,0.5-0.4,0.5
	C5.6,17.3,5.5,17.3,5.4,17.3z"/>
<path class="st0" d="M15,17.3c-0.2,0-0.4-0.1-0.5-0.2c-0.2-0.1-0.3-0.3-0.2-0.5c0-0.1,0.1-0.2,0.2-0.2c0.1,0,0.2,0.1,0.2,0.1
	s0.1,0.2,0.1,0.2c0.1,0,0.3,0,0.4,0c0,0,0.1-0.1,0.1-0.1s0.1-0.2,0.3-0.2s0.2,0.1,0.2,0.3c0,0.2-0.2,0.4-0.5,0.5L15,17.3L15,17.3z"
	/>
<path class="st0" d="M5.4,13.2c-0.4,0-0.7-0.2-0.8-0.5c0-0.2,0-0.3,0.2-0.3s0.2,0.1,0.3,0.2s0.1,0.1,0.2,0.1s0.2,0,0.2,0
	s0.2,0,0.2-0.2c0-0.1,0.1-0.2,0.2-0.2c0,0,0,0,0,0c0.2,0,0.2,0.1,0.2,0.3c0,0.2-0.2,0.5-0.4,0.5C5.7,13.2,5.5,13.2,5.4,13.2z"/>
<path class="st0" d="M14.9,13.2c-0.1,0-0.3,0-0.4-0.1c-0.2-0.1-0.4-0.3-0.3-0.5c0-0.1,0.1-0.2,0.2-0.2c0.1,0,0.2,0.1,0.2,0.1
	s0.1,0.2,0.1,0.2c0.1,0,0.3,0,0.4,0c0,0,0.1-0.1,0.1-0.2c0-0.1,0.1-0.2,0.3-0.2c0,0,0,0,0,0c0.1,0,0.2,0.2,0.2,0.3
	c0,0.3-0.2,0.5-0.4,0.5L14.9,13.2z"/>
<path class="st0" d="M9.3,2.4c-0.1,0-0.2-0.1-0.2-0.3c0-0.1,0.1-0.2,0.2-0.2c0,0,0,0,0,0c0.1,0,0.2,0.1,0.2,0.3c0,0,0,0,0,0
	C9.5,2.3,9.4,2.4,9.3,2.4z"/>
<path class="st0" d="M9.3,3C9.2,3,9.1,2.9,9.1,2.8c0,0,0,0,0,0c0-0.1,0.1-0.2,0.2-0.2c0,0,0,0,0,0c0.1,0,0.3,0.1,0.3,0.3v0
	C9.6,2.9,9.4,3,9.3,3z"/>
<path class="st0" d="M9.3,3.7c-0.1,0-0.2-0.1-0.2-0.2c0,0,0,0,0,0c0-0.1,0.1-0.2,0.2-0.2c0,0,0,0,0,0c0.1,0,0.3,0.1,0.3,0.2
	c0,0,0,0,0,0C9.6,3.6,9.4,3.7,9.3,3.7z"/>
</svg>
