<?xml version="1.0" encoding="utf-8"?>
<!-- Generator: Adobe Illustrator 25.2.0, SVG Export Plug-In . SVG Version: 6.00 Build 0)  -->
<svg version="1.1" id="Layer_1" xmlns="http://www.w3.org/2000/svg" xmlns:xlink="http://www.w3.org/1999/xlink" x="0px" y="0px"
	 viewBox="0 0 20.4 20.4" style="enable-background:new 0 0 20.4 20.4;" xml:space="preserve">
<style type="text/css">
	.st0{fill:#FFFFFF;}
</style>
<path class="st0" d="M14,12.4L9.7,8.1C9.5,8.4,9.2,8.6,8.9,8.6c-0.3,0-0.6-0.2-0.8-0.5L7.5,8.7c0.2,0.3,0.1,0.8-0.2,1l-0.8,0.8
	c-0.2,0.3-0.7,0.3-1,0.1c0,0-0.1-0.1-0.1-0.1L4,9.1c-0.3-0.3-0.3-0.7-0.1-1C3.9,8.1,4,8,4,8l0.8-0.8c0.2-0.3,0.7-0.4,1-0.1l0.2-0.3
	c0.1-0.1,0.2-0.2,0.3-0.3c0-0.1-0.1-0.1-0.2-0.2C5.9,6,5.9,5.5,6.2,5.1C7,4.4,7.8,3.6,8.6,2.8c0.3-0.3,0.7-0.3,1-0.1
	c0.1,0.1,0.2,0.1,0.3,0c0.7-0.5,1.6-0.8,2.4-1c0.4-0.1,0.9-0.1,1.4,0c0.1,0,0.2,0.1,0.2,0.2c0,0.1-0.1,0.2-0.1,0.2
	c-0.6,0.4-1.1,1-1.5,1.6C12.1,4,12,4.3,11.9,4.6c0,0.1,0,0.1,0,0.2c0.3,0.4,0.2,0.9-0.1,1.2l-0.1,0.1l4.2,4.2l0,0
	c0.3-0.3,0.3-0.3,0.6,0l2.6,2.6c0.7,0.7,0.7,1.8,0,2.6c0,0,0,0,0,0c-0.7,0.7-1.8,0.7-2.5,0.1c-1-0.9-1.9-1.9-2.9-2.8
	c-0.1-0.1-0.1-0.2,0-0.3c0,0,0,0,0,0C13.8,12.4,13.9,12.4,14,12.4z M6.4,5.7C6.5,5.9,6.6,6,6.7,6.1L8.5,8C8.7,8.2,9,8.2,9.2,8.1
	c0,0,0.1-0.1,0.1-0.1l0.5-0.5c0.5-0.6,1.1-1.1,1.6-1.6c0.2-0.2,0.2-0.5,0.1-0.7c0,0-0.1-0.1-0.1-0.1L9.6,3.2C9.4,3,9.1,2.9,8.9,3.1
	c0,0,0,0-0.1,0.1C8.1,3.9,7.4,4.6,6.6,5.4C6.5,5.5,6.5,5.6,6.4,5.7z M14.2,12.7l0.5,0.5c0.7,0.7,1.4,1.4,2.2,2.2
	c0.6,0.6,1.4,0.6,2,0s0.6-1.4,0-2l-2.5-2.5l-0.1-0.1L14.2,12.7z M15.5,10.8l-4.2-4.2l-1.2,1.2l4.2,4.2L15.5,10.8z M7.3,9.1
	c0-0.1-0.1-0.2-0.2-0.2L5.7,7.4C5.6,7.3,5.4,7.2,5.3,7.3c0,0,0,0-0.1,0.1L4.3,8.3C4.2,8.4,4.1,8.6,4.2,8.7c0,0,0,0,0.1,0.1l1.4,1.4
	c0.1,0.1,0.3,0.2,0.5,0c0,0,0,0,0,0l0.9-0.9C7.2,9.2,7.2,9.2,7.3,9.1z M13.2,2.1c-1.1,0-2.2,0.3-3.1,0.9l1.4,1.4
	C11.9,3.5,12.4,2.7,13.2,2.1L13.2,2.1z M7.2,8.3l0.5-0.5l-1-1L6.2,7.3L7.2,8.3z"/>
<path class="st0" d="M3.4,13.9v-2.2H3c-0.1,0-0.2,0-0.2-0.2s0.1-0.2,0.2-0.2h1.2c0.1,0,0.2,0.1,0.2,0.2s-0.1,0.2-0.2,0.2H3.8v2.2
	h2.4v-0.8H5.8c-0.1,0-0.2-0.1-0.2-0.2s0.1-0.2,0.2-0.2h1.1c0.1,0,0.2,0,0.2,0.2s-0.1,0.2-0.3,0.2H6.6v0.8h4.3c0.3,0,0.3,0,0.3,0.3
	v4.2c0,0.3,0,0.3-0.3,0.3H1.1c-0.3,0-0.3,0-0.3-0.3v-4.2c0-0.3,0-0.3,0.3-0.3H3.4z M10.8,14.3L10.8,14.3H6.3c-0.1,0-0.1,0-0.2,0.1
	l-4.9,3.4c-0.1,0-0.1,0.1-0.1,0.1c0,0.1,0,0.3,0,0.4h9.6L10.8,14.3z M5.5,14.3L5.5,14.3H4.5c-0.1,0-0.1,0-0.1,0.1l-3.1,2.2
	c0,0-0.1,0.1-0.1,0.1c0,0.2,0,0.4,0,0.6L5.5,14.3z M3.7,14.3L3.7,14.3H2.8c0,0-0.1,0-0.1,0l-1.5,1c0,0-0.1,0.1-0.1,0.1
	c0,0.2,0,0.4,0,0.7L3.7,14.3z M1.2,14.9L2,14.3c-0.2,0-0.5,0-0.7,0H1.1L1.2,14.9z"/>
</svg>
