<svg id="Layer_1" data-name="Layer 1" xmlns="http://www.w3.org/2000/svg" viewBox="0 0 52.8 52.8"><defs><style>.cls-1{fill:#ffc107;}</style></defs><path class="cls-1" d="M3,7.21c.06-.19.11-.37.18-.56A3.11,3.11,0,0,1,6,4.57c.81,0,1.61,0,2.42,0a.77.77,0,0,1,.84.86c0,1.08,0,2.17,0,3.25v.54H36.5V10.8H9.22V37.7c0,1-.19,1.19-1.21,1.19H6.28A1.57,1.57,0,1,0,6.3,42H27.13v1.56H26.6c-6.72,0-13.44,0-20.16,0a3.23,3.23,0,0,1-3.39-2.52A.67.67,0,0,0,3,40.94Zm4.63,30V6.12H6.44c-1.32,0-1.9.57-1.9,1.89V37.55Z"/><path class="cls-1" d="M24.56,49.81c-.65-.53-.68-.93-.08-1.53L48.26,24.51l.19-.2a.68.68,0,0,1,.87-.16,1.22,1.22,0,0,1,.46.72,11.44,11.44,0,0,1,0,1.55c0,7.44,0,14.89,0,22.33a1.07,1.07,0,0,1-.56,1.06ZM48.22,26.89,26.89,48.21H48.22Z"/><path class="cls-1" d="M38,24.85l-1.32-1.67,1.2-.95c.19.22.38.44.55.66.57.7,1.14,1.39,1.68,2.11a1.32,1.32,0,0,1,.29.69c0,1.74,0,3.48,0,5.21a.56.56,0,0,1,0,.15h-1.5V26.43H28v7.75h7v1.55c-.16,0-.32,0-.49,0H15c-.86,0-1.08-.23-1.08-1.08,0-2.91,0-5.82,0-8.73a1.63,1.63,0,0,1,.39-1.08q2.94-3.64,5.85-7.31a1.12,1.12,0,0,1,.91-.51h8.18l.25,0v1.51H22.61l.21.35c1.51,1.88,3,3.76,4.52,5.63a.74.74,0,0,0,.47.27ZM26.38,26.43H15.51v7.74H17.8v-.53c0-1.57,0-3.13,0-4.7,0-.69.28-1,1-1H23c.76,0,1,.26,1,1,0,1.57,0,3.14,0,4.71v.48h2.33Zm-5.45-7.36-4.58,5.74h9.17Zm1.53,10.48H19.4v4.61h3.06Z"/><path class="cls-1" d="M31.84,22,30.11,23.8,29,22.68,30.79,21c-.63-.45-.45-.95-.32-1.51a7.45,7.45,0,0,1,2.2-3.58C36.85,11.78,41,7.62,45.09,3.48c.65-.65,1-.65,1.6,0l2.72,2.71c.53.54.53.9,0,1.44q-6.85,6.86-13.71,13.69a2,2,0,0,1-.68.43c-.57.22-1.16.37-1.73.59A1.08,1.08,0,0,1,31.84,22Zm5.9-8.91,1.93,1.94,8.12-8.12L45.85,5Zm-2.38,6.21,3.07-3.06-1.9-1.9-3.07,3.07Zm-3-.5c-.35.63-.55,1.27.26,1.82.58.38.93-.22,1.44-.18Z"/><path class="cls-1" d="M33.39,32.64c-.5,0-1,0-1.5,0a.75.75,0,0,1-.82-.79q0-1.53,0-3.06a.77.77,0,0,1,.85-.81h3a.75.75,0,0,1,.85.84q0,1.49,0,3c0,.59-.28.85-.88.86Zm-.74-1.59h1.5v-1.5h-1.5Z"/><path class="cls-1" d="M43.6,14.73h1.5V25.59H43.6Z"/><path class="cls-1" d="M13.88,37.32v1.54c-.84,0-1.65,0-2.47,0a.68.68,0,0,1-.62-.74c0-.75,0-1.51,0-2.31h1.55c0,.4,0,.79,0,1.18s.09.35.34.35C13.08,37.31,13.47,37.32,13.88,37.32Z"/><path class="cls-1" d="M13.88,12.38v1.53H12.36v1.55H10.82c0-.84,0-1.67,0-2.49a.83.83,0,0,1,.6-.56C12.24,12.34,13.05,12.38,13.88,12.38Z"/><path class="cls-1" d="M45.12,40.46c0,1.22,0,2.43,0,3.65,0,.74-.28,1-1,1H36.75a.84.84,0,0,1-.93-.5.85.85,0,0,1,.3-1l7.53-7.52a.84.84,0,0,1,1-.3.87.87,0,0,1,.51.93C45.12,38,45.12,39.23,45.12,40.46Zm-1.58-1.73-4.81,4.81h4.81Z"/></svg>