<svg id="Layer_1" data-name="Layer 1" xmlns="http://www.w3.org/2000/svg" viewBox="0 0 52.8 52.8"><defs><style>.cls-1{fill:#ffc107;}</style></defs><path class="cls-1" d="M41.09,44.89v5.47H5.53V30.28H2.42c0-1.35,0-2.65,0-4a1,1,0,0,1,.14-.4c1.53-3.07,3.07-6.13,4.59-9.2a.59.59,0,0,1,.62-.39c1.29,0,2.57,0,3.89,0V13.23a7,7,0,0,1-1.12,0,2.31,2.31,0,0,1-.68-4.34c1.91-1,3.83-2,5.74-3S19.39,4,21.27,3a4.11,4.11,0,0,1,4.06,0c1.2.63,2.4,1.24,3.65,1.88.09-.16.16-.31.25-.46a3.85,3.85,0,0,1,4.19-1.88,3.73,3.73,0,0,1,3,3.43c.08,2.92,0,5.86,0,8.84h-3v1.56h.49c1.65,0,3.29,0,4.93,0a.62.62,0,0,1,.66.42c.36.79.78,1.55,1.15,2.34a.55.55,0,0,0,.59.35h6.62A2.33,2.33,0,0,1,50.38,22v5a2.33,2.33,0,0,1-2.54,2.52H44.19v.58c0,4-.07,8,0,11.94C44.27,43.82,43.19,45.32,41.09,44.89ZM22.54,38H16.37V31.82h3.14l-.11-1.51H7.09v18.5H39.53c0-.12,0-.22,0-.31V41.29c0-.6-.3-1-.78-.95s-.77.35-.77,1c0,1.2,0,2.39,0,3.58A3.06,3.06,0,0,1,37.77,46a2.29,2.29,0,0,1-2.55,1.29A2.23,2.23,0,0,1,33.37,45c0-2.53,0-5.06,0-7.59,0-.62-.28-1-.77-1s-.74.29-.78.89A2.27,2.27,0,0,1,30,39.5a2.29,2.29,0,0,1-2.54-1.15A.57.57,0,0,0,26.9,38C26,38,25,38,24.06,38V33.4H22.54ZM28.72,14.8c0-1.52,0-3,0-4.42a.61.61,0,0,0-.39-.63Q26,8.58,23.71,7.36a.75.75,0,0,0-.79,0q-4.62,2.4-9.27,4.77a.64.64,0,0,0-.41.66c0,2.57,0,5.15,0,7.73V21h6.19v-.55c0-1.63,0-3.26,0-4.88a3.86,3.86,0,0,1,7.65-.66,5.25,5.25,0,0,1,.08,1c0,1.67,0,3.35,0,5h6.27a2.2,2.2,0,0,0-.25-.17,2.37,2.37,0,0,1-1.38-2.34c0-.83,0-1.65,0-2.47V14.8Zm3.08,17h9.81c.78,0,1-.25,1-1,0-1.39,0-2.78,0-4.16,0-.72-.27-1-1-1q-9.82,0-19.67,0c-.72,0-1,.26-1,1,0,1.37,0,2.74,0,4.11,0,.85.24,1.08,1.1,1.08Zm3.12-9.31H11.67V17.9c-1,0-2,0-2.95,0a.58.58,0,0,0-.61.4C7,20.58,5.83,22.87,4.68,25.16c-.07.14-.12.28-.21.47h8.65c2,0,4,0,6.05,0a.66.66,0,0,0,.49-.21A2.47,2.47,0,0,1,22,24.08H41.39c-.4-.81-.82-1.52-1.12-2.28A1.19,1.19,0,0,0,38.9,21c-1.31.07-2.63,0-4,0Zm7.72,10.85H28.72v3.7c0,.58.27.92.74.95s.77-.29.81-.92a2.29,2.29,0,0,1,2-2.16,2.31,2.31,0,0,1,2.51,1.73,3.14,3.14,0,0,1,.08.81c0,2.46,0,4.93,0,7.39,0,.35.06.69.42.78a1,1,0,0,0,.79-.08,1.1,1.1,0,0,0,.32-.75c0-1.21,0-2.41,0-3.62a2.32,2.32,0,1,1,4.64,0c0,.5,0,1,0,1.5a.77.77,0,0,0,1.54,0c0-.14,0-.29,0-.43V33.36ZM34.91,13.24V6.4a2.32,2.32,0,1,0-4.64,0c0,2.18,0,4.35,0,6.52,0,.11,0,.21,0,.34ZM41.58,21,43,23.84a5.28,5.28,0,0,0,.54,1,2.58,2.58,0,0,1,.65,1.81c0,.45,0,.89,0,1.34,1.32,0,2.56,0,3.8,0a.76.76,0,0,0,.84-.8c0-1.78,0-3.57,0-5.36a.74.74,0,0,0-.75-.79C45.94,21,43.8,21,41.58,21ZM25.63,21c0-1.8,0-3.55,0-5.31a2.32,2.32,0,1,0-4.63,0q0,2.46,0,4.92c0,.13,0,.25,0,.37ZM28.72,8.21c0-.51,0-.92,0-1.34a.55.55,0,0,0-.36-.59C27.13,5.66,25.9,5,24.68,4.37a2.75,2.75,0,0,0-2.76,0c-3.66,1.91-7.34,3.8-11,5.7-.7.36-.91.75-.66,1.22s.69.5,1.39.14c3.67-1.89,7.36-3.78,11-5.69a1.2,1.2,0,0,1,1.31,0C25.51,6.59,27.08,7.37,28.72,8.21ZM4,28.69H19.41V27.21H4Zm13.92,7.75h3v-3h-3ZM33.38,17.9c0,.15,0,.24,0,.33,0,1,.19,1.22,1.2,1.22h4.06l.43,0c-.23-.46-.42-.87-.64-1.26a.5.5,0,0,0-.35-.24C36.52,17.89,35,17.9,33.38,17.9ZM25.66,33.39v3h1.49v-3Z"/><path class="cls-1" d="M8.63,38V31.85h6.13V38Zm4.61-4.58H10.19v3h3.05Z"/><path class="cls-1" d="M14.76,47.27H8.63V41.14h6.13Zm-4.58-1.55h3v-3h-3Z"/><path class="cls-1" d="M16.38,41.13h6.13v6.12H16.38Zm1.54,1.54v3h3v-3Z"/><path class="cls-1" d="M30.23,47.27H24.1V41.14h6.13Zm-1.54-1.55v-3h-3v3Z"/></svg>