<svg id="Layer_1" data-name="Layer 1" xmlns="http://www.w3.org/2000/svg" viewBox="0 0 52.8 52.8"><defs><style>.cls-1{fill:#fff;}</style></defs><path class="cls-1" d="M39.78,45.73a3.14,3.14,0,0,1-2.35,4.82,34,34,0,0,1-3.5.08l-15.14,0a13.39,13.39,0,0,1-4.26-.56.53.53,0,0,0-.47.18,2.22,2.22,0,0,1-1.93,1.09c-1.83,0-3.67,0-5.51,0a2.16,2.16,0,0,1-2.18-2.26q0-8.67,0-17.35a2.15,2.15,0,0,1,2.18-2.25c1.84,0,3.68,0,5.51,0A1.91,1.91,0,0,1,14,30.57a1,1,0,0,0,1.23.7,1.77,1.77,0,0,1,.46,0,1,1,0,0,0,.92-.41,16.91,16.91,0,0,1,4.44-3.54c1.05-.59,2.08-1.21,3.07-1.89A6.7,6.7,0,0,0,27,21.5c.12-.52.16-1.05.26-1.57a3.31,3.31,0,0,1,3.31-2.62A3.1,3.1,0,0,1,33.65,20a22.54,22.54,0,0,1,.19,3.38,8.35,8.35,0,0,1-2.29,5.79,1.44,1.44,0,0,0-.13.23h8.91a3.22,3.22,0,0,1,3.25,2.35,3.17,3.17,0,0,1-1.5,3.61l-.2.16a3.21,3.21,0,0,1,.63,2.64,3.29,3.29,0,0,1-1.62,2.19,3.28,3.28,0,0,1-1.27,5.08ZM29,44.86a3.31,3.31,0,0,1,.41-5,3.31,3.31,0,0,1-.85-2.74,3.27,3.27,0,0,1,1.66-2.34A3.37,3.37,0,0,1,30,30.89c-.33,0-.58,0-.83,0-.44,0-.85,0-1-.55s.21-.74.61-.93a5.87,5.87,0,0,0,3.06-3.32,10.38,10.38,0,0,0,.52-4.66c0-.39-.1-.78-.16-1.17a1.65,1.65,0,0,0-1.63-1.49,1.82,1.82,0,0,0-1.9,1.47c-.09.5-.14,1-.26,1.52a8.56,8.56,0,0,1-4,5.21c-.9.6-1.84,1.13-2.78,1.67a15.81,15.81,0,0,0-4.3,3.55,1.3,1.3,0,0,1-1.15.53c-.61,0-1.23,0-1.87,0V48.45a9.48,9.48,0,0,0,3.49.69h10c.12,0,.23,0,.4,0A3.28,3.28,0,0,1,29,44.86ZM12.87,31.77c0-.61-.22-.85-.83-.86-1.77,0-3.54,0-5.3,0-.63,0-.86.27-.86,1V48.75c0,.93.19,1.12,1.12,1.13h4.83c.86,0,1-.17,1-1q0-4.24,0-8.49h0ZM40.4,34.38a1.74,1.74,0,0,0,1.86-1.71,1.71,1.71,0,0,0-1.81-1.76q-3.84,0-7.67,0a1.73,1.73,0,1,0,.06,3.46H40.4Zm-1,4.93A1.73,1.73,0,0,0,41.08,38a1.67,1.67,0,0,0-.8-1.94,2.21,2.21,0,0,0-1-.23c-2.47,0-4.94,0-7.41,0a1.75,1.75,0,1,0,0,3.49h7.46Zm-8,1.44a1.72,1.72,0,0,0-1.85,1.66,1.66,1.66,0,0,0,1.75,1.8c2.38,0,4.77,0,7.15,0a1.71,1.71,0,0,0,1.74-1.82,1.73,1.73,0,0,0-1.85-1.66H31.37Zm5.83,8.37a1.69,1.69,0,0,0,1.61-1.52,1.76,1.76,0,0,0-1.2-1.83,2,2,0,0,0-.6-.07H31a1.71,1.71,0,0,0-1.76,1.74A1.68,1.68,0,0,0,31,49.11h3v0C35.08,49.13,36.14,49.16,37.2,49.12Z"/><path class="cls-1" d="M16.09,16.2c-.93-.46-1.86-.95-2.77-1.45a.64.64,0,0,0-.7,0c-.9.49-1.81,1-2.73,1.42a.9.9,0,0,1-.8,0,.92.92,0,0,1-.27-.74c.12-1,.3-2,.5-3a.73.73,0,0,0-.25-.76C8.36,11,7.65,10.31,7,9.59a1,1,0,0,1-.27-.84,1.06,1.06,0,0,1,.71-.52c1-.18,2-.28,3-.45a.81.81,0,0,0,.49-.36c.45-.85.86-1.71,1.28-2.57.17-.35.36-.67.82-.66s.61.31.78.64c.42.86.83,1.73,1.28,2.58a.78.78,0,0,0,.48.37c1,.17,2,.26,2.94.45a1.32,1.32,0,0,1,.8.51c.22.32,0,.64-.3.89-.71.68-1.4,1.37-2.11,2a.67.67,0,0,0-.23.67c.21,1.05.37,2.12.54,3.12C17.18,16.15,16.67,16.49,16.09,16.2ZM12,8.45a1.08,1.08,0,0,1-1,.7c-.69.06-1.38.2-2.07.31.51.53,1,1.06,1.5,1.56a1,1,0,0,1,.34,1.09c-.16.67-.23,1.35-.36,2.16a16.51,16.51,0,0,0,1.48-.8,1.64,1.64,0,0,1,2.07,0,16.65,16.65,0,0,0,1.48.78c-.12-.72-.2-1.34-.33-2a1.3,1.3,0,0,1,.43-1.42c.48-.42.9-.93,1.37-1.42-.69-.11-1.39-.24-2.09-.31A1.07,1.07,0,0,1,14,8.46c-.29-.63-.61-1.25-1-2C12.64,7.2,12.32,7.81,12,8.45Z"/><path class="cls-1" d="M30.6,13.46c-.9-.45-1.79-.92-2.68-1.41a.73.73,0,0,0-.8,0c-.84.47-1.68.93-2.55,1.33a1.12,1.12,0,0,1-.93,0,1.08,1.08,0,0,1-.26-.85c.12-1,.31-1.89.48-2.83a.8.8,0,0,0-.25-.82c-.69-.63-1.33-1.29-2-1.93-.29-.27-.59-.59-.37-1A1.26,1.26,0,0,1,22,5.5C23,5.31,24,5.21,25,5a.74.74,0,0,0,.47-.36c.46-.86.85-1.76,1.33-2.61a1.36,1.36,0,0,1,.74-.6c.39-.08.62.26.79.61.41.86.83,1.73,1.28,2.57A.8.8,0,0,0,30.1,5c1,.18,2,.31,2.94.45.36,0,.69.14.81.53a.9.9,0,0,1-.37.94c-.65.61-1.27,1.26-1.93,1.85a1,1,0,0,0-.33,1c.2,1,.35,2,.5,2.81S31.22,13.77,30.6,13.46ZM29.68,9.4A1.11,1.11,0,0,1,30,8.29c.51-.48,1-1,1.51-1.55-.67-.1-1.3-.22-1.94-.28a1.24,1.24,0,0,1-1.14-.8c-.25-.61-.58-1.2-.91-1.88-.34.68-.68,1.29-.95,1.92a1.17,1.17,0,0,1-1.1.76c-.64.06-1.28.18-1.95.27.53.56,1,1.09,1.52,1.57a1.09,1.09,0,0,1,.33,1.07c-.13.69-.24,1.38-.38,2.18.66-.35,1.26-.64,1.84-1a1.26,1.26,0,0,1,1.39,0c.56.34,1.16.62,1.82,1C29.92,10.77,29.81,10.08,29.68,9.4Z"/><path class="cls-1" d="M42.82,4.76c.47.87.88,1.78,1.34,2.65a.77.77,0,0,0,.48.37c1,.17,2,.3,3,.43.36,0,.74.14.78.54a1.24,1.24,0,0,1-.3.84c-.67.73-1.42,1.4-2.1,2.12a.88.88,0,0,0-.21.66c.13,1,.34,2,.46,2.94a1.18,1.18,0,0,1-.26.85c-.24.29-.59.15-.89,0-.88-.47-1.77-.92-2.64-1.39a.64.64,0,0,0-.7,0c-.84.47-1.7.9-2.54,1.35-.33.17-.65.34-1,.08s-.31-.65-.25-1c.16-1,.34-1.89.47-2.84a.82.82,0,0,0-.21-.61c-.69-.71-1.44-1.38-2.11-2.1a1.05,1.05,0,0,1-.29-.84,1,1,0,0,1,.73-.52c1-.19,2-.29,3-.46a.88.88,0,0,0,.51-.4c.47-.88.87-1.79,1.35-2.66.13-.25.42-.42.73-.72A4.07,4.07,0,0,1,42.82,4.76Zm-3.35,6.13a1.29,1.29,0,0,1,.42,1.42c-.13.61-.21,1.24-.33,1.95.71-.37,1.34-.68,1.94-1a1.06,1.06,0,0,1,1.16,0c.6.35,1.23.66,1.94,1-.13-.79-.22-1.49-.37-2.18A1,1,0,0,1,44.56,11c.51-.5,1-1,1.52-1.57-.7-.1-1.4-.24-2.1-.31a1.07,1.07,0,0,1-.93-.69c-.3-.63-.62-1.25-1-2-.36.73-.69,1.37-1,2a1,1,0,0,1-.86.62c-.71.08-1.42.21-2.13.32C38.57,10,39,10.47,39.47,10.89Z"/></svg>