<svg id="Layer_1" data-name="Layer 1" xmlns="http://www.w3.org/2000/svg" viewBox="0 0 40.4 40.4"><defs><style>.cls-1{fill:#fff;}</style></defs><path class="cls-1" d="M17,25.26V23.37c0-.09-.13-.21-.22-.26a7,7,0,0,1-3.44-4.78.85.85,0,0,1,0-.23.63.63,0,0,0-.47-.65,2.53,2.53,0,0,1-1.54-2.25c-1.27-.25-1.91-1-1.87-2.08a1.92,1.92,0,0,1,1.81-1.76A21.11,21.11,0,0,1,11.67,9a8.59,8.59,0,0,1,5.66-6,.57.57,0,0,0,.43-.44,1.86,1.86,0,0,1,1.78-1.3H20.8a1.9,1.9,0,0,1,1.84,1.35A.65.65,0,0,0,23,3,8.72,8.72,0,0,1,28.91,9.9a11.68,11.68,0,0,1,.15,1.45c1.25.23,1.89.93,1.86,2a1.93,1.93,0,0,1-1.84,1.81q-.09.39-.21.78a2.38,2.38,0,0,1-1.45,1.49.54.54,0,0,0-.38.47,6.84,6.84,0,0,1-3.41,5.16.44.44,0,0,0-.27.46v1.71H29a5.71,5.71,0,0,1,5.57,5.23c.15,2,.39,3.95.6,5.92.06.66.14,1.31.17,2s-.2.74-.74.74H5.79c-.54,0-.75-.24-.75-.74.11-1.36.26-2.72.4-4.08s.25-2.91.47-4.36a5.63,5.63,0,0,1,5.45-4.68H17ZM11.32,12.64c-.43.13-.63.36-.59.68a.66.66,0,0,0,.74.57H28.9c.44,0,.75-.22.75-.58s-.18-.55-.58-.65c-.18.47-.44.67-.79.6s-.51-.32-.51-.85v-1A7.51,7.51,0,0,0,26,6.52c-.39-.47-.87-.82-1.28-1.28l-.11.08v1.5c0,.5-.23.74-.64.74s-.61-.27-.61-.74V5c0-.62,0-.57-.64-.69V8.1c0,.46-.25.75-.63.75s-.62-.27-.63-.75V3.33c0-.55-.24-.78-.79-.79H20c-.92,0-1.06.14-1.06,1.08V8.16a.61.61,0,0,1-.53.68h-.1c-.39,0-.62-.26-.62-.7,0-.87,0-1.7,0-2.58V4.27C17,4.42,17,4.42,17,5s0,1.32,0,2a.53.53,0,0,1-.47.59,1.13,1.13,0,0,1-.68-.27c-.1-.08-.1-.31-.1-.47V5.25a7.29,7.29,0,0,0-3,4.69,20.44,20.44,0,0,0-.17,2.71.63.63,0,0,1-.59.66.62.62,0,0,1-.63-.42A2.33,2.33,0,0,1,11.32,12.64Zm5.39,2.54H14.58c0,.87,0,1.75,0,2.62a5.67,5.67,0,0,0,11.3-.41c.05-.75,0-1.5,0-2.21H23.72a2.06,2.06,0,0,1,.25.59c0,.42-.25.64-.79.64-.81,0-1.12-.16-1.08-.63a2.31,2.31,0,0,1,.25-.61H18c.37.42.41.75.14,1.06a1.52,1.52,0,0,1-1.54,0C16.31,15.94,16.36,15.6,16.71,15.18ZM27.18,26.54v1.85a4.4,4.4,0,0,1-4.35,4.44h-5a4.39,4.39,0,0,1-4.57-4.22,1.93,1.93,0,0,1,0-.34V26.54H12V37.85h1.23v-3c0-.53.22-.75.75-.75H26.42c.52,0,.75.22.75.75v3h1.24V26.54Zm-1.32,0H23.32a3.18,3.18,0,0,1-4.82,2,3.24,3.24,0,0,1-1.42-2H14.52c0,.71,0,1.42,0,2.1a3.14,3.14,0,0,0,3.13,2.93h5.14a3,3,0,0,0,3-2.69,18.27,18.27,0,0,0,0-2.34ZM10.71,37.85V26.63h-.13a4.5,4.5,0,0,0-3.5,4.09c-.11,1.5-.29,3-.44,4.43-.09.9-.17,1.8-.26,2.73Zm19-11.22V37.85H34a10.54,10.54,0,0,0-.11-1.13c-.19-2-.42-4-.59-6A4.44,4.44,0,0,0,29.69,26.63ZM14.53,37.85H25.88V35.38H14.53ZM18.3,23.72c0,.8,0,1.55,0,2.29a1.88,1.88,0,0,0,1.81,1.75A1.81,1.81,0,0,0,22,26.22a20.69,20.69,0,0,0,0-2.49,6.87,6.87,0,0,1-3.71,0Zm-5.68-8.57a1.24,1.24,0,0,0,.61,1v-1Zm14.55,0v1l.13,0,.57-1Z"/><path class="cls-1" d="M18.3,11.37v-.62a1.23,1.23,0,0,1,1.18-1.27h1.3a1.23,1.23,0,0,1,1.31,1.16v.73h4.29c.5,0,.74.23.74.64s-.27.61-.74.61h-4.8c-.53,0-.75-.21-.75-.74V10.75H19.56v1.13c0,.5-.22.74-.71.74H14.6c-.45,0-.71-.23-.71-.61s.25-.64.74-.64H18.3Z"/><path class="cls-1" d="M20.09,21.06a3.16,3.16,0,0,1-2.18-1,.63.63,0,0,1-.08-.89l0,0a.61.61,0,0,1,.86-.06l.05.06a2,2,0,0,0,2.76.08.6.6,0,0,0,.08-.08.61.61,0,0,1,.86-.06l.06.06a.63.63,0,0,1,0,.9l-.05,0A3.27,3.27,0,0,1,20.09,21.06Z"/></svg>