<svg id="Layer_1" data-name="Layer 1" xmlns="http://www.w3.org/2000/svg" viewBox="0 0 52.8 52.8"><defs><style>.cls-1{fill:#fff;}</style></defs><path class="cls-1" d="M5.16,50.46a1.81,1.81,0,0,1-1.22-2,17.19,17.19,0,0,1,.11-1.91,3,3,0,0,1,2.89-2.45c1.1,0,2.21,0,3.36,0V16.8c-.77,0-1.56,0-2.35,0-.08,0-.19.13-.25.23a3.16,3.16,0,0,1-4.39.86,2.33,2.33,0,0,1-1-1.94c0-1.59,0-3.19,0-4.79a2.37,2.37,0,0,1,2.4-2.42,1,1,0,0,0,.81-.35C6.94,7,8.34,5.64,9.71,4.24a8.77,8.77,0,0,0,.88-1.13,1.59,1.59,0,0,1,1.32-.77h4.94a1.6,1.6,0,0,1,1.29.74,1.2,1.2,0,0,0,.48.39q8.61,3.39,17.23,6.75a2.27,2.27,0,0,0,.69.12h4.08a4,4,0,0,1,4.23,4.18c0,.18,0,.37,0,.56a1.62,1.62,0,0,1-1.75,1.71c-3,0-5.89,0-8.83,0h-.6V21.6c.33,0,.64,0,.94,0a2.37,2.37,0,0,1,2.22,2.26,9,9,0,0,1,0,1,1.56,1.56,0,0,1-1.52,1.49q-2.49,0-5,0A1.34,1.34,0,0,1,29,25.47a3,3,0,0,1,.4-3,2.2,2.2,0,0,1,1.76-.86H32V16.82H18.43V44c.88,0,1.75,0,2.62,0a6.51,6.51,0,0,1,1.4.12,3.16,3.16,0,0,1,2.35,3c0,.41,0,.82,0,1.22a1.8,1.8,0,0,1-1.22,2Zm38-35.33A2.57,2.57,0,0,0,40.44,12c-10.62,0-21.23,0-31.85,0H8v3.15Zm-20,33.71c0-.59,0-1.14,0-1.68a1.58,1.58,0,0,0-1.67-1.5H7.23a1.49,1.49,0,0,0-1.58,1.13,17.36,17.36,0,0,0-.13,2.05ZM18.43,5.14V10.3h13v-.06ZM12,16.81c0,.58,0,1.11,0,1.64a1.13,1.13,0,0,0,.29.68c1.35,1.39,2.73,2.75,4.1,4.12.09.1.2.18.34.31V16.81Zm0,13.1,4.28-4.28L12,21.34ZM12.45,32l4.28,4.27V27.74ZM12,42.67l4.25-4.24L12,34.18ZM3.94,13.54V15.6c0,.93.23,1.16,1.17,1.16h.28c.67,0,.94-.27,1-.94q0-2.25,0-4.5c0-.67-.28-.93-1-1H4.88c-.65,0-.93.31-.94,1ZM16.74,4H11.88a2.9,2.9,0,0,0,.38.71q2.07,2.1,4.16,4.18l.32.26ZM10.3,10.34V6.05L7.1,9.26c.2.28.4.59.63.89a.43.43,0,0,0,.28.18C8.77,10.35,9.53,10.34,10.3,10.34ZM35.21,24.77a6,6,0,0,0,0-.85.76.76,0,0,0-.79-.72H31.22a.73.73,0,0,0-.77.62,6,6,0,0,0,0,.95ZM12,10.3h3.37L12,6.89Zm4.72,30.36L13.38,44h3.35Z"/><path class="cls-1" d="M27.62,50.46a1.85,1.85,0,0,1-1.23-2c0-5.95,0-11.9,0-17.85a1.64,1.64,0,0,1,1.81-1.84h9.21a1.67,1.67,0,0,1,1.83,1.85v3h.58c2.83,0,5.67,0,8.5,0a2,2,0,0,1,2.13,1.17V49.24a2,2,0,0,1-1.22,1.22Zm10-1.63V30.46H28V48.83H29.6c0-1.07,0-2.11,0-3.16a1.55,1.55,0,0,1,1.5-1.61c1.14,0,2.28,0,3.43,0A1.5,1.5,0,0,1,36,45.44a5.91,5.91,0,0,1,0,.84v2.55ZM48.83,35.26H39.29V48.84h1.53v-.53c0-.86,0-1.72,0-2.58a1.56,1.56,0,0,1,1.54-1.67c1.13,0,2.26,0,3.38,0a1.55,1.55,0,0,1,1.51,1.6c0,.8,0,1.59,0,2.39v.79h1.57ZM34.38,45.69H31.25v3.14h3.13Zm11.24,3.15V45.7H42.48v3.14Z"/><path class="cls-1" d="M32.05,41.23a3.5,3.5,0,0,1-.08.65.74.74,0,0,1-.82.56.73.73,0,0,1-.72-.68,5.78,5.78,0,0,1,0-.93.8.8,0,0,1,.82-.8.83.83,0,0,1,.8.82v.38Z"/><path class="cls-1" d="M32,37.24c0,.13,0,.26,0,.38a.8.8,0,0,1-.8.81.79.79,0,0,1-.81-.8,4.71,4.71,0,0,1,0-.84.8.8,0,0,1,.79-.78.84.84,0,0,1,.81.77,3.53,3.53,0,0,1,0,.46Z"/><path class="cls-1" d="M35.22,37.27a3.68,3.68,0,0,1,0,.47.8.8,0,0,1-.82.69.76.76,0,0,1-.77-.73,6.61,6.61,0,0,1,0-.89.8.8,0,0,1,.81-.8.82.82,0,0,1,.78.79,3.65,3.65,0,0,1,0,.47Z"/><path class="cls-1" d="M33.62,41.21c0-.82.25-1.18.8-1.18s.81.38.81,1.19v.42a.83.83,0,0,1-.81.81.81.81,0,0,1-.8-.82C33.61,41.49,33.62,41.35,33.62,41.21Z"/><path class="cls-1" d="M32,33.24a4.41,4.41,0,0,1,0,.52.79.79,0,0,1-.85.65.73.73,0,0,1-.74-.71,6.46,6.46,0,0,1,0-.88.79.79,0,0,1,.81-.8.8.8,0,0,1,.8.8,3,3,0,0,1,0,.42Z"/><path class="cls-1" d="M35.22,33.25a3.68,3.68,0,0,1,0,.47.8.8,0,0,1-.81.7.77.77,0,0,1-.78-.72,7.85,7.85,0,0,1,0-.84.78.78,0,0,1,.81-.84.81.81,0,0,1,.8.86v.37Z"/><path class="cls-1" d="M44,39.25H41.83c-.62,0-1-.32-1-.82s.37-.82,1-.82h4.46c.61,0,1,.34,1,.84s-.37.79-1,.8Z"/><path class="cls-1" d="M44,42.46H41.79c-.59,0-.95-.32-1-.81a.83.83,0,0,1,.94-.82h4.55c.59,0,.94.33.93.82s-.37.8-1,.81Z"/></svg>