<svg id="Layer_1" data-name="Layer 1" xmlns="http://www.w3.org/2000/svg" viewBox="0 0 52.8 52.8"><defs><style>.cls-1{fill:#fff;}</style></defs><path class="cls-1" d="M22.18,33.16c0-.87,0-1.69,0-2.52,0-.12-.17-.28-.3-.35a9.32,9.32,0,0,1-4.59-6.39,1.67,1.67,0,0,1-.05-.31.84.84,0,0,0-.63-.88,3.37,3.37,0,0,1-2.05-3c-1.71-.34-2.56-1.29-2.5-2.78a2.55,2.55,0,0,1,2.41-2.36A29.17,29.17,0,0,1,15,11.41a11.52,11.52,0,0,1,7.57-8,.78.78,0,0,0,.58-.58,2.48,2.48,0,0,1,2.37-1.75h1.69a2.55,2.55,0,0,1,2.46,1.81.88.88,0,0,0,.46.47,11.7,11.7,0,0,1,7.93,9.25,17.7,17.7,0,0,1,.2,1.94c1.67.31,2.53,1.25,2.49,2.72a2.58,2.58,0,0,1-2.47,2.42A9.6,9.6,0,0,1,38,20.73a3.17,3.17,0,0,1-1.93,2,.7.7,0,0,0-.51.63A9.16,9.16,0,0,1,31,30.26a.59.59,0,0,0-.36.61c0,.73,0,1.47,0,2.29h7.55a7.64,7.64,0,0,1,7.46,7c.2,2.65.52,5.28.79,7.92.09.88.19,1.75.24,2.63.05.71-.28,1-1,1H7.13c-.72,0-1-.33-1-1,.15-1.82.34-3.64.53-5.46s.34-3.89.63-5.82a7.52,7.52,0,0,1,7.29-6.26h7.59ZM14.53,16.28c-.57.17-.84.48-.79.91a.89.89,0,0,0,1,.77H38.05c.59,0,1-.3,1-.78s-.24-.74-.78-.87c-.24.63-.58.89-1.06.8s-.68-.43-.68-1.14c0-.46,0-.92,0-1.37a10,10,0,0,0-2.37-6.5C33.65,7.47,33,7,32.45,6.38l-.14.11v2c0,.67-.31,1-.86,1s-.82-.36-.82-1c0-.82,0-1.65,0-2.48s0-.76-.85-.92v5.12c0,.62-.33,1-.85,1s-.83-.36-.84-1V9.83c0-2,0-4,0-6,0-.74-.32-1.05-1.06-1.06h-.9c-1.23,0-1.42.19-1.42,1.45v6.07a.82.82,0,0,1-.85.92c-.51,0-.83-.35-.83-.94C23,9.11,23,8,23,6.82V5.09c-.84.2-.84.2-.85,1s0,1.76,0,2.64a.71.71,0,0,1-.63.78,1.45,1.45,0,0,1-.9-.36c-.14-.1-.14-.41-.14-.63,0-.67,0-1.35,0-2.12a9.75,9.75,0,0,0-4,6.27,29,29,0,0,0-.23,3.62.84.84,0,0,1-1.63.33A2.47,2.47,0,0,1,14.53,16.28Zm7.21,3.4H18.89a34,34,0,0,0,0,3.5A7.58,7.58,0,0,0,34,22.63c.07-1,0-2,0-2.95H31.12a3,3,0,0,1,.33.79c.06.56-.34.86-1.06.86-1.08,0-1.49-.22-1.44-.85a3.14,3.14,0,0,1,.33-.81H23.44c.49.56.55,1,.19,1.41a2,2,0,0,1-2.07,0C21.21,20.7,21.27,20.24,21.74,19.68Zm14,15.19v2.48a5.88,5.88,0,0,1-6,5.94h-6.5a5.89,5.89,0,0,1-6.12-6.1V34.88H15.46V50h1.65V46c0-.71.29-1,1-1q8.31,0,16.62,0c.69,0,1,.3,1,1v4h1.66V34.87Zm-1.76,0H30.58c-.76,2.12-2.12,3.28-3.88,3.36a4.27,4.27,0,0,1-2.56-.65,4.32,4.32,0,0,1-1.9-2.7H18.81c0,.95-.06,1.89,0,2.81A4.18,4.18,0,0,0,23,41.6q3.43,0,6.87,0A4.07,4.07,0,0,0,33.91,38,25.37,25.37,0,0,0,33.93,34.87ZM13.71,50V35a1,1,0,0,0-.17,0,6,6,0,0,0-4.68,5.47c-.15,2-.39,3.95-.59,5.93-.12,1.2-.23,2.4-.35,3.64ZM39.1,35V50h5.78c0-.52-.09-1-.14-1.5-.26-2.69-.57-5.38-.79-8.07A5.94,5.94,0,0,0,39.1,35ZM18.82,50H34V46.7H18.82Zm5.05-18.9c0,1.08-.05,2.08,0,3.07a2.5,2.5,0,0,0,2.42,2.34,2.42,2.42,0,0,0,2.54-2.06,28.4,28.4,0,0,0,0-3.33A9.23,9.23,0,0,1,23.87,31.12Zm-7.6-11.46a1.66,1.66,0,0,0,.81,1.39V19.66Zm19.46,0V21l.17.07.77-1.4Z"/><path class="cls-1" d="M23.87,14.58v-.83a1.64,1.64,0,0,1,1.69-1.7c.54,0,1.09,0,1.63,0a1.65,1.65,0,0,1,1.74,1.76v.77h5.74c.67,0,1,.31,1,.86s-.37.82-1,.82H28.25c-.7,0-1-.29-1-1,0-.49,0-1,0-1.51h-1.7c0,.5,0,1,0,1.51,0,.67-.29,1-.95,1H18.91c-.59,0-.94-.31-.95-.82s.34-.86,1-.86h4.95Z"/><path class="cls-1" d="M26.26,27.55a4.26,4.26,0,0,1-2.92-1.32A.84.84,0,0,1,23.28,25a.81.81,0,0,1,1.22,0,2.61,2.61,0,0,0,3.8,0,.81.81,0,0,1,1.22,0,.85.85,0,0,1-.06,1.26A4.41,4.41,0,0,1,26.26,27.55Z"/></svg>