<svg id="Layer_1" data-name="Layer 1" xmlns="http://www.w3.org/2000/svg" viewBox="0 0 20.4 20.4"><defs><style>.cls-1{fill:#fff;}</style></defs><path class="cls-1" d="M15.12,17.3a1.17,1.17,0,0,1-.34,1.59,1.83,1.83,0,0,1-.53.19,11.13,11.13,0,0,1-1.29.05H7.44a5.71,5.71,0,0,1-1.58-.2c-.05,0-.15,0-.19.05a.86.86,0,0,1-.72.39h-2a.8.8,0,0,1-.81-.77V12.17a.79.79,0,0,1,.76-.81H5a.71.71,0,0,1,.67.38.34.34,0,0,0,.43.24h.19a.46.46,0,0,0,.34-.14,6.19,6.19,0,0,1,1.63-1.3c.38-.24.77-.43,1.1-.67a2.46,2.46,0,0,0,1.06-1.44c.05-.19.05-.38.09-.58a1.25,1.25,0,0,1,1.2-1,1.18,1.18,0,0,1,1.15,1,5.24,5.24,0,0,1,0,1.25,3.18,3.18,0,0,1-.81,2.11c0,.05-.05.05-.05.1h3.26a1.17,1.17,0,0,1,1.2.86,1.24,1.24,0,0,1-.53,1.34h0a1.18,1.18,0,0,1,.24,1,1.38,1.38,0,0,1-.57.82A1.17,1.17,0,0,1,15.36,17a2.9,2.9,0,0,0-.29.19ZM11.18,17a1.22,1.22,0,0,1,0-1.73c.05,0,.1-.1.15-.1a1.09,1.09,0,0,1-.29-1,1.17,1.17,0,0,1,.62-.87,1.32,1.32,0,0,1-.09-1.44h-.29a.35.35,0,0,1-.38-.19c-.1-.19.09-.29.24-.33a2.12,2.12,0,0,0,1.1-1.2,4.18,4.18,0,0,0,.19-1.73c0-.14,0-.29,0-.43a.62.62,0,0,0-.57-.53.71.71,0,0,0-.72.53c-.05.19-.05.38-.1.57A3,3,0,0,1,9.5,10.49c-.33.24-.67.43-1,.63a5.78,5.78,0,0,0-1.59,1.29.45.45,0,0,1-.43.19H5.81v5.76a4,4,0,0,0,1.3.24H10.9A1.17,1.17,0,0,1,11.18,17Zm-5.94-4.8c0-.24-.1-.29-.29-.34H3c-.24,0-.34.1-.34.39v6.19c0,.33.05.43.43.43H4.85c.34,0,.39-.05.39-.39V15.39h0Zm10.12,1A.61.61,0,0,0,16,12.6v0a.61.61,0,0,0-.63-.63H12.53a.63.63,0,1,0,0,1.25ZM15,15a.67.67,0,0,0,.63-.48.63.63,0,0,0-.29-.72,1.07,1.07,0,0,0-.39-.09H12.19a.6.6,0,0,0-.67.57.61.61,0,0,0,.57.68h.1L15,15Zm-2.92.53a.6.6,0,0,0-.67.58v0a.64.64,0,0,0,.57.68h2.74a.64.64,0,0,0,.62-.63v0a.65.65,0,0,0-.67-.62H12.05Zm2.16,3.07a.58.58,0,0,0,.57-.57.63.63,0,0,0-.43-.68,2.35,2.35,0,0,0-.24,0H11.9a.6.6,0,0,0-.62.62v.05a.64.64,0,0,0,.62.62H13a9.6,9.6,0,0,0,1.2,0Z"/><path class="cls-1" d="M6.43,6.51c-.33-.19-.67-.33-1-.53a.25.25,0,0,0-.24,0,8.17,8.17,0,0,1-1,.53.3.3,0,0,1-.29,0c-.09,0-.09-.19-.09-.29A7,7,0,0,1,4,5.12c0-.1,0-.19-.1-.29s-.53-.48-.77-.77A.35.35,0,0,1,3,3.78a.41.41,0,0,1,.24-.19l1.1-.15a.19.19,0,0,0,.19-.14c.15-.29.34-.63.48-1a.3.3,0,0,1,.29-.24c.19,0,.24.09.29.24a9.54,9.54,0,0,0,.48,1,.62.62,0,0,0,.19.14l1.06.15a.36.36,0,0,1,.28.19c.1.09,0,.24-.09.33-.24.24-.53.48-.77.72-.1,0-.1.15-.1.24a9.56,9.56,0,0,1,.2,1.15C6.82,6.46,6.63,6.61,6.43,6.51ZM5,3.63a.38.38,0,0,1-.39.24c-.24,0-.52.1-.76.1a5.37,5.37,0,0,1,.52.57.32.32,0,0,1,.15.39c0,.24-.1.48-.15.81a4.26,4.26,0,0,0,.53-.28.57.57,0,0,1,.77,0c.19.09.33.19.53.28C6.1,5.46,6.05,5.26,6,5a.51.51,0,0,1,.15-.52A3,3,0,0,0,6.63,4a4.06,4.06,0,0,0-.77-.1.3.3,0,0,1-.29-.24,5,5,0,0,0-.38-.72A1.66,1.66,0,0,1,5,3.63Z"/><path class="cls-1" d="M11.76,5.5a5.87,5.87,0,0,1-1-.52.3.3,0,0,0-.29,0,10,10,0,0,1-.91.48.5.5,0,0,1-.34,0,.38.38,0,0,1-.09-.29,7.86,7.86,0,0,1,.19-1.06.23.23,0,0,0-.1-.29l-.71-.71c-.1-.1-.24-.24-.15-.39a.36.36,0,0,1,.29-.14,10.55,10.55,0,0,0,1.1-.19c.1,0,.15-.05.19-.15.2-.33.29-.62.48-1A.55.55,0,0,1,10.75,1c.15-.05.24.1.29.24a7.81,7.81,0,0,0,.48,1c.05,0,.1.15.19.15.38,0,.72.09,1.06.14a.25.25,0,0,1,.28.19.29.29,0,0,1-.14.34,8.81,8.81,0,0,1-.72.67.51.51,0,0,0-.14.38c.09.39.14.72.19,1A.35.35,0,0,1,11.76,5.5ZM11.42,4a.39.39,0,0,1,.1-.39l.57-.57a3.47,3.47,0,0,0-.71-.1.46.46,0,0,1-.44-.29A4.15,4.15,0,0,0,10.61,2a4.68,4.68,0,0,0-.34.72A.41.41,0,0,1,9.89,3a3.57,3.57,0,0,0-.72.1l.57.57a.54.54,0,0,1,.15.38c-.05.24-.1.53-.15.82.24-.14.48-.24.68-.38a.49.49,0,0,1,.52,0c.2.14.44.24.68.38C11.52,4.5,11.47,4.26,11.42,4Z"/><path class="cls-1" d="M16.22,2.29c.19.34.34.67.48,1a.59.59,0,0,0,.19.14l1.1.15c.15,0,.29,0,.29.19a.62.62,0,0,1-.09.29c-.24.28-.53.52-.77.76a.38.38,0,0,0-.1.24c.05.39.15.72.2,1.06a.5.5,0,0,1-.1.29.3.3,0,0,1-.34,0c-.33-.19-.67-.34-1-.53a.21.21,0,0,0-.24,0,7.23,7.23,0,0,1-.91.48c-.14,0-.24.14-.38,0s-.1-.24-.1-.39c0-.38.15-.67.2-1.05a.25.25,0,0,0-.1-.24l-.77-.77a.37.37,0,0,1-.09-.29A.32.32,0,0,1,14,3.44a8.59,8.59,0,0,0,1.11-.19c.09,0,.14-.1.19-.14.19-.34.33-.68.48-1,.05-.1.14-.15.29-.29A.74.74,0,0,0,16.22,2.29ZM15,4.54a.46.46,0,0,1,.14.53c0,.24-.09.43-.14.72.24-.14.48-.24.72-.38a.35.35,0,0,1,.43,0c.24.14.43.24.72.38L16.75,5a.33.33,0,0,1,.14-.39L17.47,4a4.06,4.06,0,0,0-.77-.1.38.38,0,0,1-.34-.24A5,5,0,0,0,16,3c-.14.29-.24.48-.38.72a.38.38,0,0,1-.34.24,4.06,4.06,0,0,1-.77.1A6.4,6.4,0,0,0,15,4.54Z"/></svg>