<svg id="Layer_1" data-name="Layer 1" xmlns="http://www.w3.org/2000/svg" viewBox="0 0 40.4 40.4"><defs><style>.cls-1{fill:#fff;}</style></defs><path class="cls-1" d="M1.49,6.26c.07-.09.07-.19.13-.29A2.28,2.28,0,0,1,3.79,4.44h.62V3.72A1.71,1.71,0,0,1,6.14,2.09,1.67,1.67,0,0,1,7.87,3.71V6.27a1.66,1.66,0,0,1-1.73,1.6h0A1.7,1.7,0,0,1,4.41,6.24V5.59a1.34,1.34,0,0,0-1.74.73,1.28,1.28,0,0,0-.09.61V9.08H30.73c0-.85,0-1.71,0-2.55a1.13,1.13,0,0,0-1.13-1H29V6.1a1.74,1.74,0,0,1-1.68,1.77,1.7,1.7,0,0,1-1.79-1.61V5.52H10c-.57,0-.83-.16-.84-.53s.27-.56.84-.56H25.53V3.66a1.68,1.68,0,0,1,1.76-1.58A1.71,1.71,0,0,1,29,3.73v.65a8.33,8.33,0,0,1,1.12.11,2.23,2.23,0,0,1,1.78,2.23V18.93c0,.42-.23.68-.56.68s-.54-.26-.54-.69V10.26H2.58V29.92a1.25,1.25,0,0,0,1.08,1.43,1.21,1.21,0,0,0,.38,0h15.6a.51.51,0,0,1,.51.51.55.55,0,0,1-.5.58,2.28,2.28,0,0,1-.37,0H4.09a2.33,2.33,0,0,1-2.53-1.75H1.51ZM26.6,5V6.14a.61.61,0,0,0,1.22,0h0V3.75a.6.6,0,0,0-.61-.59h0a.62.62,0,0,0-.6.64V5ZM6.76,5V3.85a.64.64,0,0,0-.61-.66h0a.63.63,0,0,0-.62.63h0V6.16a.61.61,0,0,0,.61.61h0a.63.63,0,0,0,.59-.65h0V5Z"/><path class="cls-1" d="M21.41,29.59a8.75,8.75,0,1,1,8.77,8.74A8.75,8.75,0,0,1,21.41,29.59ZM30.17,22a7.63,7.63,0,1,0,7.63,7.63A7.62,7.62,0,0,0,30.17,22h0Z"/><path class="cls-1" d="M19.88,15.49h-7c-.56,0-.83-.18-.83-.55s.28-.56.85-.56H27c.5,0,.77.2.77.56s-.28.55-.77.55Z"/><path class="cls-1" d="M17.83,20.23h5a2.81,2.81,0,0,1,.41,0,.55.55,0,0,1,0,1.08,2.29,2.29,0,0,1-.37,0H12.77c-.48,0-.76-.22-.76-.57s.28-.56.76-.56Z"/><path class="cls-1" d="M10.19,20.83a2.29,2.29,0,0,1-4.58-.07,2.33,2.33,0,0,1,2.33-2.29,2.29,2.29,0,0,1,2.25,2.32ZM7.9,19.61A1.19,1.19,0,1,0,9.09,20.8,1.19,1.19,0,0,0,7.9,19.61Z"/><path class="cls-1" d="M10.19,14.94A2.29,2.29,0,1,1,7.9,12.65,2.29,2.29,0,0,1,10.19,14.94ZM7.86,16.13a1.2,1.2,0,1,0,0-2.39,1.21,1.21,0,0,0-1.22,1.19A1.2,1.2,0,0,0,7.86,16.13Z"/><path class="cls-1" d="M10.19,26.67A2.29,2.29,0,1,1,7.9,24.38,2.29,2.29,0,0,1,10.19,26.67ZM7.9,25.46a1.19,1.19,0,0,0-1.22,1.19h0a1.21,1.21,0,0,0,2.41,0,1.18,1.18,0,0,0-1.16-1.2h0Z"/><path class="cls-1" d="M16.06,27.21H12.67c-.28,0-.54-.09-.6-.38a.92.92,0,0,1,.15-.58.6.6,0,0,1,.42-.15h6.87a.55.55,0,0,1,.61.5v0a.57.57,0,0,1-.57.57H16.06Z"/><path class="cls-1" d="M29,32.31l2.46-2.49,2.34-2.29a.57.57,0,0,1,.81-.1h0a.54.54,0,0,1,.08.75l-.08.08c-.27.3-.57.57-.85.85l-3.82,3.82a1.16,1.16,0,0,1-1.63.26,1.07,1.07,0,0,1-.26-.26l-2.29-2.29a.54.54,0,0,1-.12-.76.49.49,0,0,1,.63-.23,1.07,1.07,0,0,1,.35.25Z"/></svg>