<svg id="Layer_1" data-name="Layer 1" xmlns="http://www.w3.org/2000/svg" viewBox="0 0 20.4 20.4"><defs><style>.cls-1{fill:#ffc742;}</style></defs><path d="M19.47,16.1c0,.1,0,.2-.08.3a2,2,0,0,1-1.89,1.48c-.24,0-.35-.1-.35-.35V17L17,17a1.59,1.59,0,0,1-1.28-1.54q0-6.12,0-12.22a1.6,1.6,0,0,1,1.56-1.57,2,2,0,0,1,2.17,1.73l0,.05Zm-.58-11a2.13,2.13,0,0,1-1.15.59V17.26h.08a1.46,1.46,0,0,0,1.07-1.46V5.1ZM17.15,16.4V5.51c0-.29.08-.36.35-.38a1.38,1.38,0,0,0,1.26-.87,1.37,1.37,0,0,0-.22-1.52A1.44,1.44,0,0,0,17,2.28a1,1,0,0,0-.74,1.06,1,1,0,0,0,.85.89A.24.24,0,0,0,17,3.89a.66.66,0,0,1-.39-.69c0-.43.35-.68.86-.68a1.16,1.16,0,1,1,0,2.32,1.79,1.79,0,0,1-1.16-.36V15.3a1.09,1.09,0,0,0,0,.18A1,1,0,0,0,17.15,16.4Zm.58-12.24A.54.54,0,0,0,18,3.45a.61.61,0,0,0-.7-.34.21.21,0,0,0-.11.14s.07.1.12.14.08,0,.12,0c.23,0,.33.11.33.34Z"/><path d="M13.37,15.56H10.78v2.82c0,.15,0,.28-.18.34a.29.29,0,0,1-.39-.2.76.76,0,0,1,0-.15A2.41,2.41,0,0,0,9.9,17c-.2-.41-.38-.84-.56-1.27a.19.19,0,0,0-.2-.13H5.47a.18.18,0,0,0-.2.13c-.27.62-.55,1.23-.81,1.85a1.54,1.54,0,0,0,0,.48c0,.13,0,.26,0,.38s-.12.35-.29.35-.29-.13-.29-.35V15.56H2.48a2.34,2.34,0,0,1-.38,0A1.44,1.44,0,0,1,.93,14.12v-11A1.45,1.45,0,0,1,2.29,1.66c.27,0,.38.08.38.35V4h11a1.44,1.44,0,0,1,1.49,1.26,2.09,2.09,0,0,1,0,.25v10.9a1.45,1.45,0,0,1-1.27,1.49c-.32.05-.48-.07-.47-.39,0-.62,0-1.24,0-1.87A.13.13,0,0,0,13.37,15.56ZM4.3,14.12H4.13a.29.29,0,0,1-.3-.29.28.28,0,0,1,.29-.28c.11,0,.22,0,.33,0a.25.25,0,0,0,.16-.1L6,10.22A.26.26,0,0,0,6,10a1.72,1.72,0,0,1,.48-2.65.2.2,0,0,0,.11-.2v-1A.73.73,0,1,1,8,6.16v1a.22.22,0,0,0,.12.23A1.72,1.72,0,0,1,8.64,10a.23.23,0,0,0,0,.27c.42,1,.85,1.89,1.25,2.85.12.3.25.5.61.41h.06a.29.29,0,0,1,0,.57H10.3c.11.25.21.47.3.7a.23.23,0,0,0,.26.18h2.53V6.66c0-.28.07-.35.34-.37a.89.89,0,0,0,.81-.79.86.86,0,0,0-.66-.92,2.22,2.22,0,0,0-.45,0H2.92a2,2,0,0,1-1.41-.29v9.92a.84.84,0,0,0,.78.79c.55,0,1.09,0,1.64,0ZM14,6.86V17.22a.82.82,0,0,0,.56-.85c0-3.2,0-6.41,0-9.61a.76.76,0,0,0,0-.15ZM7.3,11.06,6.22,13.52H8.38ZM5.59,15H9c-.12-.28-.23-.54-.35-.8a.2.2,0,0,0-.14-.06H6.07a.2.2,0,0,0-.13.06C5.82,14.43,5.71,14.69,5.59,15ZM4.44,16.13l2.44-5.54-.33-.12-.08.16c-.62,1.42-1.23,2.85-1.88,4.25A2.33,2.33,0,0,0,4.44,16.13Zm5.72,0A2.29,2.29,0,0,0,10,14.92c-.65-1.42-1.27-2.85-1.89-4.28l-.09-.17-.32.12ZM7.32,7.74A1.16,1.16,0,1,0,8.46,8.92,1.16,1.16,0,0,0,7.32,7.74ZM2.08,2.31a.83.83,0,0,0,0,1.58ZM7.45,7.15c0-.34,0-.67,0-1,0-.05-.09-.1-.14-.15s-.13.1-.13.16c0,.33,0,.65,0,1Z"/><path class="cls-1" d="M18.89,5.1V15.79a1.46,1.46,0,0,1-1.07,1.46h-.08V5.69A2.13,2.13,0,0,0,18.89,5.1Z"/><path class="cls-1" d="M17.15,16.4a1,1,0,0,1-.86-.92,1.09,1.09,0,0,1,0-.18V4.48a1.79,1.79,0,0,0,1.16.36,1.16,1.16,0,1,0,0-2.32c-.51,0-.84.25-.86.68a.66.66,0,0,0,.39.69.24.24,0,0,1,.17.34,1,1,0,0,1-.85-.89A1,1,0,0,1,17,2.28a1.44,1.44,0,0,1,1.51.46,1.37,1.37,0,0,1,.22,1.52,1.38,1.38,0,0,1-1.26.87c-.27,0-.35.09-.35.38V16.4Z"/><path class="cls-1" d="M17.73,4.16V3.73c0-.23-.1-.33-.33-.34,0,0-.09,0-.12,0s-.12-.09-.12-.14a.21.21,0,0,1,.11-.14.61.61,0,0,1,.7.34A.54.54,0,0,1,17.73,4.16Z"/><path class="cls-1" d="M14,6.86l.55-.25a.76.76,0,0,1,0,.15c0,3.2,0,6.41,0,9.61a.82.82,0,0,1-.56.85Z"/><path class="cls-1" d="M7.32,7.74A1.16,1.16,0,1,1,6.15,8.88,1.15,1.15,0,0,1,7.32,7.74Zm0,.29a.87.87,0,1,0,.86.88A.86.86,0,0,0,7.31,8Z"/><path class="cls-1" d="M7.45,7.15H7.16c0-.34,0-.66,0-1,0-.06.08-.11.13-.16s.14.1.14.15C7.45,6.48,7.45,6.81,7.45,7.15Z"/><path d="M7.31,8a.87.87,0,1,1-.87.86A.86.86,0,0,1,7.31,8Zm0,.58A.28.28,0,0,0,7,8.89a.29.29,0,1,0,.29-.28Z"/><path class="cls-1" d="M7.31,8.61A.29.29,0,1,1,7,8.89.28.28,0,0,1,7.31,8.61Z"/></svg>