<svg id="Layer_1" data-name="Layer 1" xmlns="http://www.w3.org/2000/svg" viewBox="0 0 40.4 40.4"><defs><style>.cls-1{fill:#fff;}</style></defs><path class="cls-1" d="M24.67,1.41l4.18,1.77c.91.38.95.57.26,1.27L26.6,7a1.39,1.39,0,0,1,.36.23L37.39,17.6a1.89,1.89,0,0,1,0,3,2.15,2.15,0,0,1-1.38.76,1.76,1.76,0,0,1-1.44-.5l-9.76-9.75c-.22-.23-.29-.46-.07-.71s.49-.19.79.11q4.53,4.55,9.08,9.08c.2.2.39.41.6.6a.9.9,0,0,0,1.26,0l.11-.1c.77-.69.88-1.18,0-2-3.44-3.4-6.85-6.84-10.28-10.26a2.88,2.88,0,0,1-.23-.34h-.16a1.52,1.52,0,0,1-.22.34l-3.47,3.48a1.69,1.69,0,0,1-2.61,0c-.46-.46-.92-.91-1.37-1.38a1.66,1.66,0,0,1,0-2.45l5.81-5.81.31-.26ZM28.28,4C27.1,3.45,26,3,24.82,2.51a.41.41,0,0,0-.36.09Q21.7,5.34,19,8.1a.76.76,0,0,0,0,1.24l1.24,1.24c.56.55.9.55,1.46,0L28,4.27Z"/><path class="cls-1" d="M35.84,21.5A1.85,1.85,0,0,1,34.49,21L28.33,14.8l-3.59-3.59a.55.55,0,0,1-.08-.85.45.45,0,0,1,.36-.18.81.81,0,0,1,.58.29l9.25,9.25.43.42a.8.8,0,0,0,1.12,0l.05,0s0,0,0-.05c.41-.36.59-.63.6-.9s-.18-.58-.57-1c-2.72-2.69-5.47-5.45-8.13-8.11L26.25,7.91a1.37,1.37,0,0,1-.18-.24l0-.07h0l0,.05a1.1,1.1,0,0,1-.17.25q-1.72,1.76-3.47,3.48a1.8,1.8,0,0,1-2.76,0l-.26-.25L18.18,10a1.76,1.76,0,0,1,0-2.6l5.28-5.29L24,1.59l.22-.18.12-.11h.38l1.22.52,2.95,1.25c.47.19.74.35.79.6s-.15.49-.5.84L26.77,6.93h0A1,1,0,0,1,27,7.1l9.48,9.48.95,1a2,2,0,0,1,0,3.18A2.3,2.3,0,0,1,36,21.5ZM25,10.39h0a.28.28,0,0,0-.21.11c-.16.18-.14.35.07.56l3.59,3.59,6.17,6.16a1.69,1.69,0,0,0,1.35.48,2,2,0,0,0,1.31-.73,1.78,1.78,0,0,0,0-2.88l-1-.95L26.89,7.25a.84.84,0,0,0-.21-.13L26.54,7,26.43,7l.09-.1L29,4.37c.25-.25.47-.5.44-.65s-.33-.31-.66-.44L25.85,2l-1.2-.51h-.23l-.07.05a1.71,1.71,0,0,0-.2.18l-.53.52L18.34,7.56a1.56,1.56,0,0,0,0,2.3L19.45,11l.26.25a1.59,1.59,0,0,0,2.46,0c1.16-1.15,2.31-2.31,3.47-3.48a.77.77,0,0,0,.13-.2.75.75,0,0,0,.07-.12l0-.06.27,0,0,0a.75.75,0,0,1,.07.12,1.73,1.73,0,0,0,.15.2l2.15,2.16C31.21,12.58,34,15.34,36.68,18a1.6,1.6,0,0,1,.63,1.13c0,.33-.21.64-.66,1.05l0,0-.06.06a1,1,0,0,1-1.4,0c-.15-.13-.3-.28-.44-.42l-.17-.17-9.08-9.08A.64.64,0,0,0,25,10.39Zm-4.1.71a1.23,1.23,0,0,1-.8-.44l-.22-.22-1-1a.87.87,0,0,1,0-1.39c2.19-2.2,3.89-3.89,5.5-5.49a.5.5,0,0,1,.48-.12l2.68,1.11.93.39-.23.24-.19.2-6.31,6.3A1.2,1.2,0,0,1,20.94,11.1Zm3.81-8.5a.35.35,0,0,0-.22.08C22.92,4.28,21.22,6,19,8.17a.66.66,0,0,0,0,1.09l1,1,.22.22c.51.51.78.51,1.3,0l6.3-6.3a1.84,1.84,0,0,0,.19-.2h0l-.64-.27L24.78,2.61Z"/><path class="cls-1" d="M23.42,18.93a2.65,2.65,0,0,1-.3.45L12.83,29.68c-.49.49-.61.49-1.11,0L10.25,28.2c-.35-.35-.35-.54,0-.87L23,14.55c.32-.33.54-.33.87,0L36.65,27.32c.34.33.33.55,0,.9l-1.53,1.53c-.41.4-.58.4-1,0L23.78,19.39C23.68,19.29,23.6,19.16,23.42,18.93Zm.08-3.39L11.25,27.78l1.12,1.15a2,2,0,0,1,.25-.34l10.3-10.31c.45-.45.6-.45,1,0q5.16,5.16,10.33,10.33a1.68,1.68,0,0,1,.21.3l1.22-1.14Z"/><path class="cls-1" d="M12.28,30.16c-.19,0-.36-.14-.63-.41l-.37-.37-1.11-1.11c-.38-.38-.39-.64,0-1L22.94,14.47c.37-.37.65-.37,1,0L36.73,27.24c.37.38.37.66,0,1.05l-1.53,1.53c-.44.44-.68.44-1.13,0L23.71,19.47a1.48,1.48,0,0,1-.21-.26l-.07-.09,0,.06a1.52,1.52,0,0,1-.19.28L12.9,29.76C12.64,30,12.47,30.16,12.28,30.16ZM23.45,14.41a.51.51,0,0,0-.35.21Q16.69,21,10.31,27.41c-.29.29-.29.41,0,.71l1.11,1.11.37.37c.22.22.36.34.48.34s.26-.12.47-.33l10.3-10.3a1.41,1.41,0,0,0,.16-.24,1.51,1.51,0,0,1,.12-.2l.08-.13.1.12.16.22a2,2,0,0,0,.19.24L34.21,29.67c.36.36.46.36.82,0l1.53-1.53c.31-.31.31-.46,0-.75L23.81,14.63a.55.55,0,0,0-.36-.22ZM12.38,29.09,11.1,27.78l.08-.07L23.5,15.39l.07.07L35.88,27.77l-1.39,1.3-.07-.1a.43.43,0,0,1,0-.07,1,1,0,0,0-.16-.22l-9.46-9.47-.87-.86c-.21-.21-.34-.3-.44-.3h0c-.11,0-.24.09-.46.31q-5.14,5.15-10.3,10.3a1.77,1.77,0,0,0-.16.22,1,1,0,0,1-.08.11Zm-1-1.31.95,1c.06-.08.12-.17.19-.25l10.3-10.3c.49-.49.72-.49,1.21,0l.86.86,9.46,9.47a1.3,1.3,0,0,1,.16.21l1-1L23.5,15.69Z"/><path class="cls-1" d="M4.25,25.06c0-1.76,0-3.53,0-5.29a.89.89,0,0,0-.46-.83,3.15,3.15,0,0,1-1.5-3.27,3.38,3.38,0,0,1,2.16-2.83c.68-.26.91-.09.91.63v1.9c0,.5.21.71.71.73,1.21,0,1.3,0,1.3-1.24,0-.52,0-1,0-1.58s.26-.64.7-.5a3.34,3.34,0,0,1,2.37,3A3.11,3.11,0,0,1,9,18.94a.87.87,0,0,0-.45.83q0,5.27,0,10.53a.91.91,0,0,0,.46.86,3.09,3.09,0,0,1,1.49,3.16,3.35,3.35,0,0,1-2.35,3c-.46.15-.72,0-.72-.52,0-.68,0-1.37,0-2S7.18,34,6.65,34c-1.09,0-1.34,0-1.28,1.26,0,.51,0,1,0,1.54s-.26.67-.72.52a3.31,3.31,0,0,1-2.34-2.84,3.13,3.13,0,0,1,1.47-3.31.92.92,0,0,0,.48-.89C4.24,28.53,4.25,26.79,4.25,25.06ZM8.31,13.9c0,.57,0,1.09,0,1.62A1.5,1.5,0,0,1,7.06,17a4.56,4.56,0,0,1-.91,0,1.56,1.56,0,0,1-1.71-1.74V13.9L4.26,14a2.53,2.53,0,0,0,.1,4.21,1.57,1.57,0,0,1,.81,1.45c0,3.61,0,7.21,0,10.82a1.49,1.49,0,0,1-.77,1.39,2.53,2.53,0,0,0-.17,4.22.87.87,0,0,0,.21.09c0-.51,0-1,0-1.47A1.55,1.55,0,0,1,6,33.06c.23,0,.47,0,.7,0a1.55,1.55,0,0,1,1.58,1.65v1.5l.17-.09a2.54,2.54,0,0,0-.07-4.22,1.64,1.64,0,0,1-.84-1.51q0-5.26,0-10.53a1.8,1.8,0,0,1,.92-1.72A2.52,2.52,0,0,0,8.31,13.9Z"/><path class="cls-1" d="M7.83,37.47a.46.46,0,0,1-.31-.1.66.66,0,0,1-.24-.58v-2c0-.47-.16-.63-.63-.64s-.87,0-1,.13-.18.42-.16,1c0,.43,0,.87,0,1.3v.25a.68.68,0,0,1-.23.58.68.68,0,0,1-.62,0,3.4,3.4,0,0,1-2.41-2.92,3.23,3.23,0,0,1,1.51-3.42.81.81,0,0,0,.43-.8c0-1.28,0-2.57,0-3.82v-2.8c0-1.27,0-2.58,0-3.88A.77.77,0,0,0,3.74,19,3.24,3.24,0,0,1,2.2,15.66a3.43,3.43,0,0,1,2.22-2.91c.39-.15.64-.17.81-.05s.25.35.25.77v.67c0,.41,0,.82,0,1.23s.15.6.61.62.88,0,1-.12.16-.43.16-1V14.4c0-.37,0-.75,0-1.12a.66.66,0,0,1,.24-.56.67.67,0,0,1,.6-.05,3.45,3.45,0,0,1,2.45,3.06A3.22,3.22,0,0,1,9,19a.77.77,0,0,0-.4.74c0,3.6,0,7.15,0,10.53a.79.79,0,0,0,.42.77,3.21,3.21,0,0,1,1.54,3.27,3.44,3.44,0,0,1-2.43,3.07A1,1,0,0,1,7.83,37.47ZM6.28,33.88h.38c.58,0,.82.27.83.85v2.06c0,.14,0,.33.15.41a.5.5,0,0,0,.43,0,3.25,3.25,0,0,0,2.29-2.9,3,3,0,0,0-1.45-3.06,1,1,0,0,1-.51-.95c0-3.38,0-6.93,0-10.53a1,1,0,0,1,.5-.92,3,3,0,0,0,1.46-3.09,3.25,3.25,0,0,0-2.31-2.88.49.49,0,0,0-.41,0,.55.55,0,0,0-.15.4v1.57c0,.59,0,1-.23,1.16s-.59.21-1.18.18-.81-.27-.82-.83v-1.9c0-.33,0-.52-.15-.6s-.31,0-.61.07a3.23,3.23,0,0,0-2.09,2.75,3,3,0,0,0,1.45,3.16,1,1,0,0,1,.51.92c0,1.3,0,2.61,0,3.88v2.8c0,1.25,0,2.54,0,3.82a1,1,0,0,1-.53,1,3,3,0,0,0-1.42,3.21,3.19,3.19,0,0,0,2.27,2.75.51.51,0,0,0,.42,0,.51.51,0,0,0,.15-.41v-.25c0-.43,0-.86,0-1.29,0-.66,0-1,.21-1.17A1.12,1.12,0,0,1,6.28,33.88Zm1.92,2.5V34.71a1.45,1.45,0,0,0-1.48-1.55H6a1.47,1.47,0,0,0-1.5,1.55v1.62l-.15-.06a.13.13,0,0,0-.08,0,1.09,1.09,0,0,1-.15-.08,2.93,2.93,0,0,1-1.08-2.4,2.48,2.48,0,0,1,1.26-2,1.4,1.4,0,0,0,.72-1.3c0-3.93,0-7.47,0-10.82A1.42,1.42,0,0,0,4.3,18.3a2.51,2.51,0,0,1-1.23-2A2.89,2.89,0,0,1,4.2,13.9l.1-.06.09,0,.15-.08v1.57a1.48,1.48,0,0,0,1.61,1.64,5.32,5.32,0,0,0,.9-.05A1.39,1.39,0,0,0,8.2,15.51c0-.35,0-.71,0-1.09v-.7l.16.08A2.52,2.52,0,0,1,9.67,16a2.5,2.5,0,0,1-1.12,2.23,1.67,1.67,0,0,0-.87,1.63c0,3.56,0,7.16,0,10.53a1.52,1.52,0,0,0,.79,1.42,2.42,2.42,0,0,1,1.21,2A2.86,2.86,0,0,1,8.54,36.2l-.1.06ZM6.38,32.94h.35a1.66,1.66,0,0,1,1.69,1.76V36a2.69,2.69,0,0,0,1.05-2.2A2.23,2.23,0,0,0,8.35,32a1.73,1.73,0,0,1-.88-1.6c0-3.37,0-7,0-10.53a1.92,1.92,0,0,1,1-1.81,2.28,2.28,0,0,0,1-2.05,2.36,2.36,0,0,0-1.05-1.92c0,.12,0,.23,0,.34,0,.38,0,.74,0,1.1a1.58,1.58,0,0,1-1.33,1.57,4.75,4.75,0,0,1-.93.05,1.68,1.68,0,0,1-1.82-1.85V14.07h0a2.71,2.71,0,0,0-1,2.21,2.18,2.18,0,0,0,1.13,1.83,1.68,1.68,0,0,1,.86,1.54c0,3.35,0,6.89,0,10.82A1.58,1.58,0,0,1,4.45,32a2.28,2.28,0,0,0-1.16,1.83,2.69,2.69,0,0,0,1,2.21l0,0V34.7A1.67,1.67,0,0,1,6,33Z"/><path class="cls-1" d="M20.3,38V32.48a3.23,3.23,0,0,1,2.46-3.28,3.13,3.13,0,0,1,3.82,2.93c0,1.81,0,3.62,0,5.43V38l.4,0h2.17a2.12,2.12,0,0,0,2.31-2.34v-6c0-.38.17-.58.46-.58s.46.2.46.58v4.33c0,.65,0,1.29,0,1.94a3,3,0,0,1-3,3c-1,0-2,0-3.05,0-.57,0-.69-.13-.69-.69,0-2,0-3.94,0-5.91a2.16,2.16,0,0,0-1.27-2.13,2.22,2.22,0,0,0-3.16,2.07c0,2,0,4,0,5.94,0,.59-.12.72-.71.72H17.63a3,3,0,0,1-3.12-3c0-2.08,0-4.16,0-6.24,0-.37.19-.58.47-.57s.46.21.46.59v6a2.11,2.11,0,0,0,2.27,2.29h2.2Z"/><path class="cls-1" d="M28.17,39.1H26.36c-.63,0-.8-.17-.8-.79V32.39a2.08,2.08,0,0,0-1.22-2,2,2,0,0,0-2,.1,2.18,2.18,0,0,0-1,1.87c0,1.35,0,2.73,0,4.06v1.88c0,.65-.16.82-.81.82H17.63A3.09,3.09,0,0,1,14.4,36c0-1.53,0-3.1,0-4.61V29.73a.73.73,0,0,1,.19-.53.55.55,0,0,1,.4-.15c.34,0,.55.27.55.7v6A2,2,0,0,0,17.7,38h2.5V36c0-1.19,0-2.37,0-3.56a3.33,3.33,0,0,1,2.53-3.38,3.16,3.16,0,0,1,2.71.6,3.11,3.11,0,0,1,1.24,2.43c0,1.25,0,2.53,0,3.76,0,.56,0,1.11,0,1.67v.37h2.47a2,2,0,0,0,2.2-2.22q0-2,0-4v-2c0-.44.22-.69.57-.69h0a.52.52,0,0,1,.38.15.73.73,0,0,1,.18.54v4.88c0,.47,0,.93,0,1.39a3.13,3.13,0,0,1-3.08,3.08Zm-4.73-9.17a2.31,2.31,0,0,1,1,.23,2.29,2.29,0,0,1,1.34,2.23V38.3c0,.5.08.58.59.58h3A2.93,2.93,0,0,0,32.28,36c0-.46,0-.92,0-1.39V29.74a.54.54,0,0,0-.12-.39.32.32,0,0,0-.23-.09h0c-.23,0-.34.17-.35.49v6a2.22,2.22,0,0,1-2.42,2.43c-.73,0-1.45,0-2.17,0h-.27l-.24,0V35.89c0-1.23,0-2.51,0-3.76a2.93,2.93,0,0,0-1.16-2.26,3,3,0,0,0-2.53-.56,3.13,3.13,0,0,0-2.37,3.17c0,1.19,0,2.37,0,3.56v2.1H19.9c-.73,0-1.46,0-2.2,0a2.19,2.19,0,0,1-2.38-2.39v-6c0-.22-.06-.48-.35-.49h0a.32.32,0,0,0-.23.09.52.52,0,0,0-.12.38c0,.55,0,1.09,0,1.63,0,1.51,0,3.07,0,4.61a2.88,2.88,0,0,0,3,2.91h2.89c.53,0,.6-.07.6-.61V36.39c0-1.33,0-2.71,0-4.06a2.41,2.41,0,0,1,1.13-2A2.25,2.25,0,0,1,23.44,29.93Z"/></svg>