<svg id="Layer_1" data-name="Layer 1" xmlns="http://www.w3.org/2000/svg" viewBox="0 0 40.4 40.4"><defs><style>.cls-1{fill:#fff;}</style></defs><path class="cls-1" d="M1.42,19.84q.84-2.6,1.69-5.19c.66-2,1.31-4.09,2-6.13A1.75,1.75,0,0,1,7.47,7.29c.81.25,1.62.54,2.44.78a1.85,1.85,0,0,1,1.44,1.55,7.79,7.79,0,0,0,2.5-.24,7.35,7.35,0,0,1,3.81,0c.55.18,1.07.46,1.61.68a.56.56,0,0,0,.42,0,6.16,6.16,0,0,1,5.6-.42c.67.26,1.34.54,2,.78a1.93,1.93,0,0,0,1.42.09l-.06-.27a1.74,1.74,0,0,1,1.07-2.09c.92-.36,1.85-.71,2.78-1a1.71,1.71,0,0,1,2.24,1q2.07,5.52,4.11,11.05a1.72,1.72,0,0,1-1.07,2.29c-.87.34-1.75.67-2.64,1a1.75,1.75,0,0,1-2.31-1,.46.46,0,0,0-.15-.17,3.19,3.19,0,0,1-.55,2.42,1.92,1.92,0,0,1-2.32.55A2.49,2.49,0,0,1,26.46,27c-.17,1.87-.88,2.63-2.58,2.79a2.22,2.22,0,0,1-1,2.25,2.11,2.11,0,0,1-2.43-.13c-.52,1-1.21,1.7-2.4,1.52A2.68,2.68,0,0,1,16,31.44a2.48,2.48,0,0,1-3.36-1.37A2.36,2.36,0,0,1,9.81,30,2.4,2.4,0,0,1,9,27.41a5.32,5.32,0,0,1-.69,0A2.39,2.39,0,0,1,6.51,24c.19-.38.41-.75.6-1.13a3.78,3.78,0,0,0,.16-.48,1.47,1.47,0,0,0-.26.13,1.7,1.7,0,0,1-1.6.25c-.91-.29-1.81-.59-2.72-.87A1.9,1.9,0,0,1,1.42,20.5ZM15.28,25a2.42,2.42,0,0,1,3,2.56h1l-.23-.14c-.35-.21-.45-.48-.28-.76s.43-.3.77-.13l.25.14,3.43,1.82a1.44,1.44,0,0,0,2.1-.9,1.48,1.48,0,0,0-.84-1.7c-1.06-.58-2.13-1.14-3.2-1.71-.39-.21-.5-.47-.34-.76s.44-.34.82-.13c.73.38,1.45.77,2.17,1.16.9.48,1.8,1,2.71,1.45a1.36,1.36,0,0,0,1.52-.13,1.38,1.38,0,0,0,.57-1.42A1.44,1.44,0,0,0,28,23.33l-4.54-2.47c-.36-.19-.46-.46-.31-.74s.44-.33.79-.15l1.16.63c1.64.88,3.26,1.77,4.91,2.64.85.45,1.5.09,1.67-.87a1.79,1.79,0,0,0-.82-1.87c-.83-.57-1.69-1.12-2.57-1.61-1.24-.68-2.56-1.22-3.77-2a2.93,2.93,0,0,0-2.58-.29c-.93.31-1.84.67-2.77.95a4.08,4.08,0,0,1-4.86-1.36c-.31-.39-.33-.54,0-1a6.52,6.52,0,0,1,.79-1c1.11-1.11,2.25-2.21,3.37-3.31.05-.05.09-.11.14-.17a5.24,5.24,0,0,0-3.39-.6,16.48,16.48,0,0,1-4,.45c-.06.15-.11.28-.15.4-.46,1.44-.93,2.88-1.39,4.32s-1,3-1.43,4.54a7.79,7.79,0,0,0-.16,1.18,2.51,2.51,0,0,1,4.19,1.67C14.29,22.8,14.84,23.21,15.28,25Zm-.1-9.39c0,.06,0,.08.05.1a.48.48,0,0,0,.09.11,2.92,2.92,0,0,0,3.21.85c1-.28,1.89-.65,2.84-1a4,4,0,0,1,2.41-.23,8.16,8.16,0,0,1,1.37.65c1.34.67,2.69,1.34,4,2a10.79,10.79,0,0,1,2.85,2c.07.09.2.12.3.18a1.08,1.08,0,0,0,0-.36q-1.53-4.14-3.07-8.27a2.36,2.36,0,0,0-.12-.28A3.09,3.09,0,0,1,27,11.36c-.66-.23-1.3-.5-1.94-.76a5.08,5.08,0,0,0-5.47.77c-1.32,1.09-2.5,2.34-3.73,3.52A9.19,9.19,0,0,0,15.18,15.65ZM2.44,20.07a.74.74,0,0,0,.57.81c.87.29,1.74.58,2.61.85a.76.76,0,0,0,1.09-.58q1.79-5.49,3.54-11a.77.77,0,0,0-.58-1.12l-2.4-.77c-.72-.23-1-.08-1.24.63Q4.28,14.31,2.54,19.71A3.56,3.56,0,0,0,2.44,20.07ZM33.07,8a3.1,3.1,0,0,0-.36.09L30.24,9a.76.76,0,0,0-.51,1.15l4,10.78a.77.77,0,0,0,1.15.53l2.4-.89c.68-.25.82-.56.57-1.24Q36.67,16.18,35.49,13C35,11.55,34.4,10.08,33.85,8.6A.79.79,0,0,0,33.07,8ZM9.86,28a1.42,1.42,0,0,0,1.08,1.36,1.36,1.36,0,0,0,1.55-.69c.52-.95,1-1.91,1.54-2.87a1.4,1.4,0,0,0-.51-1.94,1.37,1.37,0,0,0-1.91.65c-.5.92-1,1.85-1.49,2.78A7.43,7.43,0,0,0,9.86,28ZM8.78,26.37a1.24,1.24,0,0,0,1.05-.67c.42-.76.83-1.52,1.22-2.29a1.34,1.34,0,0,0-.64-1.81,1.31,1.31,0,0,0-1.73.48c-.46.78-.9,1.57-1.28,2.39A1.36,1.36,0,0,0,8.78,26.37Zm7-.38a1.1,1.1,0,0,0-.94.56c-.43.72-.84,1.46-1.2,2.22A1.36,1.36,0,0,0,16,30.05a18.54,18.54,0,0,0,1.17-2.2A1.36,1.36,0,0,0,15.77,26Zm3.1,2.64A2.41,2.41,0,0,0,17,31.05a.58.58,0,0,0,0,.14,1.68,1.68,0,0,0,1.26,1.2c.65.07,1-.33,1.25-.83a10.6,10.6,0,0,0,.58-1.17A1.21,1.21,0,0,0,18.87,28.63Zm1.77-.35c.72.95.76,1.2.34,2.66.66.49,1.25.48,1.65,0a1.11,1.11,0,0,0-.22-1.64C21.85,28.89,21.23,28.6,20.64,28.28Z"/><path class="cls-1" d="M18.45,33.51l-.37,0a2.71,2.71,0,0,1-2.16-1.92,2.55,2.55,0,0,1-3.35-1.36A2.41,2.41,0,0,1,9.75,30a2.46,2.46,0,0,1-.9-2.53H8.74a3.88,3.88,0,0,1-.48,0,2.47,2.47,0,0,1-1.83-3.55c.1-.22.22-.44.34-.65L7,22.78c0-.08.06-.16.09-.26h0l-.06,0a1.78,1.78,0,0,1-1.68.26l-1.1-.35-1.62-.52a2,2,0,0,1-1.33-1.41v-.72l.61-1.88L3,14.62c.35-1.1.71-2.2,1.06-3.3.31-.94.61-1.89.92-2.83A1.85,1.85,0,0,1,7.5,7.2l.91.29c.5.17,1,.34,1.53.49a2,2,0,0,1,1.49,1.55,7.49,7.49,0,0,0,2.26-.22l.15,0a7.71,7.71,0,0,1,3.85,0,8.59,8.59,0,0,1,1,.41l.63.27a.48.48,0,0,0,.33,0,6.28,6.28,0,0,1,5.68-.43l.72.28c.42.17.86.35,1.3.5a1.89,1.89,0,0,0,1.27.12,1.29,1.29,0,0,0,0-.19A1.85,1.85,0,0,1,29.7,8c.93-.36,1.87-.71,2.78-1a1.8,1.8,0,0,1,2.36,1.1c1.35,3.58,2.73,7.3,4.11,11.05a1.82,1.82,0,0,1-1.12,2.41c-.81.31-1.68.63-2.65,1a1.84,1.84,0,0,1-2.38-.92,3,3,0,0,1-.59,2.17,2,2,0,0,1-2.29.62,2.58,2.58,0,0,1-3.38,2.66c-.19,1.79-.92,2.58-2.56,2.76a2.28,2.28,0,0,1-1,2.24A2.16,2.16,0,0,1,20.53,32,2.44,2.44,0,0,1,18.45,33.51ZM16,31.32l0,.09a2.53,2.53,0,0,0,2.05,1.88c1,.15,1.68-.3,2.3-1.47l0-.08.09.05a2,2,0,0,0,2.33.13,2.13,2.13,0,0,0,.92-2.16v-.09h.09c1.65-.16,2.33-.89,2.5-2.71v-.11l.11,0a2.41,2.41,0,0,0,3.24-2.57v-.14l.13.05a1.86,1.86,0,0,0,2.22-.53,3.12,3.12,0,0,0,.53-2.36l0-.19.16.11a.55.55,0,0,1,.19.21,1.67,1.67,0,0,0,2.19.93c1-.35,1.83-.68,2.64-1a1.62,1.62,0,0,0,1-2.17c-1.38-3.74-2.76-7.46-4.1-11a1.64,1.64,0,0,0-2.13-1c-.91.32-1.85.67-2.77,1a1.63,1.63,0,0,0-1,2c0,.07,0,.14.05.21l0,.15-.08,0a2.07,2.07,0,0,1-1.48-.09L26,10l-.71-.28a6.07,6.07,0,0,0-5.52.41.62.62,0,0,1-.5,0c-.22-.08-.43-.18-.64-.27a8.24,8.24,0,0,0-1-.4,7.47,7.47,0,0,0-3.76,0l-.14,0a7.36,7.36,0,0,1-2.39.21h-.07V9.63A1.78,1.78,0,0,0,9.88,8.16c-.51-.15-1-.32-1.53-.49l-.91-.29A1.66,1.66,0,0,0,5.17,8.55c-.3.94-.6,1.88-.91,2.83s-.71,2.2-1.07,3.3S2.48,16.89,2.12,18l-.61,1.86v.63a1.83,1.83,0,0,0,1.2,1.28l1.63.52,1.09.35A1.62,1.62,0,0,0,7,22.4l.15-.08.13-.07.2-.09-.07.21-.06.2a2,2,0,0,1-.11.29l-.26.49c-.11.21-.23.42-.34.64a2.34,2.34,0,0,0,0,2.08,2.31,2.31,0,0,0,1.68,1.21,3.4,3.4,0,0,0,.45,0h.33l0,.1a2.29,2.29,0,0,0,.82,2.45,2.26,2.26,0,0,0,2.7.11l.09-.06,0,.1a2.38,2.38,0,0,0,3.24,1.32Zm2.36,1.17h-.16a1.77,1.77,0,0,1-1.34-1.26l0-.12v0a2.3,2.3,0,0,1,.61-1.72,2,2,0,0,1,1.4-.8h0a1.39,1.39,0,0,1,1.21.58,1.35,1.35,0,0,1,.08,1.3,10.79,10.79,0,0,1-.56,1.13l0,.06A1.35,1.35,0,0,1,18.39,32.49Zm.48-3.86v.09a1.83,1.83,0,0,0-1.25.74A2.08,2.08,0,0,0,17,31v0a.36.36,0,0,0,0,.1,1.57,1.57,0,0,0,1.18,1.12c.62.08.92-.33,1.16-.77l0-.06A11.53,11.53,0,0,0,20,30.35a1.18,1.18,0,0,0-.06-1.13,1.23,1.23,0,0,0-1.06-.5h0Zm3,2.76a1.67,1.67,0,0,1-1-.37l-.05,0,0-.06c.41-1.44.38-1.65-.32-2.59L20.3,28l.39.21.54.3a12.52,12.52,0,0,1,1.23.7A1.19,1.19,0,0,1,23,30a1.22,1.22,0,0,1-.27,1A1,1,0,0,1,21.89,31.39Zm-.8-.48c.59.41,1.11.4,1.47-.05a1.14,1.14,0,0,0,.23-.84,1,1,0,0,0-.44-.67,13.13,13.13,0,0,0-1.21-.7l-.18-.1C21.45,29.28,21.44,29.65,21.09,30.91Zm-6.17-.17a1.47,1.47,0,0,1-.73-.19,1.41,1.41,0,0,1-.64-1.82c.31-.66.69-1.37,1.2-2.23a1.19,1.19,0,0,1,1-.6h0a1.63,1.63,0,0,1,1.39.7,1.32,1.32,0,0,1,.1,1.29,20.34,20.34,0,0,1-1.18,2.2A1.35,1.35,0,0,1,14.92,30.74Zm.85-4.66a1,1,0,0,0-.86.51c-.5.86-.88,1.56-1.19,2.22A1.26,1.26,0,0,0,15.93,30a20.06,20.06,0,0,0,1.17-2.19A1.13,1.13,0,0,0,17,26.7a1.46,1.46,0,0,0-1.24-.62Zm-4.49,3.46a1.22,1.22,0,0,1-.37-.05,1.49,1.49,0,0,1-1.14-1.44v0l.07-.22a3,3,0,0,1,.19-.5c.47-.92,1-1.8,1.48-2.79a1.68,1.68,0,0,1,1-.81,1.4,1.4,0,0,1,1.09.13,1.47,1.47,0,0,1,.54,2.06c-.45.85-1,1.87-1.54,2.88A1.48,1.48,0,0,1,11.28,29.54ZM10,28.05a1.31,1.31,0,0,0,1,1.26,1.23,1.23,0,0,0,1.44-.65c.56-1,1.09-2,1.54-2.87A1.29,1.29,0,0,0,13.48,24a1.23,1.23,0,0,0-1-.11,1.47,1.47,0,0,0-.84.72c-.53,1-1,1.87-1.48,2.78a2.68,2.68,0,0,0-.18.47C10,27.91,10,28,10,28.05Zm14,.75a1.61,1.61,0,0,1-.76-.19l-2.4-1.27-1-.55-.1-.05-.16-.09c-.2-.1-.48-.17-.64.1s0,.5.24.63l.53.32H18.21v-.1a2.33,2.33,0,0,0-.78-2,2.29,2.29,0,0,0-2.14-.49l-.09,0,0-.09c-.44-1.8-.93-2.17-2.94-2.23h-.08v-.08a2.59,2.59,0,0,0-1.56-2.08,2.45,2.45,0,0,0-2.48.48l-.19.14,0-.23c0-.12,0-.25,0-.37a4.38,4.38,0,0,1,.13-.82c.39-1.29.8-2.58,1.2-3.84l.23-.7L10.64,12,11,11c0-.09.06-.18.1-.27l.08-.21h.07a9.24,9.24,0,0,0,2.73-.25c.39-.07.8-.15,1.21-.21a5.27,5.27,0,0,1,3.44.62l.1,0-.11.14a.63.63,0,0,1-.1.12l-1,1c-.78.76-1.59,1.55-2.37,2.34a6.73,6.73,0,0,0-.79,1c-.25.36-.24.47,0,.84a4,4,0,0,0,4.76,1.33c.53-.16,1.07-.35,1.58-.54l1.19-.41a3,3,0,0,1,2.66.3A23.91,23.91,0,0,0,26.73,18c.52.26,1.06.53,1.58.81.8.44,1.64,1,2.59,1.62a1.87,1.87,0,0,1,.85,2,1.32,1.32,0,0,1-.65,1,1.26,1.26,0,0,1-1.16-.11l-3.56-1.91-1.75-.95-.75-.4c-.31-.17-.54-.13-.67.1a.39.39,0,0,0,0,.29.57.57,0,0,0,.31.33L28,23.25a1.52,1.52,0,0,1,.86,1.13A1.54,1.54,0,0,1,26.66,26l-1.85-1-.87-.47-2.16-1.16c-.5-.26-.65,0-.7.1a.36.36,0,0,0,0,.28.69.69,0,0,0,.35.35l1.21.64,2,1.07a1.56,1.56,0,0,1,.89,1.8,1.49,1.49,0,0,1-.84,1A1.69,1.69,0,0,1,24,28.8Zm-4.77-2.42a1,1,0,0,1,.41.11l.16.09.1.05,1,.55,2.4,1.26a1.35,1.35,0,0,0,1.22,0,1.28,1.28,0,0,0,.74-.89,1.36,1.36,0,0,0-.8-1.58c-.66-.37-1.32-.72-2-1.07l-1.2-.65a.83.83,0,0,1-.44-.45.51.51,0,0,1,.06-.43c.1-.2.37-.48.95-.17L24,24.4l.87.47c.6.33,1.23.66,1.84,1a1.31,1.31,0,0,0,1.43-.11,1.28,1.28,0,0,0,.52-1.33,1.31,1.31,0,0,0-.76-1l-4.54-2.47a.75.75,0,0,1-.4-.43.58.58,0,0,1,.06-.44.61.61,0,0,1,.91-.18l.76.41,1.75.95L30,23.16a1.09,1.09,0,0,0,1,.1,1.17,1.17,0,0,0,.55-.9,1.69,1.69,0,0,0-.78-1.78A28.34,28.34,0,0,0,28.22,19c-.51-.29-1-.55-1.58-.81-.73-.36-1.48-.73-2.19-1.16a2.86,2.86,0,0,0-2.5-.28l-1.18.41c-.52.19-1.06.38-1.6.54a4.15,4.15,0,0,1-5-1.39c-.33-.41-.38-.61-.06-1.07a6.82,6.82,0,0,1,.8-1c.79-.79,1.6-1.58,2.38-2.34l1-1,.06-.07a5.19,5.19,0,0,0-3.24-.54c-.4.05-.8.13-1.2.21a9.75,9.75,0,0,1-2.71.25l0,.07c0,.09-.07.18-.1.26l-.32,1c-.36,1.12-.72,2.23-1.07,3.34l-.23.71c-.4,1.25-.81,2.55-1.2,3.83a4.08,4.08,0,0,0-.12.78c0,.06,0,.11,0,.17a2.63,2.63,0,0,1,2.49-.38,2.76,2.76,0,0,1,1.67,2.15c2,.07,2.58.51,3,2.28a2.51,2.51,0,0,1,3.06,2.58H19c-.35-.24-.45-.54-.26-.85A.52.52,0,0,1,19.23,26.38Zm-10.45.09h0a1.61,1.61,0,0,1-1.39-.72,1.38,1.38,0,0,1-.08-1.32c.34-.71.74-1.47,1.29-2.4a1.41,1.41,0,0,1,1.86-.52,1.44,1.44,0,0,1,.67,1.94c-.34.69-.75,1.45-1.22,2.3a1.35,1.35,0,0,1-1.13.72Zm1-4.93a1.21,1.21,0,0,0-1.05.59c-.54.92-1,1.67-1.28,2.38a1.16,1.16,0,0,0,.07,1.14,1.42,1.42,0,0,0,1.23.63,1.14,1.14,0,0,0,1-.62c.48-.85.88-1.6,1.23-2.3a1.27,1.27,0,0,0-.6-1.68A1.11,1.11,0,0,0,9.81,21.54ZM6,21.89a1.26,1.26,0,0,1-.41-.07L3,21a.83.83,0,0,1-.63-.91v0l0-.08c0-.08,0-.18.08-.28q1.74-5.4,3.49-10.79c.24-.76.6-.93,1.36-.69l.83.27L9.7,9a.86.86,0,0,1,.64,1.24C9.17,13.87,8,17.52,6.8,21.18,6.65,21.65,6.38,21.89,6,21.89ZM2.54,20.08a.66.66,0,0,0,.5.72c.89.29,1.77.58,2.61.84.51.16.8,0,1-.52q1.78-5.48,3.54-11c.18-.54,0-.83-.52-1L8.08,8.64l-.84-.26c-.67-.22-.91-.1-1.12.56q-1.75,5.4-3.49,10.8c0,.09-.06.19-.08.27Zm31.89,1.59c-.37,0-.62-.22-.79-.68q-2-5.4-4-10.79a.86.86,0,0,1,.57-1.27L32.68,8,33,7.93h.1a.9.9,0,0,1,.87.66l1.2,3.23,2.79,7.51c.27.74.11,1.1-.62,1.37l-.28.1-2.13.79A1.24,1.24,0,0,1,34.43,21.67ZM33.08,8.1l-.07,0-.26.07-2.47.92c-.54.2-.67.49-.47,1q2,5.4,4,10.78a.69.69,0,0,0,1,.48L37,20.61l.28-.11c.63-.23.75-.48.51-1.12L35,11.87l-1.2-3.24A.7.7,0,0,0,33.08,8.1Zm-.66,12.44-.15-.08-.1-.05a.55.55,0,0,1-.23-.14,10.52,10.52,0,0,0-2.82-2c-1-.55-2.09-1.08-3.12-1.6l-.89-.45-.34-.18a5.16,5.16,0,0,0-1-.46,3.9,3.9,0,0,0-2.35.23l-1.08.37c-.57.2-1.17.42-1.77.59a3,3,0,0,1-3.3-.87l-.1-.12a.36.36,0,0,1,0-.07.33.33,0,0,1,0-.06l0,0,0-.05c.07-.07.13-.15.2-.23a4.5,4.5,0,0,1,.46-.52l1-1c.87-.85,1.76-1.74,2.72-2.53a5.17,5.17,0,0,1,5.56-.78l.33.13c.53.22,1.07.44,1.61.63a3.05,3.05,0,0,0,2.07.1h.07l.07.14.09.21q1.55,4.13,3.07,8.27a.83.83,0,0,1,0,.27v.28ZM23,15.32a2.61,2.61,0,0,1,.77.11,5,5,0,0,1,1.05.47l.35.18.88.45c1,.52,2.09,1.06,3.13,1.61a10.76,10.76,0,0,1,2.86,2,.54.54,0,0,0,.15.09,1,1,0,0,0,0-.18c-1-2.76-2.05-5.51-3.07-8.27l-.09-.18v0A3.18,3.18,0,0,1,27,11.45c-.55-.19-1.09-.41-1.62-.63L25,10.69a5,5,0,0,0-5.37.75c-.95.79-1.85,1.67-2.71,2.53l-1,1c-.16.16-.31.34-.45.51l-.16.19h0v0l.09.1a2.82,2.82,0,0,0,3.11.82c.59-.17,1.19-.38,1.76-.59l1.08-.37A5.4,5.4,0,0,1,23,15.32Z"/></svg>