<?xml version="1.0" encoding="utf-8"?>
<!-- Generator: Adobe Illustrator 25.2.0, SVG Export Plug-In . SVG Version: 6.00 Build 0)  -->
<svg version="1.1" id="Layer_1" xmlns="http://www.w3.org/2000/svg" xmlns:xlink="http://www.w3.org/1999/xlink" x="0px" y="0px"
	 viewBox="0 0 492 147" style="enable-background:new 0 0 492 147;" xml:space="preserve">
<style type="text/css">
	.st0{fill:#FBCF10;}
</style>
<g id="XMLID_129_">
	<g id="XMLID_130_">
		<path id="XMLID_131_" class="st0" d="M42.3,105.2h36l7.1,19.4h23.9l0,0h41c0.6,0,1.3,0,1.9,0c5.4,0,10.4-0.7,15-2
			c4.6-1.3,8.7-3.2,12.2-5.8c3.5-2.5,6.3-5.8,8.4-9.9c2-4.1,3.1-8.7,3.1-13.9c0-2.4-0.2-4.6-0.7-6.7c-0.5-2.1-1.1-4-1.8-5.6
			c-0.7-1.6-1.7-3.1-3.1-4.6c-1.4-1.5-2.6-2.7-3.8-3.7s-2.7-2-4.7-2.9c-1.9-1-3.6-1.8-4.9-2.3c-1.3-0.6-3.1-1.2-5.4-1.9
			c-2.3-0.7-4-1.2-5.3-1.5c-1.3-0.3-3.1-0.8-5.4-1.3c-2.8-0.6-4.8-1.1-6.3-1.5c-1.4-0.4-3.2-0.9-5.2-1.6c-2-0.7-3.5-1.4-4.5-2.1
			c-1-0.7-1.9-1.6-2.6-2.7c-0.7-1.1-1.1-2.3-1.1-3.6c0-3,1.4-5.3,4.2-6.9c2.8-1.6,6.2-2.4,10.1-2.4c0.9,0,1.7,0,2.5,0.1h32.8h41.4
			l-32.4,82.7h23.1L232,86l0.2-0.5l13.1-36L258.8,86l0,0l-29,19.2h36l7.1,19.4h23.9l0,0h41.5c0.6,0,1.3,0,1.9,0c5.4,0,10.4-0.7,15-2
			c4.6-1.3,8.7-3.2,12.2-5.8c3.5-2.5,6.3-5.8,8.4-9.9c2-4.1,3.1-8.7,3.1-13.9c0-2.4-0.2-4.6-0.7-6.7c-0.5-2.1-1.1-4-1.8-5.6
			c-0.7-1.6-1.7-3.1-3.1-4.6c-1.4-1.5-2.6-2.7-3.8-3.7c-1.2-1-2.7-2-4.7-2.9c-1.9-1-3.6-1.8-4.9-2.3c-1.3-0.6-3.1-1.2-5.4-1.9
			c-2.3-0.7-4-1.2-5.3-1.5c-1.3-0.3-3.1-0.8-5.4-1.3c-2.8-0.6-4.8-1.1-6.3-1.5c-1.4-0.4-3.2-0.9-5.2-1.6c-2-0.7-3.5-1.4-4.5-2.1
			c-1-0.7-1.9-1.6-2.6-2.7c-0.7-1.1-1.1-2.3-1.1-3.6c0-3,1.4-5.3,4.2-6.9c2.8-1.6,6.2-2.4,10.1-2.4c0.9,0,1.7,0,2.5,0.1h32.8h41.4
			l-32.4,82.7h23.1L420,86l0.2-0.5l13.1-36L446.8,86l0,0l-29,19.2h36l7.1,19.4h23.9l0,0l-7.9-19.5l-33.4-82.5h-10.9v0H341v0.1
			c-0.6,0-1.3,0-1.9,0c-11.4,0-20.5,2.6-27.1,7.7c-6.6,5.1-9.9,12.4-9.9,21.7c0,1.5,0.1,2.9,0.3,4.3c1.1,8.6,6.2,15,15.2,19.2
			c3.8,1.8,10,3.7,18.5,5.7c2.4,0.6,4.2,1,5.4,1.3c1.2,0.3,2.8,0.7,4.7,1.3c1.9,0.6,3.3,1.1,4.3,1.6c1,0.5,2,1.2,3.1,2
			c1.1,0.8,1.8,1.7,2.3,2.7c0.4,1,0.7,2.1,0.7,3.4c0,3.5-0.5,6.9-3.8,9c-2.8,1.8-7.1,2.4-10.7,2.7h-5.9h-32.6h-14.6l-33.4-82.5
			h-10.9v0h-91.6v0.1c-0.6,0-1.3,0-1.9,0c-11.4,0-20.5,2.6-27.1,7.7c-6.6,5.1-9.9,12.4-9.9,21.7c0,1.5,0.1,2.9,0.3,4.3
			c1.1,8.6,6.2,15,15.2,19.2c3.8,1.8,10,3.7,18.5,5.7c2.4,0.6,4.2,1,5.4,1.3c1.2,0.3,2.8,0.7,4.7,1.3c1.9,0.6,3.3,1.1,4.3,1.6
			c1,0.5,2,1.2,3.1,2c1.1,0.8,1.8,1.7,2.3,2.7c0.4,1,0.7,2.1,0.7,3.4c0,3.5-0.5,6.9-3.8,9c-2.8,1.8-7.1,2.4-10.7,2.7h-5.9h-32.6
			h-14.1L68,22.5H47.2l-40,102h23.1L44.5,86l0.2-0.5l13.1-36L71.3,86"/>
	</g>
</g>
</svg>
