<svg id="Layer_1" data-name="Layer 1" xmlns="http://www.w3.org/2000/svg" viewBox="0 0 18.79 18.75"><defs><style>.cls-1{fill:#fff;}</style></defs><path class="cls-1" d="M.83,9.87a.67.67,0,0,1,.73-.44H3.05V9a.82.82,0,0,1-.59-1h0V7.92a.25.25,0,0,1,.29-.2A.26.26,0,0,1,3,8H3a1.22,1.22,0,0,1,0,.27c0,.16.06.19.2.19H7c.26,0,.26,0,.26-.27a.67.67,0,0,1,0-.2.26.26,0,0,1,.25-.24h0A.26.26,0,0,1,7.8,8V8h0v.44A.56.56,0,0,1,7.4,9c-.18.05-.2.14-.19.28v.23h8.86a.24.24,0,0,1,.2.26h0a.25.25,0,0,1-.22.28H1.39v.69H19V10H17.16a.27.27,0,0,1-.31-.22h0a.27.27,0,0,1,.24-.28H19a.55.55,0,0,1,.55.55v.64a.56.56,0,0,1-.52.6h-.35v7.38a.87.87,0,0,1-.82.92h0a.21.21,0,0,1-.11,0H2.62a.86.86,0,0,1-.93-.79h0a.24.24,0,0,1,0-.12V11.23a.7.7,0,0,1-.87-.4Zm9.63,5h7.63v-3.6H10.46Zm7.65.57H10.64c-.15,0-.19,0-.19.2V19H17.8c.22,0,.29-.08.29-.29v-1.8ZM2.26,11.24v7.4c0,.27.06.33.35.33H9.89V11.41c0-.16-.07-.17-.2-.17ZM3.62,9.43h3V9h-3Z" transform="translate(-0.82 -0.85)"/><path class="cls-1" d="M19,.85a.86.86,0,0,1,.59,1V6.41a.77.77,0,0,1-.66.86H11.38a.77.77,0,0,1-.87-.63v0a.74.74,0,0,1,0-.21V1.86a.87.87,0,0,1,.58-1Zm-4.22.55h-3.4c-.29,0-.34,0-.34.33v4.6c0,.29,0,.34.32.34h3.38Zm.57,5.26h3.41c.22,0,.28-.06.28-.29V1.71c0-.26-.05-.31-.31-.31H15.29Z" transform="translate(-0.82 -0.85)"/><path class="cls-1" d="M.83,3.15a.63.63,0,0,1,.72-.43.23.23,0,0,0,.29-.14V2.52A1.21,1.21,0,0,1,3,1.66H7.56a1.26,1.26,0,0,1,1.19.91v.15h.36a.56.56,0,0,1,.59.51V3.3a3.53,3.53,0,0,1,0,.46.54.54,0,0,1-.53.55H1.53a.64.64,0,0,1-.7-.44Zm.56.6H9.24V3.27h-5A.24.24,0,0,1,4,3V3a.25.25,0,0,1,.21-.28h4a.66.66,0,0,0-.69-.51H3.06a.65.65,0,0,0-.68.51h.78A.28.28,0,0,1,3.43,3a.27.27,0,0,1-.27.27H1.39Z" transform="translate(-0.82 -0.85)"/><path class="cls-1" d="M14.28,12.21h-.69c-.21,0-.34-.11-.33-.28s.12-.26.32-.26H15c.19,0,.3.09.31.26a.28.28,0,0,1-.26.29h-.77Z" transform="translate(-0.82 -0.85)"/><path class="cls-1" d="M14.29,16H15c.2,0,.32.1.32.27s-.12.27-.32.27H13.6c-.2,0-.32-.11-.32-.27s.12-.27.32-.27Z" transform="translate(-0.82 -0.85)"/><path class="cls-1" d="M6.12,18.42H3.45A.51.51,0,0,1,2.87,18h0a.43.43,0,0,1,0-.16V14.46a.51.51,0,0,1,.42-.58H8.8a.51.51,0,0,1,.58.43v3.52c0,.4-.19.59-.6.59Zm2.7-.56V14.43H3.43v3.43Z" transform="translate(-0.82 -0.85)"/><path class="cls-1" d="M2.87,12.56a.89.89,0,1,1,.89.89.89.89,0,0,1-.89-.89Zm.89-.35a.33.33,0,0,0-.34.32h0a.35.35,0,0,0,.34.35.36.36,0,0,0,.35-.34A.34.34,0,0,0,3.76,12.21Z" transform="translate(-0.82 -0.85)"/><path class="cls-1" d="M6.12,11.66a.9.9,0,0,1,.9.88H7a.91.91,0,0,1-.79,1h0a.9.9,0,0,1-1-.77v0a.61.61,0,0,1,0-.19.89.89,0,0,1,.89-.89Zm0,1.24a.35.35,0,0,0,.34-.36h0a.36.36,0,0,0-.36-.33.33.33,0,0,0-.33.33h0a.34.34,0,0,0,.33.35h0Z" transform="translate(-0.82 -0.85)"/><path class="cls-1" d="M14.17,4.08v.58a.28.28,0,0,1-.33.22.28.28,0,0,1-.22-.22V3.45a.26.26,0,0,1,.23-.29h.05a.29.29,0,0,1,.27.31h0Z" transform="translate(-0.82 -0.85)"/><path class="cls-1" d="M15.83,4.05v-.6a.29.29,0,0,1,.25-.3h0a.29.29,0,0,1,.29.27V4.66a.26.26,0,0,1-.23.29h0c-.17,0-.26-.11-.27-.3Z" transform="translate(-0.82 -0.85)"/></svg>