<svg id="Layer_1" data-name="Layer 1" xmlns="http://www.w3.org/2000/svg" viewBox="0 0 52.8 52.8"><defs><style>.cls-1{fill:#ffc742;}</style></defs><path d="M46.92,51.05H24.58c-.58-.6-.56-.93.09-1.49L38.15,38.08l1.19-1H18.85v9.88a3.67,3.67,0,0,1-2.79,3.83c-.33.11-.67.2-1,.29H13.41c-.1,0-.2-.08-.3-.1a4,4,0,0,1-3.54-4.31v-2a6,6,0,0,1-4,.85,4.14,4.14,0,0,1-3.8-4.19c.07-7.22,0-14.44,0-21.67,0-.14-.06-.32,0-.42s.32-.51.54-.58c.54-.18.89.18.89.84V37.87a5.91,5.91,0,0,1,3.07-1.39V8.82c-.18,0-.34.07-.49.12a3.73,3.73,0,0,0-2.58,3.52c0,1,0,2,0,3a.63.63,0,0,1-.66.67c-.4,0-.75-.15-.76-.57a25.88,25.88,0,0,1,.07-3.94,5.17,5.17,0,0,1,5-4.34.78.78,0,0,1,.91.82,10.09,10.09,0,0,1,0,1.1.4.4,0,0,0,.35.47,7,7,0,0,1,1.26.45A2.56,2.56,0,0,1,11,12.75c0,.52,0,1,0,1.62a7.54,7.54,0,0,1,.89-.65.75.75,0,0,0,.43-.81c0-1.74,0-3.47,0-5.2,0-1,.15-1.19,1.21-1.19h8.36V2.62c0-.63.24-.87.87-.87H27c.64,0,.89.25.9.9V6c0,.17,0,.33,0,.54h22A1.3,1.3,0,0,1,51.06,7V36.61A1.26,1.26,0,0,1,50,37c-.85,0-1.69,0-2.58,0v5.64c0,.62-.31.92-.83.88s-.66-.33-.66-.95V33.4l-19,16.18h19V47.06c0-.64.23-.92.73-.92s.75.28.76.94c0,1,0,2,0,2.94A1.14,1.14,0,0,1,46.92,51.05ZM31.21,35.54V8H27.85v14c0,.85-.21,1.06-1,1.06h-3.9c-.82,0-1-.2-1-1V8H13.83v4.86c.28,0,.51-.06.75-.07.79,0,1,.22,1,1,0,.42,0,.83,0,1.22.42.14.79.23,1.15.37a2.81,2.81,0,0,1,2.08,3.07q0,8.2,0,16.41v.63ZM49.59,25.45V8H32.75V25.45ZM32.74,35.56h.56c2.44,0,4.88,0,7.32,0a1.26,1.26,0,0,0,.9-.35c1.5-1.29,3-2.59,4.54-3.86a.75.75,0,0,1,1.3.58c0,1,0,2.05,0,3.08v.51h2.21V27H32.74ZM14.13,14.35l-.29.05A3.74,3.74,0,0,0,11,18.14q0,12.36,0,24.73c0,.14,0,.27,0,.4.5-.28.95-.58,1.44-.8s1.06-.34,1.62-.52ZM17.38,45v-.5q0-13.07,0-26.13a1.6,1.6,0,0,0-1.76-1.62v.57q0,12.42,0,24.84c0,1.15-.07,1.23-1.22,1.36,0,0-.05,0-.1.06v.71ZM9.55,39.48c0-.12,0-.22,0-.33q0-13.3,0-26.61a1.2,1.2,0,0,0-.42-.84A8.12,8.12,0,0,0,7.8,11V36.56c0,1.16-.07,1.24-1.21,1.39l-.1,0v.77c.54.08,1,.13,1.54.25S9,39.32,9.55,39.48Zm16.8-17.82V3.22h-3V5c.9,0,1.18.21,1.2.7,0,.16,0,.41-.15.48a7.52,7.52,0,0,1-1,.42V8.37h1c.57,0,.88.27.88.72s-.32.73-.87.74h-1v1.81c1,.15,1.23.31,1.23.79s-.25.64-1.25.8V15H24.5a.72.72,0,0,1,.74.73.71.71,0,0,1-.73.72c-.38,0-.76,0-1.15,0v1.86c.95.11,1.2.27,1.21.75s-.26.66-1.21.79v1.77ZM5,38.4a3.14,3.14,0,0,0-1.66,2.25A2.39,2.39,0,0,0,4.65,43.7,4.3,4.3,0,0,0,7.32,44a3.25,3.25,0,0,0,1.78-.89,1.35,1.35,0,0,0-.38-2.29A5.13,5.13,0,0,0,6,40.3c-.74,0-1-.19-1-.92C5,39.08,5,38.78,5,38.4Zm7.84,5.54a2.85,2.85,0,0,0-1.59,2c-.29,1.08-.38,2.14.62,3a4.11,4.11,0,0,0,4.91-.12,2.07,2.07,0,0,0,.58-1c.13-.69-.25-1.18-1-1.5a6.14,6.14,0,0,0-2.55-.34c-.71,0-.95-.22-1-.94Z"/><path class="cls-1" d="M31.21,35.54H18.85v-.63q0-8.2,0-16.41a2.81,2.81,0,0,0-2.08-3.07c-.36-.14-.73-.23-1.15-.37,0-.39,0-.8,0-1.22,0-.8-.24-1-1-1-.24,0-.47,0-.75.07V8h8.06V22.11c0,.81.2,1,1,1h3.9c.83,0,1-.21,1-1.06V8h3.36Z"/><path class="cls-1" d="M26.35,21.66h-3V19.89c.95-.13,1.21-.3,1.21-.79s-.26-.64-1.21-.75V16.49c.39,0,.77,0,1.15,0a.71.71,0,0,0,.73-.72A.72.72,0,0,0,24.5,15H23.33V13.23c1-.16,1.25-.32,1.25-.8s-.25-.64-1.23-.79V9.83h1c.55,0,.87-.28.87-.74s-.31-.71-.88-.72h-1V6.61a7.52,7.52,0,0,0,1-.42c.11-.07.15-.32.15-.48,0-.49-.3-.65-1.2-.7V3.22h3Z"/><path d="M38.76,47.57H34.67c-.42,0-.78-.07-.93-.51s.07-.69.38-1L42.5,39a.79.79,0,0,1,.92-.22.83.83,0,0,1,.43.84c0,2.35,0,4.71,0,7.07,0,.65-.26.9-.91.91ZM42.38,41l-5.94,5.06h5.94Z"/><path d="M35.45,18.35c0-1,0-2.05,0-3.08a1.37,1.37,0,0,1,.34-.84q1.48-1.57,3.06-3.06a1.4,1.4,0,0,1,.84-.35c2.07,0,4.14,0,6.21,0,.7,0,1,.27,1,1,0,2.07,0,4.14,0,6.21a1.49,1.49,0,0,1-.38.88c-1,1-2,2-3,3a1.32,1.32,0,0,1-.84.35c-2.1,0-4.2,0-6.3,0-.62,0-.87-.25-.88-.87Zm1.49-2.54V21h5.13V15.81Zm7.41-3.32H40c-.07,0-.15,0-.19,0l-1.83,1.81H42.3a.44.44,0,0,0,.3-.1C43.16,13.7,43.71,13.15,44.35,12.49Zm-.8,7.34.13.08c.49-.51,1-1,1.45-1.54a1.17,1.17,0,0,0,.27-.66c0-1.22,0-2.44,0-3.66,0-.13,0-.27,0-.55-.63.65-1.16,1.2-1.68,1.76a.45.45,0,0,0-.12.29C43.55,17,43.55,18.4,43.55,19.83Z"/><path d="M40.29,29.11h2.88c.56,0,.86.27.86.75s-.28.7-.84.7c-2,0-3.91,0-5.87,0-.56,0-.82-.24-.82-.71s.29-.74.85-.74Z"/><path d="M38.38,33.43h-1.2a.72.72,0,0,1,0-1.43c.83,0,1.67,0,2.5,0a.66.66,0,0,1,.63.75.63.63,0,0,1-.65.68Z"/></svg>