<svg id="Layer_1" data-name="Layer 1" xmlns="http://www.w3.org/2000/svg" viewBox="0 0 52.8 52.8"><defs><style>.cls-1{fill:#fff;}</style></defs><path class="cls-1" d="M1.9,8.12C2,8,2,7.87,2.07,7.74a3,3,0,0,1,2.85-2h.81c0-.34,0-.64,0-.94A2.25,2.25,0,0,1,8,2.66a2.2,2.2,0,0,1,2.27,2.12c0,1.11,0,2.23,0,3.35a2.19,2.19,0,0,1-2.28,2.1A2.23,2.23,0,0,1,5.73,8.1c0-.29,0-.58,0-.86A1.75,1.75,0,0,0,3.33,9v2.82H40.22c0-1.12.05-2.24,0-3.34a1.47,1.47,0,0,0-1.48-1.31c-.25,0-.51,0-.84,0v.75a2.26,2.26,0,0,1-2.2,2.31A2.23,2.23,0,0,1,33.35,8c0-.26,0-.53,0-.85H13c-.74,0-1.08-.21-1.1-.69s.35-.74,1.1-.74h20.4c0-.36,0-.68,0-1a2.22,2.22,0,0,1,2.31-2.08,2.26,2.26,0,0,1,2.19,2.17c0,.28,0,.57,0,.85a12.88,12.88,0,0,1,1.47.14A2.94,2.94,0,0,1,41.7,8.73q0,8,0,16c0,.54-.3.89-.74.88s-.7-.33-.7-.9q0-5.37,0-10.76v-.59H3.33V39.13A1.66,1.66,0,0,0,5.24,41H25.68a.67.67,0,0,1,.67.67.72.72,0,0,1-.65.76,3.84,3.84,0,0,1-.48,0H5.31A3.05,3.05,0,0,1,2,40.14s-.05,0-.07,0ZM34.81,6.44c0,.51,0,1,0,1.53A.79.79,0,0,0,36.4,8c0-1,0-2.11,0-3.16a.79.79,0,0,0-.81-.78.81.81,0,0,0-.78.86C34.8,5.45,34.81,6,34.81,6.44Zm-26,0c0-.49,0-1,0-1.48A.83.83,0,0,0,8,4.1a.82.82,0,0,0-.82.83q0,1.53,0,3.06a.8.8,0,0,0,.84.8.81.81,0,0,0,.77-.86C8.8,7.43,8.79,6.94,8.79,6.44Z"/><path class="cls-1" d="M28,38.69A11.47,11.47,0,1,1,39.5,50.14,11.52,11.52,0,0,1,28,38.69Zm11.48-10a10,10,0,1,0,10,10A10,10,0,0,0,39.45,28.67Z"/><path class="cls-1" d="M26,20.22H16.79c-.73,0-1.09-.24-1.09-.72s.37-.74,1.11-.74H35.32c.65,0,1,.27,1,.74s-.36.72-1,.72Z"/><path class="cls-1" d="M23.32,26.43h6.51a3.08,3.08,0,0,1,.53,0,.72.72,0,0,1,0,1.41,1.91,1.91,0,0,1-.48,0H16.69c-.63,0-1-.28-1-.74s.36-.74,1-.74Z"/><path class="cls-1" d="M13.3,27.21a3,3,0,1,1-6-.09,3.06,3.06,0,0,1,3.05-3A3,3,0,0,1,13.3,27.21Zm-3-1.6a1.56,1.56,0,1,0,0,3.12,1.56,1.56,0,0,0,0-3.12Z"/><path class="cls-1" d="M13.3,19.5a3,3,0,0,1-3,3,3,3,0,1,1,3-3Zm-3.05,1.56a1.57,1.57,0,1,0,.05-3.14,1.61,1.61,0,0,0-1.6,1.57A1.58,1.58,0,0,0,10.25,21.06Z"/><path class="cls-1" d="M13.3,34.87a3,3,0,1,1-3-3A3,3,0,0,1,13.3,34.87Zm-3-1.59A1.58,1.58,0,0,0,8.7,34.84a1.6,1.6,0,0,0,1.6,1.57,1.57,1.57,0,0,0,1.56-1.55A1.55,1.55,0,0,0,10.29,33.28Z"/><path class="cls-1" d="M21,35.58H16.55c-.37,0-.71-.12-.78-.5a1.17,1.17,0,0,1,.2-.76.74.74,0,0,1,.55-.2h9a.73.73,0,0,1,.8.71.75.75,0,0,1-.82.74Z"/><path class="cls-1" d="M37.91,42.26,41.13,39Q42.66,37.49,44.2,36a.76.76,0,0,1,1.07-.14.7.7,0,0,1,0,1.09c-.35.39-.74.75-1.11,1.12l-5,5a1.53,1.53,0,0,1-2.48,0l-3-3a.72.72,0,0,1-.16-1,.66.66,0,0,1,.83-.3,1.31,1.31,0,0,1,.45.33Z"/></svg>