<?xml version="1.0" encoding="utf-8"?>
<!-- Generator: Adobe Illustrator 25.2.0, SVG Export Plug-In . SVG Version: 6.00 Build 0)  -->
<svg version="1.1" id="Layer_1" xmlns="http://www.w3.org/2000/svg" xmlns:xlink="http://www.w3.org/1999/xlink" x="0px" y="0px"
	 viewBox="0 0 20.4 20.4" style="enable-background:new 0 0 20.4 20.4;" xml:space="preserve">
<style type="text/css">
	.st0{fill:#FFFFFF;}
</style>
<path class="st0" d="M1.6,19.4c-0.4-0.1-0.6-0.5-0.6-0.9c0-2.4,0-4.8,0-7.3c0-0.1,0-0.3,0.1-0.4c0.1-0.2,0.3-0.3,0.5-0.3h3.2
	c0.3,0,0.4,0.1,0.4,0.3c0,0.2-0.1,0.3-0.4,0.3H1.5v0.6h17.3v-0.6H5.9c-0.1,0-0.2-0.1-0.2-0.3c0,0,0,0,0,0c0-0.1,0.1-0.2,0.2-0.2h4.7
	c0-0.1,0-0.3,0-0.4c0-0.3,0.3-0.6,0.6-0.7c0,0,0,0,0.1,0h6.6c0.4,0,0.7,0.3,0.7,0.6c0,0,0,0,0,0.1v0.4h0.4c0.3,0,0.5,0.2,0.5,0.5
	c0,0,0,0,0,0c0,0.1,0,0.2,0,0.2c0,2.4,0,4.8,0,7.2c0.1,0.4-0.2,0.8-0.6,0.9L1.6,19.4z M10.8,18.9h7.7c0.3,0,0.4,0,0.4-0.4v-6.3h-8
	L10.8,18.9z M5.7,18.9v-6.6H1.5c0,0,0,0,0,0.1v6.3c0,0.2,0.1,0.2,0.3,0.2L5.7,18.9L5.7,18.9z M10.3,18.9v-6.6h-4v6.6L10.3,18.9z
	 M11.2,10.6H18v-0.2c0-0.3,0-0.3-0.3-0.3h-6.1C11.1,10.1,11.1,10.1,11.2,10.6L11.2,10.6z"/>
<path class="st0" d="M18.9,19.5H1.5c-0.4-0.1-0.7-0.6-0.6-1v-7.2c0-0.1,0-0.3,0.1-0.4c0.1-0.2,0.3-0.3,0.5-0.3h3.2
	c0.4,0,0.4,0.2,0.4,0.3c0,0.1,0,0.2-0.1,0.2c-0.1,0.1-0.2,0.1-0.3,0.1H1.6v0.5h17.2v-0.5H5.9c-0.2,0-0.3-0.2-0.2-0.4
	c0-0.1,0.1-0.2,0.2-0.2h4.7v-0.1c0-0.1,0-0.2,0-0.3c0-0.4,0.3-0.7,0.7-0.7c0,0,0,0,0,0h6.6c0.4,0,0.7,0.3,0.7,0.7c0,0,0,0,0,0.1v0.4
	h0.3c0.3,0,0.5,0.2,0.5,0.5c0,0,0,0,0,0c0,0.1,0,0.1,0,0.2v2c0,1.7,0,3.5,0,5.3C19.5,19,19.2,19.4,18.9,19.5L18.9,19.5z M1.6,19.4
	h17.3c0.4-0.1,0.6-0.5,0.5-0.9v-7.2c0-0.1,0-0.1,0-0.2c0-0.2-0.2-0.4-0.4-0.4c0,0,0,0,0,0h-0.4v-0.4c0-0.3-0.3-0.6-0.6-0.6
	c0,0,0,0,0,0h-6.6c-0.3,0-0.6,0.3-0.6,0.6c0,0,0,0,0,0v0.4H5.9c-0.1,0-0.2,0.1-0.2,0.2c0,0.1,0.1,0.2,0.2,0.2c0,0,0,0,0,0h13v0.7
	H1.5v-0.7h3.3c0.1,0,0.2,0,0.3-0.1c0,0,0-0.1,0-0.1c0-0.1,0-0.2-0.3-0.2H1.5c-0.2,0-0.4,0.1-0.5,0.2c0,0.1-0.1,0.2,0,0.4v7.3
	C1,18.9,1.2,19.2,1.6,19.4z M3,18.9H1.8c-0.2,0-0.3-0.1-0.3-0.3v-6.3c0,0,0,0,0-0.1v-0.1h4.3v6.7H3z M1.6,12.3v6.3
	c0,0.2,0,0.2,0.2,0.2h3.8v-6.5H1.6z M18.5,18.9h-7.7v-6.7h8.1v6.3C18.9,18.9,18.9,18.9,18.5,18.9z M10.9,18.8h7.6
	c0.3,0,0.3,0,0.3-0.3v-6.2h-7.9V18.8z M10.3,18.9H6.2v-6.7h4.1V18.9z M6.3,18.8h3.9v-6.5H6.3L6.3,18.8z M18.1,10.6h-6.9l0,0
	c0-0.3-0.1-0.4,0-0.5s0.2-0.1,0.5-0.1h6.1c0.2,0,0.2,0,0.3,0.1s0,0.1,0,0.3V10.6z M11.2,10.5H18v-0.2c0-0.1,0-0.2,0-0.2
	c0,0-0.1,0-0.2,0h-6.1c-0.2,0-0.3,0-0.4,0.1C11.2,10.3,11.2,10.4,11.2,10.5L11.2,10.5z"/>
<path class="st0" d="M18,6.4V5.8h-7.2v0.7h3.9c0.1,0,0.2,0.1,0.2,0.2c0,0.1-0.1,0.2-0.2,0.3c0,0,0,0,0,0c-0.1,0-0.1,0-0.2,0h-3.7
	c-0.4,0-0.6-0.2-0.6-0.6V5.7c0-0.3,0.2-0.5,0.4-0.5c0,0,0,0,0,0c0.1,0,0.2-0.1,0.2-0.2c0.4-0.8,0.8-1.5,1.2-2.2
	c0-0.1,0.1-0.2,0.1-0.3c0-0.4,0-0.8,0-1.2S12.2,1,12.5,1h3.9c0.2,0,0.3,0.1,0.4,0.3s0,0.8,0,1.2c0,0.1,0,0.2,0.1,0.3
	c0.4,0.8,0.8,1.5,1.2,2.3c0,0.1,0.1,0.1,0.2,0.2c0.2,0.1,0.3,0.3,0.3,0.5v0.8c0,0.3-0.1,0.5-0.4,0.6c-0.1,0-0.1,0-0.2,0h-2.3
	c-0.1,0-0.3-0.1-0.2-0.3c0-0.1,0.1-0.2,0.3-0.2c0,0,0,0,0,0L18,6.4L18,6.4z M11.4,5.2h6l-1.1-2.1c0,0-0.1-0.1-0.1-0.1h-3.5
	c-0.1,0-0.2,0-0.2,0.1c-0.3,0.5-0.6,1.1-0.9,1.6C11.6,4.9,11.5,5,11.4,5.2z M16.2,1.5h-3.5v0.9h3.5L16.2,1.5z"/>
<path class="st0" d="M17.9,7h-2.1c-0.2,0-0.3-0.2-0.3-0.3c0-0.2,0.1-0.3,0.3-0.3c0,0,0,0,0,0H18V5.8h-7.2v0.6h3.9
	c0.1,0,0.3,0.1,0.3,0.3C15,6.8,14.9,7,14.8,7c-0.1,0-0.1,0-0.2,0h-3.7c-0.4,0-0.6-0.2-0.6-0.7V5.7c0-0.3,0.2-0.5,0.5-0.5
	c0.1,0,0.2-0.1,0.2-0.2l0.5-1c0.2-0.4,0.4-0.8,0.6-1.2c0-0.1,0.1-0.2,0.1-0.3V1.7c0-0.1,0-0.3,0-0.4c0-0.1,0-0.2,0.1-0.3
	c0.1-0.1,0.2-0.1,0.3-0.1h3.9c0.3,0,0.4,0.1,0.4,0.4s0,0.3,0,0.5s0,0.5,0,0.7c0,0.1,0,0.2,0.1,0.2c0.4,0.8,0.8,1.6,1.2,2.3
	c0,0.1,0.1,0.1,0.2,0.1c0.2,0.1,0.4,0.3,0.4,0.5v0.8C18.6,6.7,18.3,7,18,7c0,0,0,0,0,0H17.9z M17.6,6.9h0.1c0.1,0,0.2,0,0.3,0
	c0.2,0,0.5-0.2,0.5-0.4c0,0,0-0.1,0-0.1V5.7c0-0.2-0.1-0.4-0.3-0.4c-0.1,0-0.2-0.1-0.2-0.2l-1.2-2.3c0-0.1-0.1-0.2-0.1-0.3V1.8
	c0-0.2,0-0.3,0-0.5S16.6,1,16.4,1h-3.9c-0.1,0-0.2,0-0.2,0.1c0,0.1-0.1,0.1-0.1,0.2v0.4c0,0.2,0,0.5,0,0.8c0,0.1,0,0.2-0.1,0.3
	c-0.2,0.4-0.4,0.8-0.6,1.2s-0.4,0.7-0.5,1c0,0.1-0.2,0.2-0.3,0.2c-0.2,0-0.4,0.2-0.4,0.4c0,0,0,0,0,0v0.7c0,0.4,0.1,0.6,0.6,0.6h3.9
	c0.1,0,0.2-0.2,0.1-0.3c0-0.1-0.1-0.1-0.1-0.1h-4V5.7h7.3v0.8h-2.3c-0.1,0-0.2,0.1-0.2,0.2c0,0,0,0,0,0c0,0.1,0.1,0.2,0.2,0.2
	c0,0,0,0,0,0L17.6,6.9L17.6,6.9z M17.6,5.2h-6.2L11.5,5l0.2-0.3l0.2-0.5l0.6-1.2C12.5,3,12.6,3,12.7,3h3.5c0.1,0,0.2,0,0.2,0.1
	l0.9,1.7L17.6,5.2z M11.6,5.1h5.8l-0.2-0.3c-0.3-0.6-0.6-1.1-0.9-1.7c0,0-0.1-0.1-0.1-0.1h-3.5c-0.1,0-0.1,0-0.2,0.1L12,4.3
	l-0.2,0.5C11.7,4.9,11.7,5,11.6,5.1L11.6,5.1z M16.3,2.5h-3.6v-1h3.6L16.3,2.5z M12.8,2.4h3.4V1.6h-3.4V2.4z"/>
<path class="st0" d="M5.2,1.1h3.5c0.4,0,0.6,0.2,0.6,0.6v4.7C9.3,6.8,9.1,7,8.7,7H1.6C1.2,7,1,6.8,1,6.4V1.7c0-0.5,0.2-0.6,0.6-0.6
	H5.2z M5.4,6.4h3.3V1.6H5.4L5.4,6.4z M4.9,1.6H1.5v4.8h3.3L4.9,1.6z"/>
<path class="st0" d="M4.9,7H1.6C1.1,7,1,6.8,1,6.4V1.7C1,1.2,1.2,1,1.7,1h7c0.5,0,0.7,0.2,0.7,0.7v4.7C9.3,6.8,9.1,7,8.7,7L4.9,7z
	 M4.2,1.1H1.6C1.2,1.1,1,1.2,1,1.7v4.7c0,0.4,0.1,0.6,0.6,0.6h7.1c0.4,0,0.6-0.2,0.6-0.6V1.7c0-0.4-0.1-0.6-0.6-0.6L4.2,1.1L4.2,1.1
	z M8.8,6.5H5.4V1.6h3.4V6.5z M5.5,6.4h3.2V1.7H5.5V6.4z M4.9,6.5H1.5V1.6h3.4V6.5z M1.6,6.4h3.2V1.7H1.6V6.4z"/>
<path class="st0" d="M18.3,13.6c0,0.1,0,0.2,0,0.3c0,0.1-0.1,0.3-0.3,0.3c-0.1,0-0.3-0.1-0.3-0.2c0-0.2,0-0.4,0-0.7
	c0-0.1,0.1-0.2,0.2-0.2c0.1,0,0.3,0.1,0.3,0.3C18.3,13.3,18.3,13.4,18.3,13.6z"/>
<path class="st0" d="M18,14.2L18,14.2c-0.2,0-0.3-0.1-0.3-0.3c0-0.2,0-0.4,0-0.7c0-0.2,0.1-0.3,0.3-0.3l0,0c0.2,0,0.3,0.1,0.3,0.3
	v0.6C18.4,14,18.2,14.2,18,14.2C18.1,14.2,18.1,14.2,18,14.2z M18,13c-0.1,0-0.2,0.1-0.2,0.2c0,0.2,0,0.5,0,0.7
	c0,0.1,0.1,0.2,0.3,0.2c0.1,0,0.2-0.1,0.2-0.2c0-0.1,0-0.1,0-0.2v-0.1l0,0v-0.1c0-0.1,0-0.2,0-0.2C18.2,13.1,18.1,13,18,13
	C18,13,18,13,18,13z"/>
<path class="st0" d="M5.2,13.5c0,0.1,0,0.2,0,0.3c0,0.1-0.1,0.3-0.2,0.3c0,0,0,0,0,0c-0.1,0-0.3-0.1-0.3-0.3l0,0c0-0.2,0-0.4,0-0.6
	c0-0.1,0.1-0.2,0.3-0.2c0.1,0,0.3,0.1,0.3,0.3c0,0,0,0,0,0C5.2,13.3,5.2,13.4,5.2,13.5z"/>
<path class="st0" d="M4.9,14.2c-0.2,0-0.3-0.1-0.3-0.3c0-0.2,0-0.4,0-0.6c0-0.1,0-0.2,0.1-0.2c0.1-0.1,0.1-0.1,0.2-0.1
	c0.2,0,0.3,0.2,0.3,0.3c0,0.1,0,0.1,0,0.2c0,0,0,0.1,0,0.1v0.1c0,0.1,0,0.1,0,0.2C5.3,14,5.1,14.2,4.9,14.2
	C4.9,14.2,4.9,14.2,4.9,14.2L4.9,14.2z M4.9,13c-0.1,0-0.1,0-0.2,0.1c0,0-0.1,0.1-0.1,0.2c0,0.2,0,0.4,0,0.6c0,0.1,0.1,0.2,0.2,0.2
	c0,0,0,0,0,0c0.1,0,0.2-0.1,0.2-0.2c0,0,0,0,0,0v-0.4c0-0.1,0-0.1,0-0.2C5.2,13.1,5.1,13,4.9,13C5,13,5,13,4.9,13L4.9,13z"/>
<path class="st0" d="M9.7,13.5c0,0.1,0,0.2,0,0.3c0,0.1-0.1,0.2-0.2,0.2c-0.1,0-0.3-0.1-0.3-0.2c0,0,0,0,0,0c0-0.2,0-0.5,0-0.8
	c0-0.1,0.1-0.2,0.3-0.2c0,0,0,0,0,0c0.1,0,0.2,0.1,0.2,0.2c0,0,0,0,0,0C9.7,13.3,9.7,13.4,9.7,13.5z"/>
<path class="st0" d="M9.4,14.2c-0.1,0-0.1,0-0.2-0.1C9.2,14,9.1,14,9.1,13.9c0-0.2,0-0.5,0-0.8c0-0.2,0.1-0.3,0.3-0.3
	c0.2,0,0.3,0.1,0.3,0.3v0.7C9.7,14,9.6,14.1,9.4,14.2L9.4,14.2z M9.4,13c-0.1,0-0.2,0.1-0.2,0.2c0,0.2,0,0.5,0,0.7
	c0,0,0,0.1,0.1,0.1c0,0,0.1,0.1,0.2,0.1c0.1,0,0.2-0.1,0.2-0.2v-0.7C9.6,13.1,9.6,13,9.4,13L9.4,13z"/>
<path class="st0" d="M6.4,5.2c0,0.1,0,0.2,0,0.3c0,0.1-0.1,0.3-0.3,0.3c-0.1,0-0.3-0.1-0.3-0.2c0,0,0,0,0,0c0-0.2,0-0.4,0-0.6
	c0-0.1,0.1-0.3,0.2-0.3c0,0,0,0,0,0c0.1,0,0.3,0.1,0.3,0.3C6.5,4.9,6.4,5.1,6.4,5.2z"/>
<path class="st0" d="M6.2,5.8C6,5.8,5.9,5.7,5.9,5.5c0,0,0,0,0,0c0-0.2,0-0.4,0-0.6c0-0.2,0.1-0.3,0.3-0.3l0,0
	c0.2,0,0.3,0.1,0.3,0.3c0,0.1,0,0.2,0,0.2v0.1l0,0v0.1c0,0.1,0,0.2,0,0.2C6.5,5.7,6.4,5.8,6.2,5.8C6.2,5.8,6.2,5.8,6.2,5.8L6.2,5.8z
	 M6.2,4.6L6.2,4.6C6.1,4.6,6,4.7,6,4.8C6,5,6,5.2,6,5.5c0,0.1,0.1,0.2,0.2,0.2c0,0,0,0,0,0l0,0c0.1,0,0.2-0.1,0.2-0.2c0,0,0,0,0,0
	c0-0.1,0-0.1,0-0.2V5.2l0,0V5.1c0-0.1,0-0.1,0-0.2C6.4,4.7,6.3,4.6,6.2,4.6C6.2,4.6,6.2,4.6,6.2,4.6z"/>
<path class="st0" d="M3.8,5.2V4.8c0-0.1,0.1-0.3,0.2-0.3c0.1,0,0.3,0.1,0.3,0.2c0,0,0,0,0,0c0,0.2,0,0.5,0,0.7
	c0,0.1-0.1,0.2-0.3,0.2c0,0,0,0,0,0c-0.1,0-0.2-0.1-0.2-0.2c0,0,0,0,0,0C3.8,5.4,3.8,5.3,3.8,5.2z"/>
<path class="st0" d="M4.1,5.8L4.1,5.8c-0.2,0-0.3-0.1-0.3-0.3c0,0,0,0,0,0c0-0.1,0-0.2,0-0.2V4.8c0-0.2,0.1-0.3,0.3-0.3
	c0.1,0,0.2,0,0.2,0.1c0.1,0.1,0.1,0.1,0.1,0.2c0,0.2,0,0.5,0,0.7C4.4,5.7,4.3,5.8,4.1,5.8C4.1,5.8,4.1,5.8,4.1,5.8z M3.9,5.2v0.3
	c0,0.1,0.1,0.2,0.2,0.2c0,0,0,0,0,0c0.1,0,0.2-0.1,0.2-0.2c0,0,0,0,0,0c0-0.2,0-0.5,0-0.7c0-0.1,0-0.1-0.1-0.1c-0.1,0-0.1,0-0.2,0
	C4,4.7,3.9,4.8,3.9,4.9c0,0,0,0,0,0L3.9,5.2L3.9,5.2z"/>
</svg>
