<?xml version="1.0" encoding="utf-8"?>
<!-- Generator: Adobe Illustrator 25.2.0, SVG Export Plug-In . SVG Version: 6.00 Build 0)  -->
<svg version="1.1" id="Layer_1" xmlns="http://www.w3.org/2000/svg" xmlns:xlink="http://www.w3.org/1999/xlink" x="0px" y="0px"
	 viewBox="0 0 20.4 20.4" style="enable-background:new 0 0 20.4 20.4;" xml:space="preserve">
<style type="text/css">
	.st0{fill:#FFFFFF;}
</style>
<path class="st0" d="M19.3,6.9h0.1c0.1,0,0.2-0.1,0.2-0.2c0-0.4,0-0.8,0-1.3c0-0.1,0-0.2-0.2-0.2H19V2.8h0.3c0.3,0,0.3,0,0.3-0.3v-1
	c0-0.3,0-0.4-0.4-0.4H1c-0.2,0-0.2,0.1-0.2,0.2c0,0.4,0,0.8,0,1.2c0,0.1,0.1,0.2,0.2,0.2c0,0,0,0,0,0h0.4v2.5H1.1
	c-0.3,0-0.3,0-0.3,0.3v1c0,0.3,0,0.4,0.4,0.4L19.3,6.9z M1.2,2.4V1.5h18v0.9H1.2z M18.6,2.8v2.5h-3.4V2.8H18.6z M14.8,2.8v2.5h-4.4
	V2.8L14.8,2.8z M10,2.8v2.5H6V2.8H10z M5.6,2.8v2.5H1.8V2.8H5.6z M1.2,5.7h18v0.9h-18L1.2,5.7z"/>
<path class="st0" d="M19.6,12.2v-1c0-0.3,0-0.3-0.3-0.3h-2.6v-0.4c0-0.2,0-0.4,0-0.6s0-0.2-0.2-0.3h-4.4c-0.2,0-0.2,0.1-0.2,0.2v1
	H8.5v-1c0-0.2-0.1-0.3-0.3-0.3H3.9c-0.2,0-0.3,0-0.3,0.3v1H1c-0.2,0-0.2,0.1-0.2,0.2c0,0.4,0,0.8,0,1.2c0,0,0,0.2,0.2,0.2h0.4v6.4
	c0,0.3,0,0.3,0.3,0.3h16.9c0.3,0,0.3,0,0.3-0.3v-6.3h0.3C19.6,12.6,19.6,12.5,19.6,12.2z M12.3,10h4.1v0.9h-4.1V10z M4,10h4.1v0.9H4
	V10z M10,18.8H1.8v-6.2H10V18.8z M18.6,18.8h-8.2v-6.2h8.2V18.8z M19.2,12.1h-18v-0.8h18V12.1z"/>
<rect x="11" y="3.7" class="st0" width="0.4" height="0.7"/>
<rect x="6.5" y="3.7" class="st0" width="0.3" height="0.7"/>
<rect x="2.4" y="3.7" class="st0" width="0.3" height="0.7"/>
<rect x="15.8" y="3.7" class="st0" width="0.4" height="0.7"/>
<rect x="8.8" y="14.8" class="st0" width="0.3" height="1"/>
<rect x="11.3" y="14.8" class="st0" width="0.4" height="1"/>
</svg>
