<?xml version="1.0" encoding="utf-8"?>
<!-- Generator: Adobe Illustrator 25.2.0, SVG Export Plug-In . SVG Version: 6.00 Build 0)  -->
<svg version="1.1" id="Layer_1" xmlns="http://www.w3.org/2000/svg" xmlns:xlink="http://www.w3.org/1999/xlink" x="0px" y="0px"
	 viewBox="0 0 20.4 20.4" style="enable-background:new 0 0 20.4 20.4;" xml:space="preserve">
<style type="text/css">
	.st0{fill:#FFFFFF;}
</style>
<path class="st0" d="M0.9,12.1C1,12,1.1,12,1.3,12h2.1c-0.2-0.3-0.3-0.6-0.2-1V9.7c0-0.3,0.1-0.4,0.4-0.4h4.2c0.3,0,0.4,0.1,0.4,0.4
	v1.3c0,0.3,0,0.6-0.2,0.9h4.9c0-0.5,0-0.9,0-1.4c0-0.4,0.1-0.7,0.2-1C13.4,9,14,8.7,14.6,8.7c0.6,0,1.2,0.3,1.5,0.9
	c0.1,0.3,0.2,0.5,0.2,0.8c0,0.2-0.1,0.3-0.2,0.4c0,0,0,0,0,0c-0.2,0-0.3-0.1-0.3-0.3c0,0,0,0,0,0c0-0.6-0.5-1.2-1.2-1.2
	c-0.2,0-0.4,0.1-0.6,0.2c-0.4,0.3-0.7,0.8-0.6,1.3c0.2,0,0.6-0.1,0.6,0.3s-0.3,0.3-0.6,0.3V12h5.7c0.4,0,0.5,0.1,0.5,0.4v6.7
	c0,0.4-0.1,0.5-0.4,0.5H1.3c-0.2,0-0.3,0-0.4-0.2L0.9,12.1z M14.3,18.9v-6.4H6.1v6.4H14.3z M1.4,18.9h4.1v-3.5H1.5L1.4,18.9z
	 M19,15.5h-4.1v3.5H19V15.5z M4.7,12.5c-0.1,0.2-0.2,0.3-0.4,0.3H2.8c-0.2,0-0.4-0.1-0.5-0.3H1.5v2.3h4.1v-2.3H4.7z M14.9,14.9h4.1
	v-2.3h-0.9c-0.1,0.2-0.1,0.3-0.4,0.3h-1.5c-0.2,0-0.4,0-0.5-0.3h-0.9L14.9,14.9z M7.6,9.9H3.8v1.4c0,0.2,0.1,0.3,0.3,0.3h3.1
	c0.2,0,0.3-0.1,0.3-0.3C7.6,10.9,7.6,10.4,7.6,9.9z"/>
<path class="st0" d="M16.4,0.9c0.1,0.1,0.2,0.3,0.2,0.4v3.5c0,0.3-0.1,0.4-0.4,0.4h-12c-0.3,0-0.4-0.1-0.4-0.4V1.3
	C3.8,1.1,3.9,1,4,0.9H16.4z M4.4,1.5v3.2h5.5V1.5H4.4z M16,4.7V1.5h-5.5v3.2H16z"/>
<path class="st0" d="M4.6,5.8C4.8,5.8,5,6,4.9,6.2c0,0.2-0.1,0.4-0.3,0.6H4.6C4.3,6.9,4.3,7,4.6,7.2c0.4,0.2,0.5,0.7,0.3,1
	C4.8,8.3,4.7,8.4,4.6,8.5C4.4,8.5,4.4,8.6,4.3,8.8C4.3,8.9,4.2,9,4,9c0,0,0,0,0,0C3.9,9,3.8,8.8,3.8,8.7c0-0.2,0.1-0.4,0.3-0.6
	c0.3-0.2,0.3-0.3,0-0.5c-0.3-0.2-0.4-0.7-0.2-1C3.9,6.5,4,6.4,4.1,6.3C4.2,6.3,4.3,6.1,4.4,6C4.4,5.9,4.6,5.9,4.6,5.8z"/>
<path class="st0" d="M6.1,5.8c0.2,0,0.4,0.2,0.3,0.3c0,0.2-0.1,0.4-0.3,0.6l0,0C5.8,7,5.8,7,6,7.2c0.4,0.2,0.5,0.7,0.2,1
	C6.2,8.4,6.1,8.4,6,8.5C5.9,8.6,5.8,8.7,5.8,8.8C5.7,8.9,5.6,9,5.5,9C5.3,9,5.2,8.8,5.2,8.7c0-0.2,0.1-0.4,0.3-0.6L5.7,8
	c0.2-0.2,0.2-0.2,0-0.4C5.6,7.6,5.5,7.5,5.4,7.3C5.1,7,5.2,6.6,5.5,6.3C5.7,6.3,5.8,6.2,5.9,6C5.9,5.9,6,5.9,6.1,5.8z"/>
<path class="st0" d="M7.1,9C6.8,9,6.7,8.9,6.7,8.7c0-0.2,0.1-0.4,0.3-0.6c0.3-0.2,0.3-0.2,0-0.5c-0.3-0.2-0.4-0.7-0.2-1
	C6.9,6.5,7,6.4,7.1,6.3C7.2,6.3,7.3,6.1,7.3,6c0-0.1,0.2-0.2,0.3-0.2c0,0,0,0,0,0c0.2,0,0.3,0.2,0.2,0.3c0,0.2-0.2,0.4-0.3,0.6
	C7.2,6.9,7.2,7,7.5,7.2c0.3,0.2,0.4,0.7,0.2,1C7.7,8.3,7.6,8.4,7.5,8.5C7.4,8.5,7.3,8.7,7.2,8.8C7.2,8.9,7.1,9,7.1,9z"/>
<path class="st0" d="M10.2,16.9H6.8c-0.3,0-0.4-0.1-0.4-0.4v-2.7c0-0.3,0.1-0.4,0.4-0.4h6.8c0.3,0,0.4,0.1,0.4,0.4v2.7
	c0,0.3-0.1,0.4-0.4,0.4H10.2z M7,16.3h6.4V14H7V16.3z"/>
<path class="st0" d="M10.2,17.8h1.6c0.1,0,0.1,0,0.2,0s0.2,0.2,0.2,0.3s-0.1,0.2-0.2,0.3s-0.1,0-0.2,0H8.4c-0.2,0-0.3-0.1-0.3-0.3
	c0-0.2,0.1-0.3,0.3-0.3h0L10.2,17.8L10.2,17.8z"/>
<path class="st0" d="M7,3.5H5.9c-0.2,0-0.4-0.1-0.4-0.3s0.1-0.3,0.4-0.3h2.2c0.2,0,0.4,0.1,0.4,0.3S8.3,3.5,8.1,3.5H7z"/>
<path class="st0" d="M13.4,3.5h-1.1c-0.2,0-0.4-0.1-0.4-0.3s0.1-0.3,0.4-0.3h2.2c0.2,0,0.4,0.1,0.4,0.3s-0.1,0.3-0.4,0.3H13.4z"/>
</svg>
