<?xml version="1.0" encoding="utf-8"?>
<!-- Generator: Adobe Illustrator 25.2.0, SVG Export Plug-In . SVG Version: 6.00 Build 0)  -->
<svg version="1.1" id="Layer_1" xmlns="http://www.w3.org/2000/svg" xmlns:xlink="http://www.w3.org/1999/xlink" x="0px" y="0px"
	 viewBox="0 0 20.4 20.4" style="enable-background:new 0 0 20.4 20.4;" xml:space="preserve">
<style type="text/css">
	.st0{fill:#FFFFFF;}
</style>
<path class="st0" d="M0.9,9.9C1,9.6,1.3,9.4,1.6,9.4c0.5,0,1,0,1.5,0V9C2.6,8.9,2.4,8.4,2.5,8c0,0,0-0.1,0-0.1
	c0-0.1,0.2-0.2,0.3-0.2C2.9,7.7,3,7.9,3,8c0,0.1,0,0.2,0,0.3c0,0.2,0.1,0.2,0.2,0.2H7c0.3,0,0.3,0,0.3-0.3c0-0.1,0-0.1,0-0.2
	c0-0.1,0.1-0.2,0.3-0.2c0,0,0,0,0,0c0.1,0,0.3,0.1,0.3,0.2c0,0,0,0,0,0c0,0.1,0,0.3,0,0.4c0,0.2-0.2,0.4-0.4,0.5
	C7.2,9,7.2,9.1,7.2,9.2c0,0.1,0,0.2,0,0.2h8.6c0.1,0,0.1,0,0.2,0c0.1,0,0.2,0.1,0.2,0.3c0,0,0,0,0,0c0,0.1-0.1,0.2-0.2,0.2H1.4v0.7
	H19V10h-1.8c-0.1,0-0.3-0.1-0.3-0.2c0,0,0,0,0,0c0-0.1,0.1-0.3,0.3-0.3c0,0,0,0,0,0H19c0.3,0,0.6,0.2,0.6,0.5c0,0,0,0,0,0
	c0,0.2,0,0.4,0,0.6c0,0.3-0.2,0.6-0.5,0.6c0,0-0.1,0-0.1,0h-0.3v0.2c0,2.4,0,4.8,0,7.1c0,0.5-0.3,0.9-0.8,0.9c0,0-0.1,0-0.1,0H2.6
	c-0.5,0-0.9-0.3-0.9-0.8c0,0,0-0.1,0-0.1c0-2.4,0-4.8,0-7.1v-0.2c-0.3,0.1-0.7-0.1-0.9-0.4L0.9,9.9z M10.5,14.9h7.6v-3.6h-7.6
	L10.5,14.9z M18.1,15.4h-7.5c-0.1,0-0.2,0-0.2,0.2v3.2c0,0,0,0.1,0,0.2h7.3c0.2,0,0.3-0.1,0.3-0.3c0-0.6,0-1.2,0-1.8L18.1,15.4z
	 M2.3,11.2c0,0.1,0,0.1,0,0.2v7.2c0,0.3,0.1,0.3,0.3,0.3h7.3c0,0,0-0.1,0-0.1c0-2.5,0-4.9,0-7.4c0-0.2-0.1-0.2-0.2-0.2H2.3z
	 M3.6,9.4h3V9h-3L3.6,9.4z"/>
<path class="st0" d="M19,0.9c0.4,0.1,0.7,0.6,0.6,1c0,1.5,0,3,0,4.6c0.1,0.4-0.2,0.8-0.7,0.9c-0.1,0-0.1,0-0.2,0c-2.4,0-4.9,0-7.3,0
	C11,7.3,10.6,7,10.5,6.6c0-0.1,0-0.1,0-0.2c0-1.5,0-3,0-4.5c-0.1-0.4,0.2-0.9,0.6-1L19,0.9z M14.8,1.4h-3.4c-0.3,0-0.3,0-0.3,0.3
	v4.6c0,0.3,0,0.3,0.3,0.3h3.4L14.8,1.4z M15.4,6.7h3.4C19,6.7,19,6.6,19,6.4V1.7c0-0.3,0-0.3-0.3-0.3h-3.4L15.4,6.7z"/>
<path class="st0" d="M0.9,3.2c0.1-0.3,0.4-0.5,0.7-0.4c0.1,0,0.3,0,0.3-0.1c0,0,0,0,0-0.1C2,2,2.5,1.7,3,1.7c1.5,0,3.1,0,4.6,0
	c0.6,0,1,0.4,1.2,0.9c0,0,0,0.1,0,0.2h0.4c0.3,0,0.6,0.2,0.6,0.5c0,0,0,0,0,0.1c0,0.2,0,0.3,0,0.5c0,0.3-0.2,0.5-0.5,0.6
	c0,0,0,0,0,0H1.5c-0.3,0-0.6-0.1-0.7-0.4L0.9,3.2z M1.4,3.8h7.9V3.3h-5C4.1,3.3,4,3.1,4.1,3c0-0.1,0.1-0.3,0.2-0.3
	c0.1,0,0.1,0,0.2,0h3.8C8.2,2.4,7.9,2.2,7.6,2.2H3.1c-0.3,0-0.6,0.2-0.7,0.5h0.8c0.1,0,0.3,0.1,0.3,0.3c0,0.1-0.1,0.3-0.3,0.3
	c0,0,0,0,0,0H1.4L1.4,3.8z"/>
<path class="st0" d="M14.3,12.2h-0.7c-0.2,0-0.3-0.1-0.3-0.3s0.1-0.3,0.3-0.3H15c0.2,0,0.3,0.1,0.3,0.3c0,0.1-0.1,0.3-0.3,0.3
	c0,0,0,0-0.1,0H14.3z"/>
<path class="st0" d="M14.3,16H15c0.2,0,0.3,0.1,0.3,0.3s-0.1,0.3-0.3,0.3h-1.4c-0.2,0-0.3-0.1-0.3-0.3s0.1-0.3,0.3-0.3H14.3z"/>
<path class="st0" d="M6.1,18.4H3.5c-0.3,0-0.5-0.2-0.6-0.4c0-0.1,0-0.1,0-0.2v-3.4c0-0.3,0.2-0.5,0.4-0.6c0.1,0,0.1,0,0.2,0h5.3
	c0.3,0,0.5,0.2,0.6,0.4c0,0.1,0,0.1,0,0.2v3.4c0,0.4-0.2,0.6-0.6,0.6H6.1z M8.8,17.9v-3.4H3.5v3.4L8.8,17.9z"/>
<path class="st0" d="M2.9,12.6c0-0.5,0.4-0.9,0.9-0.9s0.9,0.4,0.9,0.9s-0.4,0.9-0.9,0.9S2.9,13.1,2.9,12.6L2.9,12.6z M3.8,12.2
	c-0.2,0-0.3,0.1-0.3,0.3c0,0,0,0,0,0c0,0.2,0.2,0.3,0.3,0.4c0.2,0,0.3-0.2,0.3-0.3C4.1,12.4,4,12.2,3.8,12.2z"/>
<path class="st0" d="M6.1,11.7c0.5,0,0.9,0.4,0.9,0.9c0,0,0,0,0,0c0.1,0.5-0.3,0.9-0.8,1s-0.9-0.3-1-0.8c0-0.1,0-0.1,0-0.2
	C5.3,12.1,5.7,11.7,6.1,11.7z M6.1,12.9c0.2,0,0.3-0.2,0.3-0.4c0-0.2-0.2-0.3-0.4-0.3c-0.2,0-0.3,0.1-0.3,0.3c0,0,0,0,0,0
	C5.8,12.8,5.9,12.9,6.1,12.9C6.1,12.9,6.1,12.9,6.1,12.9L6.1,12.9z"/>
<path class="st0" d="M14.2,4.1v0.6c0,0.2-0.1,0.3-0.3,0.3c-0.1,0-0.3-0.1-0.3-0.2c0,0,0,0,0,0V3.5c0-0.1,0.1-0.3,0.2-0.3
	c0,0,0,0,0,0c0.2,0,0.3,0.1,0.3,0.3c0,0,0,0,0,0V4.1z"/>
<path class="st0" d="M15.9,4.1V3.5c0-0.2,0.1-0.3,0.3-0.3c0,0,0,0,0,0c0.2,0,0.3,0.1,0.3,0.3c0,0,0,0,0,0v1.2c0,0.1-0.1,0.3-0.2,0.3
	c0,0,0,0-0.1,0c-0.2,0-0.3-0.1-0.3-0.3V4.1z"/>
</svg>
