<?xml version="1.0" encoding="utf-8"?>
<!-- Generator: Adobe Illustrator 25.2.0, SVG Export Plug-In . SVG Version: 6.00 Build 0)  -->
<svg version="1.1" id="Layer_1" xmlns="http://www.w3.org/2000/svg" xmlns:xlink="http://www.w3.org/1999/xlink" x="0px" y="0px"
	 viewBox="0 0 20.4 20.4" style="enable-background:new 0 0 20.4 20.4;" xml:space="preserve">
<style type="text/css">
	.st0{fill:#FFFFFF;}
</style>
<path class="st0" d="M19.3,18.5c0.2,0,0.3,0,0.3-0.3V9.3c0-0.2,0-0.3-0.3-0.3H1.1C1,9,0.9,9.1,0.9,9.1v2.4c0.1,0.1,0.1,0.1,0.2,0.1
	s0.1-0.1,0.1-0.2v-0.9h18v7.7h-18v-5.3c0-0.2,0-0.2-0.1-0.3s-0.1,0-0.2,0.1v5.7c0.1,0.1,0.2,0.1,0.3,0.1H19.3z M1.2,10.1V9.4h18v0.8
	H1.2z"/>
<path class="st0" d="M1.1,18.6c-0.1,0-0.3,0-0.4-0.1l0,0v-5.8l0,0c0.1-0.1,0.2-0.2,0.3-0.1s0.2,0.2,0.2,0.4v5.2h17.8v-7.5H1.3v0.3
	c0,0.2,0,0.4,0,0.6c0,0.2,0,0.3-0.2,0.3c-0.1,0-0.3,0-0.3-0.1V9.1l0,0C0.8,9,1,8.9,1.1,9h18.2c0.3,0,0.4,0.1,0.4,0.4v8.9
	c0,0.3-0.1,0.4-0.4,0.4L1.1,18.6z M1,18.4c0,0,0.1,0,0.2,0h18.1c0.2,0,0.2,0,0.2-0.2V9.3c0-0.2,0-0.2-0.2-0.2H1.1
	c-0.1,0-0.1,0-0.2,0v2.3c0,0.1,0.1,0.1,0.1,0s0,0,0-0.1v-1h18.2v7.9H1.1v-5.4c0-0.1,0-0.2,0-0.2s0,0-0.1,0L1,18.4z M19.4,10.2H1.1
	v-1h18.2L19.4,10.2z M1.4,10h17.8V9.5H1.3L1.4,10z"/>
<path class="st0" d="M17.6,1.9H2.7V3c0,0.1,0.1,0.1,0.2,0.1h2.7v0.5c0,0.2,0,0.4,0,0.7c0,0.2-0.1,0.3-0.2,0.3c0,0,0,0,0,0
	C4.8,4.7,4.5,5.2,4.5,5.8C4.4,5.9,4.5,6,4.7,6H5c0.1,0,0.2,0.1,0.2,0.2c0,0.2,0.2,0.4,0.5,0.5c0.2,0.1,0.5-0.1,0.6-0.3
	C6.3,6.1,6.5,6,6.8,6c0,0,0,0,0,0C7,6,7.1,5.9,7.1,5.7c0,0,0,0,0,0c0-0.6-0.4-1-1-1.1c-0.1,0-0.2-0.1-0.2-0.3c0,0,0,0,0,0
	c0-0.2,0-0.5,0-0.7V3.3c0,0,0-0.1,0-0.1V3.1H10v0.4c0,0.3,0,0.6,0,0.8c0,0.1-0.1,0.3-0.2,0.3c0,0,0,0,0,0C9.2,4.7,8.8,5.2,8.8,5.8
	C8.8,5.9,8.9,6,9,6c0,0,0.1,0,0.1,0h0.3c0.1,0,0.2,0.1,0.2,0.2c0,0,0,0,0,0c0,0.3,0.3,0.5,0.6,0.5l0,0c0.3,0,0.5-0.2,0.6-0.5
	C10.8,6.1,10.9,6,11,6h0.3c0.1,0,0.2-0.1,0.2-0.2c0,0,0,0,0,0c0-0.6-0.4-1.1-1-1.2c-0.1,0-0.2-0.1-0.2-0.2c0,0,0,0,0,0
	c0-0.1,0-0.2,0-0.3v-1H13c0,0,0.1,0,0.1-0.1c0-0.1,0-0.1-0.1-0.1c0,0,0,0-0.1,0H3V2.2h14.4v0.6h-3.3c-0.2,0-0.2,0.1-0.2,0.1
	c0,0,0,0.1,0,0.1c0,0,0.2,0,0.4,0h0.3v0.4c0,0.3,0,0.5,0,0.8c0,0.1,0,0.3-0.2,0.3c-0.5,0.1-0.9,0.6-0.9,1.1c0,0.1,0.1,0.2,0.2,0.3
	c0,0,0,0,0,0h0.3C14,6,14,6,14.1,6.2c0.1,0.3,0.4,0.5,0.7,0.5c0.2,0,0.3-0.1,0.4-0.3c0,0,0-0.1,0-0.1c0-0.1,0.1-0.2,0.1-0.2
	c0.1,0,0.2,0,0.3,0h0.1c0.1,0.1,0.3,0,0.3-0.1c0,0,0-0.1,0-0.1c0-0.1,0-0.2,0-0.3c-0.1-0.5-0.5-0.8-1-0.9c-0.1,0-0.2-0.1-0.2-0.2
	c0,0,0,0,0,0V3h2.7c0.2,0,0.2,0,0.2-0.2c0-0.1,0-0.2,0-0.2c0-0.2,0-0.3,0-0.5C17.7,2,17.7,1.9,17.6,1.9z M10.5,6.1
	c0,0.3-0.2,0.3-0.3,0.3l0,0c-0.2,0-0.3-0.1-0.3-0.3V6h0.6L10.5,6.1z M10.2,4.8c0.5,0,0.9,0.3,1,0.8v0.1H9.2V5.7
	C9.2,5.2,9.7,4.8,10.2,4.8L10.2,4.8z M6.1,6.1c0,0.2-0.1,0.3-0.3,0.3l0,0c-0.1,0-0.3,0-0.3-0.3V6h0.6L6.1,6.1z M5.7,4.8
	c0.6,0,1,0.3,1.1,0.8v0.1h-2V5.7C4.8,5.2,5.3,4.8,5.7,4.8C5.8,4.8,5.8,4.8,5.7,4.8L5.7,4.8z M14.7,6.4L14.7,6.4c-0.1,0-0.2,0-0.2,0
	c-0.1-0.1-0.1-0.2-0.1-0.2V6h0.6v0.1C15,6.2,14.9,6.4,14.7,6.4C14.7,6.4,14.7,6.4,14.7,6.4z M15.7,5.7L15.7,5.7l-2.1,0.1V5.7
	c0.1-0.5,0.5-0.9,1-0.8l0,0C15.1,4.8,15.6,5.1,15.7,5.7C15.7,5.6,15.7,5.6,15.7,5.7z"/>
<path class="st0" d="M14.6,6.8h-0.1C14.2,6.7,14,6.5,14,6.2c0-0.1-0.1-0.1-0.1-0.1c-0.1,0-0.2,0-0.3,0c-0.2,0-0.3-0.2-0.3-0.3
	c0,0,0,0,0,0c0-0.6,0.4-1.1,1-1.2c0.1,0,0.2-0.1,0.2-0.2s0-0.5,0-0.8V3.2h-0.2c-0.2,0-0.4,0-0.4-0.1c0,0-0.1-0.1-0.1-0.2
	c0-0.2,0.1-0.2,0.3-0.2h3.2V2.3H3.1v0.4h10c0.1,0,0.2,0.1,0.2,0.2c0,0,0,0,0,0c0,0.1-0.1,0.2-0.2,0.2h-2.7v1c0,0.1,0,0.2,0,0.2
	c0,0.1,0,0.1,0.1,0.1c0.5,0.1,0.9,0.5,1,1c0,0.1,0,0.2,0,0.3c0,0.2-0.1,0.3-0.3,0.3c0,0,0,0,0,0H11c-0.1,0-0.1,0-0.1,0.1
	c0,0.3-0.3,0.6-0.7,0.6c-0.3,0-0.6-0.2-0.7-0.6c0-0.1,0-0.1-0.1-0.1c-0.1,0-0.2,0-0.3,0C8.9,6.1,8.8,6,8.8,5.8c0-0.6,0.4-1.1,1-1.2
	c0.1,0,0.2-0.1,0.2-0.2s0-0.5,0-0.8V3.2H6l0,0c0,0,0,0.1,0,0.1v0.5C6,4,6,4.1,6,4.3s0,0.1,0.1,0.2c0.6,0.1,1,0.6,1,1.2
	c0,0.2-0.1,0.4-0.3,0.4c0,0,0,0-0.1,0l0,0c-0.2,0-0.4,0-0.4,0.3C6.2,6.7,5.9,6.8,5.7,6.8c-0.3,0-0.5-0.3-0.6-0.6
	c0-0.1,0-0.1-0.1-0.1H4.7C4.5,6.1,4.3,6,4.3,5.8c0,0,0,0,0,0c0-0.6,0.4-1.1,1-1.2c0.2,0,0.2-0.1,0.2-0.2s0-0.5,0-0.7V3.2H3
	c-0.1,0-0.3,0-0.4-0.2V1.8h15l0,0c0.1,0.1,0.1,0.2,0.1,0.3c0,0.1,0,0.2,0,0.4v0.4c0,0.2-0.1,0.3-0.3,0.3h-2.6v1.2
	c0,0.1,0,0.1,0.1,0.1c0.5,0.1,0.9,0.5,1,1c0,0.1,0,0.2,0,0.3c0,0.2-0.1,0.3-0.3,0.3c0,0,0,0,0,0h-0.1c-0.1,0-0.2,0-0.2,0
	s-0.1,0.1-0.1,0.2c0,0.1,0,0.1-0.1,0.2C15.1,6.7,14.9,6.8,14.6,6.8z M13.9,5.9c0.2,0,0.3,0.1,0.3,0.3c0,0,0,0,0,0
	c0,0.2,0.2,0.3,0.4,0.4c0.2,0,0.4,0,0.5-0.2c0,0,0-0.1,0-0.1c0-0.1,0.1-0.2,0.2-0.3c0.1-0.1,0.2-0.1,0.3-0.1h0.1
	c0.1,0,0.1,0,0.1-0.1c0-0.1,0-0.2,0-0.2c-0.1-0.4-0.4-0.7-0.8-0.8c-0.2,0-0.3-0.2-0.3-0.3c0,0,0,0,0,0V3h2.9c0,0,0-0.1,0-0.1
	c0-0.1,0-0.2,0-0.2V2.5c0-0.1,0-0.2,0-0.4c0,0,0-0.1,0-0.1H2.8v0.9C2.9,3,2.9,3,3,3c0.5,0,1,0,1.4,0h1.3v0.6c0,0.2,0,0.4,0,0.7
	c0,0.2-0.1,0.4-0.3,0.4c0,0,0,0,0,0c-0.5,0.1-0.8,0.5-0.8,1c0,0.1,0,0.1,0.1,0.1c0,0,0,0,0,0H5c0.2,0,0.3,0.1,0.3,0.3
	c0,0.2,0.2,0.4,0.4,0.4c0.2,0,0.4,0,0.5-0.2c0-0.3,0.3-0.5,0.6-0.4c0,0,0,0,0.1,0C7,5.9,7,5.8,7,5.7c0-0.5-0.4-0.9-0.9-1
	c-0.2,0-0.3-0.2-0.3-0.4c0,0,0,0,0,0c0-0.2,0-0.4,0-0.6V3.3c0,0,0-0.1,0-0.1V3h4.3v0.6c0,0.2,0,0.5,0,0.7c0,0.2-0.1,0.4-0.3,0.4
	c0,0,0,0,0,0C9.4,4.8,9,5.2,9,5.7c0,0.1,0,0.1,0.1,0.2c0,0,0,0,0,0h0.3c0.2,0,0.3,0.1,0.3,0.3c0,0,0,0,0,0c0,0.3,0.2,0.5,0.5,0.5
	s0.5-0.2,0.5-0.5l0,0c0-0.2,0.2-0.2,0.3-0.2h0.3c0.1,0,0.1,0,0.1-0.1c0-0.1,0-0.2,0-0.2c-0.1-0.4-0.4-0.8-0.9-0.8
	c-0.2,0-0.3-0.2-0.3-0.3c0,0,0,0,0,0c0-0.1,0-0.2,0-0.2V3H13c0.1,0,0.1,0,0.1,0l0,0H2.9V2.1h14.6v0.8h-3.4c-0.1,0-0.1,0-0.1,0l0,0
	c0.1,0,0.2,0,0.3,0h0.4v0.5c0,0.3,0,0.5,0,0.8c0,0.2-0.1,0.4-0.3,0.4c0,0,0,0,0,0c-0.5,0.1-0.8,0.5-0.9,1c0,0.1,0,0.1,0.1,0.2
	c0,0,0,0,0,0h0.3V5.9z M10.2,6.5c-0.2,0-0.4-0.2-0.4-0.4c0,0,0,0,0,0V5.9h0.8v0.2C10.6,6.3,10.5,6.5,10.2,6.5
	C10.2,6.5,10.2,6.5,10.2,6.5z M10,6.1c0,0.2,0.1,0.2,0.2,0.2s0.2-0.1,0.2-0.2H10z M5.8,6.5c-0.2,0-0.4-0.2-0.4-0.4c0,0,0,0,0,0V5.9
	h0.8v0.2C6.2,6.3,6,6.5,5.8,6.5C5.8,6.5,5.8,6.5,5.8,6.5L5.8,6.5z M5.6,6.1c0,0.1,0.1,0.2,0.2,0.2s0.2,0,0.2-0.2H5.6z M14.6,6.5
	c-0.1,0-0.2,0-0.2-0.1c-0.1-0.1-0.2-0.2-0.2-0.3V5.9H15v0.2c0,0.2-0.1,0.4-0.3,0.4C14.7,6.5,14.7,6.5,14.6,6.5L14.6,6.5L14.6,6.5z
	 M14.4,6.1c0,0.1,0,0.1,0.1,0.2c0,0,0.1,0,0.1,0c0.1,0,0.2-0.1,0.2-0.2c0,0,0,0,0,0L14.4,6.1z M6.9,5.8H4.6V5.7c0-0.5,0.5-0.9,1-0.9
	l0,0c0.7,0,1.1,0.4,1.2,0.9L6.9,5.8z M4.8,5.7h1.8c0-0.4-0.4-0.7-1-0.7l0,0C5.3,4.9,4.9,5.2,4.8,5.7z M11.4,5.8H9.1V5.6
	c0-0.6,0.5-1,1.1-0.9c0,0,0,0,0.1,0l0,0c0.5-0.1,1,0.3,1.1,0.9c0,0,0,0,0,0L11.4,5.8z M9.3,5.7h1.9c-0.1-0.4-0.5-0.8-0.9-0.7l0,0
	C9.8,4.9,9.3,5.2,9.3,5.7z M15.8,5.8h-2.3V5.6c0.1-0.5,0.5-1,1.1-0.9c0,0,0,0,0,0c0.5-0.1,1.1,0.3,1.1,0.8c0,0,0,0,0,0.1L15.8,5.8z
	 M13.7,5.7h1.9c-0.1-0.4-0.4-0.7-0.9-0.7C14.2,4.9,13.8,5.2,13.7,5.7z"/>
<path class="st0" d="M9.5,11.3H2.3c-0.3,0-0.3,0-0.3,0.3v5.5c0,0.3,0,0.3,0.3,0.3h7.2c0.3,0,0.3,0,0.3-0.3v-5.5
	C9.8,11.3,9.8,11.3,9.5,11.3z M9.5,17H2.3v-5.4h7.2L9.5,17z"/>
<path class="st0" d="M9.5,17.5H2.3c-0.3,0-0.4-0.1-0.4-0.4v-5.5c0-0.3,0.1-0.4,0.4-0.4h7.2c0.3,0,0.4,0.1,0.4,0.4v5.5
	C9.9,17.4,9.8,17.5,9.5,17.5z M5.9,11.4H2.3c-0.2,0-0.2,0-0.2,0.2v5.5c0,0.2,0,0.2,0.2,0.2h7.2c0.2,0,0.2,0,0.2-0.2v-5.5
	c0-0.2,0-0.2-0.2-0.2H5.9z M9.6,17.1H2.2v-5.6h7.4V17.1z M2.4,17h7v-5.3h-7L2.4,17z"/>
<path class="st0" d="M18.1,11.3h-7.3c-0.3,0-0.3,0-0.3,0.3v5.5c0,0.3,0,0.3,0.3,0.3h5.2c0.1,0,0.1-0.1,0.1-0.2s0-0.1-0.1-0.2h-5.2
	v-5.5h7.2v5.5h-0.8c-0.2,0-0.2,0.1-0.2,0.2c0,0,0,0.1,0,0.1c0,0,0.1,0.1,0.2,0.1h0.8c0.3,0,0.3,0,0.3-0.3v-5.5
	C18.4,11.3,18.4,11.3,18.1,11.3z"/>
<path class="st0" d="M13.4,17.5h-2.5c-0.3,0-0.4-0.1-0.4-0.4v-5.5c0-0.3,0.1-0.4,0.4-0.4h7.3c0.3,0,0.4,0.1,0.4,0.4v5.5
	c0,0.3-0.1,0.4-0.4,0.4h-0.8c-0.1,0-0.2,0-0.2-0.1c0,0-0.1-0.1-0.1-0.2c0-0.2,0.1-0.2,0.3-0.3H18v-5.3h-7V17h5.1
	c0.1,0,0.3,0.1,0.3,0.3s-0.1,0.3-0.3,0.3L13.4,17.5L13.4,17.5z M16,17.3h0.1c0.1,0,0.1,0,0.1-0.1s0,0-0.1-0.1h-5.3v-5.7h7.4v5.7
	h-0.9c-0.1,0-0.1,0-0.1,0.1l0,0c0,0,0.1,0,0.1,0h0.8c0.2,0,0.2,0,0.2-0.2v-5.5c0-0.2,0-0.2-0.2-0.2h-7.2c-0.2,0-0.2,0-0.2,0.2v5.5
	c0,0.2,0,0.2,0.2,0.2L16,17.3z"/>
</svg>
