<?xml version="1.0" encoding="utf-8"?>
<!-- Generator: Adobe Illustrator 25.2.0, SVG Export Plug-In . SVG Version: 6.00 Build 0)  -->
<svg version="1.1" id="Layer_1" xmlns="http://www.w3.org/2000/svg" xmlns:xlink="http://www.w3.org/1999/xlink" x="0px" y="0px"
	 viewBox="0 0 20.4 20.4" style="enable-background:new 0 0 20.4 20.4;" xml:space="preserve">
<style type="text/css">
	.st0{fill:#FFFFFF;}
</style>
<path class="st0" d="M10.2,10.7h8.3c0.5,0,1,0.3,1.1,0.8c0,0.1,0,0.2,0,0.3v6.5c0.1,0.5-0.4,1-0.9,1.1c-0.1,0-0.1,0-0.2,0H1.9
	c-0.6,0-1-0.4-1.1-0.9c0-0.1,0-0.1,0-0.2v-6.5c-0.1-0.5,0.4-1,0.9-1.1c0.1,0,0.1,0,0.2,0H10.2z M6.9,11.2h-5c-0.5,0-0.7,0.2-0.7,0.7
	v6.4c0,0.5,0.2,0.7,0.7,0.7h5L6.9,11.2z M13.6,11.2v7.8h4.9c0.5,0,0.7-0.2,0.7-0.7v-6.4c0-0.5-0.2-0.7-0.7-0.7H13.6z M7.4,15.7v3.2
	h5.7v-3.2H7.4z M7.4,15.2h5.7v-1.9H7.4V15.2z M7.4,12.8h5.7v-1.6H7.4V12.8z"/>
<path class="st0" d="M10.2,19.5H1.9c-0.6,0-1.1-0.4-1.1-1c0-0.1,0-0.1,0-0.2v-6.5c-0.1-0.5,0.3-1.1,0.8-1.1c0.1,0,0.2,0,0.3,0h16.7
	c0.5,0,1,0.3,1.1,0.8c0,0.1,0,0.2,0,0.3v6.5c0.1,0.6-0.4,1.1-1,1.1c-0.1,0-0.1,0-0.2,0H10.2z M6.1,10.8H1.9c-0.6,0-1,0.4-1,1v6.5
	c0,0.6,0.4,1,1,1h16.7c0.6,0,1-0.4,1-1v-6.5c0-0.1,0-0.2,0-0.3c-0.1-0.5-0.5-0.8-1-0.7H6.1z M18.5,19h-5v-7.9h5
	c0.5,0,0.7,0.2,0.7,0.7v6.4C19.2,18.8,19,19,18.5,19z M13.7,18.9h4.9c0.5,0,0.6-0.2,0.6-0.6v-6.4c0-0.5-0.2-0.6-0.6-0.6h-4.9V18.9z
	 M6.7,19H1.9c-0.5,0-0.7-0.2-0.7-0.7v-6.4c0-0.5,0.2-0.7,0.7-0.7H7V19H6.7z M6.7,11.2H1.9c-0.4,0-0.6,0.2-0.6,0.6v6.4
	c0,0.5,0.2,0.6,0.6,0.6h5v-7.7L6.7,11.2z M13.2,19H7.4v-3.4h5.8V19z M7.5,18.9h5.6v-3.2H7.5L7.5,18.9z M13.2,15.3H7.4v-2h5.8V15.3z
	 M7.5,15.2h5.6v-1.9H7.5L7.5,15.2z M13.2,12.9H7.4v-1.7h5.8V12.9z M7.5,12.8h5.6v-1.5H7.5L7.5,12.8z"/>
<path class="st0" d="M8.6,4.5H7.2v1.2c0,0.1,0,0.3-0.2,0.3C7,6,7,6,7,6H1.2C0.8,6,0.7,5.9,0.7,5.5v-4C0.7,1.1,0.8,1,1.2,1h18
	c0.4,0,0.5,0.1,0.5,0.5v4c0,0.3-0.1,0.4-0.5,0.4h-5.7c-0.3,0-0.4-0.1-0.4-0.4V4.5h-1.4c0,0.5,0,1,0.1,1.5c0.2,0.5,0.4,0.9,0.6,1.4
	s0,0.5-0.4,0.5H8.4C8,7.9,7.9,7.8,8,7.4c0.1-0.3,0.3-0.7,0.4-1C8.7,5.8,8.8,5.1,8.6,4.5z M13.6,5.5h5.5v-4h-5.6L13.6,5.5z M1.2,5.5
	h5.5v-4H1.2L1.2,5.5z M13.2,1.5h-6V4h5.9L13.2,1.5z M8.5,7.5h3.4c-0.2-0.5-0.4-1-0.6-1.4c0,0-0.1-0.1-0.1-0.1H9.1H9
	C8.8,6.5,8.6,7,8.5,7.5L8.5,7.5z M9.2,4.5v1h2.1v-1H9.2z"/>
<path class="st0" d="M10.2,8H8.4C8.2,8,8,8,7.9,7.8c-0.1-0.1-0.1-0.3,0-0.4l0.2-0.5c0.1-0.2,0.1-0.4,0.2-0.6
	c0.3-0.6,0.3-1.2,0.2-1.8H7.3v1.2C7.3,5.8,7.2,6,7,6H1.2C0.8,6,0.7,5.9,0.7,5.5v-4C0.7,1.1,0.8,1,1.2,1h18c0.4,0,0.5,0.1,0.5,0.5v4
	c0,0.4-0.1,0.5-0.5,0.5h-5.7c-0.3,0-0.4-0.1-0.4-0.4V4.5h-1.3c0,0.2,0,0.3,0,0.5c0,0.3,0,0.6,0.1,0.9c0.1,0.3,0.3,0.7,0.4,1
	c0.1,0.1,0.1,0.3,0.2,0.4c0.1,0.1,0.1,0.3,0,0.4C12.3,7.9,12.2,8,12,8H10.2z M7.2,4.5h1.5v0.1c0.1,0.6,0,1.3-0.3,1.9L8.2,7L8,7.4
	C7.9,7.5,7.9,7.6,8,7.8c0.1,0.1,0.2,0.1,0.3,0.1H12c0.1,0,0.2,0,0.3-0.1c0.1-0.1,0.1-0.2,0-0.3c-0.1-0.1-0.1-0.3-0.2-0.4
	c-0.1-0.3-0.2-0.7-0.4-1c-0.1-0.3-0.2-0.7-0.1-1c0-0.2,0-0.4,0-0.5v0h1.5v1.2c0,0.3,0,0.3,0.3,0.3h5.7c0.3,0,0.4-0.1,0.4-0.4v-4
	c0-0.3-0.1-0.4-0.4-0.4h-18c-0.3,0-0.4,0.1-0.4,0.4v4c0,0.3,0.1,0.4,0.4,0.4H7c0.2,0,0.2-0.1,0.2-0.2L7.2,4.5L7.2,4.5z M12,7.5H8.4
	l0.1-0.3C8.7,6.8,8.8,6.4,9,6c0-0.1,0.1-0.1,0.2-0.1h2.1c0.1,0,0.1,0,0.2,0.1c0.1,0.4,0.3,0.7,0.4,1.1L12,7.5z M8.6,7.4h3.3
	l-0.1-0.2c-0.1-0.4-0.3-0.7-0.4-1.1h-0.1H9.1H9.1C8.9,6.4,8.8,6.8,8.6,7.2L8.6,7.4z M11.3,5.5H9.1V4.4h2.2L11.3,5.5z M9.2,5.4h2V4.5
	h-2V5.4z M6.8,5.5H1.2V1.4h5.6L6.8,5.5z M1.3,5.4h5.4V1.5H1.3L1.3,5.4z M19.2,5.5h-5.6V1.4h5.6L19.2,5.5z M13.7,5.4h5.4V1.5h-5.4
	L13.7,5.4z M13.2,4h-6V1.4h6V4z M7.3,4h5.8V1.5H7.3V4z"/>
<path class="st0" d="M4.2,12.1H2.7c-0.2,0-0.3-0.1-0.3-0.2s0.1-0.2,0.3-0.2h3.1c0.1,0,0.2,0.1,0.3,0.2c0,0.1-0.1,0.2-0.2,0.3
	c0,0-0.1,0-0.1,0L4.2,12.1L4.2,12.1z"/>
<path class="st0" d="M5.6,12.1H2.7c-0.1,0-0.2,0-0.3-0.1c0-0.1-0.1-0.1-0.1-0.2c0-0.2,0.2-0.3,0.3-0.3c0,0,0,0,0,0h3.1
	c0.1,0,0.3,0.1,0.3,0.2c0,0,0,0,0,0c0,0.1-0.1,0.3-0.3,0.3c0,0,0,0,0,0L5.6,12.1z M5.2,12h0.6C6,12.1,6,12,6,11.9c0,0,0,0,0,0
	c0-0.1-0.1-0.2-0.2-0.2H2.7c-0.2,0-0.2,0.1-0.2,0.2c0,0,0,0.1,0,0.1c0.1,0.1,0.1,0.1,0.2,0.1h1.9C4.8,12,5,12,5.2,12z"/>
<path class="st0" d="M16.5,12.1h-1.6c-0.1,0-0.2-0.1-0.2-0.2s0.1-0.2,0.2-0.2c0.1,0,0.2,0,0.2,0h3c0.1,0,0.2,0.1,0.2,0.2
	c0,0.1-0.1,0.2-0.2,0.2c0,0,0,0,0,0H16.5z"/>
<path class="st0" d="M17.8,12.1h-3c-0.1,0-0.2-0.1-0.2-0.1c0-0.1,0-0.1,0-0.2c0-0.1,0.1-0.2,0.2-0.2c0.1,0,0.1,0,0.2,0h3.1
	c0.1,0,0.3,0.1,0.3,0.2c0,0,0,0,0,0c0,0.1-0.1,0.3-0.2,0.3c0,0,0,0-0.1,0L17.8,12.1z M17.4,12h0.7c0.1,0,0.2-0.1,0.2-0.1
	c0,0,0,0,0,0c0-0.1-0.1-0.2-0.2-0.2H15c0,0-0.1,0-0.1,0c-0.1,0-0.1,0.1-0.2,0.2c0,0,0,0.1,0,0.1c0,0,0.1,0.1,0.1,0.1H17.4L17.4,12z"
	/>
<path class="st0" d="M16.6,4.6h1c0.2,0,0.3,0.1,0.3,0.2s-0.1,0.2-0.3,0.2h-2c-0.2,0-0.3-0.1-0.3-0.2s0.1-0.2,0.3-0.2H16.6z"/>
<path class="st0" d="M17.6,5.2h-2c-0.1,0-0.2,0-0.3-0.1c0-0.1-0.1-0.1-0.1-0.2c0-0.2,0.1-0.3,0.3-0.3h2c0.1,0,0.2,0,0.3,0.1
	c0,0.1,0.1,0.1,0.1,0.2C17.9,5.1,17.8,5.2,17.6,5.2z M17.1,5.1h0.4c0.2,0,0.2,0,0.2-0.2c0,0,0-0.1,0-0.1c0,0-0.1-0.1-0.2-0.1h-2
	c-0.2,0-0.2,0-0.2,0.2c0,0,0,0.1,0,0.1c0.1,0,0.1,0.1,0.2,0.1H17.1L17.1,5.1z"/>
<path class="st0" d="M4,5.1H3C2.8,5.1,2.7,5,2.7,4.9S2.8,4.6,3,4.6h2c0.2,0,0.3,0.1,0.3,0.2S5.2,5.1,5,5.1H4z"/>
<path class="st0" d="M3.4,5.2H3C2.9,5.1,2.8,5.1,2.7,5c0,0-0.1-0.1-0.1-0.2c0-0.1,0.2-0.2,0.3-0.2h2c0.1,0,0.2,0,0.3,0.1
	c0,0.1,0.1,0.1,0.1,0.2C5.4,5,5.3,5.2,5,5.2H3.4z M3,4.7c-0.2,0-0.2,0-0.2,0.2c0,0,0,0.1,0,0.1C2.8,5,2.9,5.1,3,5.1h2
	c0.2,0,0.3-0.1,0.3-0.2c0,0,0-0.1,0-0.1C5.2,4.7,5.1,4.7,5,4.7H3z"/>
</svg>
