<?xml version="1.0" encoding="utf-8"?>
<!-- Generator: Adobe Illustrator 25.2.0, SVG Export Plug-In . SVG Version: 6.00 Build 0)  -->
<svg version="1.1" id="Layer_1" xmlns="http://www.w3.org/2000/svg" xmlns:xlink="http://www.w3.org/1999/xlink" x="0px" y="0px"
	 viewBox="0 0 20.4 20.4" style="enable-background:new 0 0 20.4 20.4;" xml:space="preserve">
<style type="text/css">
	.st0{fill:#FFFFFF;}
</style>
<path class="st0" d="M19.2,8.9C18,8,17,7.2,16.1,6.5C16,6.4,16,6.3,16,6.2V2.9c0-0.2-0.1-0.3-0.3-0.3h-1.9c-0.2,0-0.4,0.1-0.4,0.3
	v1.4l-0.2-0.1c0,0-0.1,0-0.1-0.1l-1-0.8C11.6,3,11,2.5,10.4,2c-0.1-0.1-0.2-0.1-0.4,0L9,2.8L8.9,2.8c-2.6,2-5.1,4.1-7.7,6
	C0.9,9,0.8,9.2,0.7,9.5c0,0.2,0,0.4,0.1,0.6c0.3,0.4,0.8,0.5,1.2,0.2c0,0,0.1,0,0.1-0.1c0.1-0.1,0.2-0.2,0.3-0.3l0.3-0.2v8.4
	c0,0.4,0,0.4,0.4,0.4h14c0.4,0,0.4,0,0.4-0.4V9.8l0.1,0.1c0.1,0,0.2,0.1,0.2,0.1s0.2,0.2,0.4,0.3c0.4,0.2,0.9,0.2,1.2-0.1
	c0.2-0.2,0.2-0.4,0.2-0.6C19.6,9.3,19.4,9.1,19.2,8.9z M14,3.1h1.6V6h-0.1 M15.4,5.9c0,0,0-0.1-0.1-0.1c-0.1-0.1-0.2-0.2-0.4-0.2
	L14.1,5C14.1,4.9,14,4.8,14,4.7V3.1L15.4,5.9z M17,16.4v1.6H3.2V9.6c0-0.1,0.1-0.3,0.2-0.4C5.2,7.9,7.1,6.4,8.9,5l1-0.8L10,4.1
	L10.1,4l0,0l0.6,0.5c0.3,0.2,0.7,0.5,1,0.8l1.3,1c1.3,1,2.5,2,3.7,2.9c0.1,0.1,0.2,0.2,0.2,0.4C17,11.9,17,14.2,17,16.4z M19.1,9.6
	c0,0,0,0.1,0,0.1c0,0.1-0.1,0.1-0.1,0.2c-0.1,0.1-0.3,0-0.4-0.1c-0.2-0.1-0.5-0.3-0.7-0.5c-0.1-0.1-0.2-0.1-0.3-0.2l-6.3-4.9
	c-0.3-0.2-0.6-0.5-0.9-0.7c-0.2-0.2-0.2-0.2-0.4,0L3.2,8.8c-0.5,0.4-0.9,0.7-1.3,1C1.8,9.9,1.7,9.9,1.6,9.9c-0.1,0-0.1,0-0.2,0
	C1.3,9.9,1.2,9.7,1.3,9.5c0.1-0.1,0.1-0.2,0.2-0.3C2.3,8.6,3,8,3.9,7.4l1.6-1.2C6.9,5,8.5,3.8,10,2.6c0.1-0.1,0.3-0.1,0.4,0L14.7,6
	l1.5,1.2c0.9,0.7,1.7,1.4,2.6,2L19,9.4L19.1,9.6L19.1,9.6L19.1,9.6z"/>
<path class="st0" d="M14.5,16c0.1-0.5,0-0.9-0.4-1.3c-0.5-0.5-1-1.1-1.5-1.6L12,12.5l-0.1-0.1l-0.1-0.1v-0.1v-0.1l0.1-0.1
	c0,0,0.1,0,0.1-0.1c0.1-0.2,0.3-0.2,0.5-0.2c0.6,0.1,1.3-0.1,1.7-0.7c0.4-0.5,0.6-1.2,0.4-1.8c-0.1-0.2-0.1-0.3-0.2-0.3
	s-0.2,0-0.3,0.1L13.1,10l-0.5-0.3l0.3-0.3c0.2-0.2,0.3-0.4,0.5-0.6c0.1-0.1,0.1-0.2,0.1-0.3c0-0.1-0.1-0.1-0.2-0.1S13,8.3,12.9,8.3
	c-0.6-0.1-1.2,0.2-1.6,0.6c-0.4,0.4-0.6,1-0.5,1.6c0,0.1,0,0.1-0.1,0.2l-0.6,0.6L10,11.5l0,0 M10,11.4L7.8,9.2
	c0-0.1-0.1-0.1-0.1-0.1C7.6,8.8,7.3,8.5,7,8.4C6.9,8.3,6.7,8.4,6.5,8.5L6.4,8.6L5.9,9.1C5.9,9.2,5.8,9.3,5.8,9.4l0,0
	C5.9,9.7,6,10,6.3,10.1c0.2,0.1,0.3,0.2,0.4,0.3l1.3,1.3l0.7,0.7c0,0.1,0,0.1,0.1,0.1h0.1v0.1l0,0c-0.1,0.1-0.1,0.1-0.2,0.2
	l-0.4,0.4c-0.1,0.1-0.3,0.2-0.4,0.1c-0.6-0.1-1.3,0.1-1.7,0.6c-0.4,0.5-0.6,1.1-0.4,1.8c0,0.1,0.1,0.3,0.2,0.3s0.2-0.1,0.3-0.1
	l0.9-0.7l0.1,0.1c0.2,0.1,0.2,0.2,0.4,0.4l0,0L7.4,16c-0.2,0.2-0.3,0.4-0.5,0.6c-0.1,0.1-0.1,0.2-0.1,0.2C6.8,17,6.9,17,7,17
	c0.2,0.1,0.3,0.1,0.5,0.1c0.6,0,1.1-0.2,1.5-0.7c0.4-0.4,0.5-1,0.5-1.6c0-0.1,0-0.2,0-0.2c0.1,0,0.1-0.1,0.1-0.2l0.1-0.1l0.1-0.1
	l0.1,0.1c0,0,0,0,0,0.1s0.1,0.1,0.1,0.1l2.2,2.2c0.3,0.4,0.9,0.5,1.4,0.4c0.5-0.1,0.9-0.5,1-1.1L10,11.4z M8.6,11.4L7.2,10
	C7,9.8,6.8,9.7,6.6,9.6c-0.1,0-0.2-0.1-0.2-0.2c0-0.1,0-0.2,0.1-0.3l0.2-0.1c0.1-0.1,0.2-0.1,0.2-0.1C6.9,8.9,7,8.9,7,9
	c0.1,0.3,0.3,0.5,0.5,0.7l0.1,0.1l1.7,1.7l0.1,0.1h0.1v0.1l-0.2,0.4L9.1,12L9,11.9L8.6,11.4z M9.1,14.3C9,14.5,8.9,14.6,9,14.8
	c0.1,0.4,0,0.9-0.3,1.2c-0.2,0.3-0.6,0.5-1,0.5H7.6l0.3-0.3C8,16.1,8.1,16,8.2,15.9c0.3-0.3,0.3-0.4,0-0.6L8,15.1l-0.5-0.4
	c-0.2-0.1-0.2-0.1-0.4,0C7,14.8,6.8,14.9,6.6,15l-0.2,0.2v-0.1c0-0.6,0.4-1.2,1.1-1.4c0.3,0,0.5,0,0.8,0c0.1,0,0.3,0,0.4-0.1
	l1.1-1.1l0.4-0.4l0.4-0.4l0.9-0.9c0.1-0.1,0.2-0.3,0.1-0.5c-0.1-0.4,0-0.9,0.2-1.2c0.3-0.4,0.7-0.6,1.1-0.5h0.1l-0.3,0.2
	c-0.1,0.2-0.3,0.3-0.4,0.5c-0.2,0.2-0.2,0.3,0,0.5c0.2,0.2,0.4,0.5,0.7,0.7c0.2,0.2,0.2,0.2,0.4,0L14,10v0.1c0,0.4-0.2,0.8-0.5,1.1
	c-0.4,0.3-0.9,0.4-1.3,0.3c-0.2,0-0.3,0-0.5,0.1C10.9,12.5,10,13.4,9.1,14.3z M13.7,16.4c-0.1,0.1-0.3,0.2-0.5,0.2
	c-0.2,0-0.4-0.1-0.6-0.3l-1-1l-1-1L10.4,14c-0.1-0.1-0.1-0.1-0.1-0.1l-0.1-0.1l0.1-0.1c0.1-0.1,0.2-0.3,0.4-0.4l0.1-0.1l0.1,0.1
	l0.1,0.1l2.2,2.2c0,0.1,0,0.1,0.1,0.1c0.1,0.1,0.2,0.1,0.3,0c0.1-0.1,0.1-0.2,0-0.3c0-0.1-0.1-0.1-0.1-0.1l0,0l-2.1-2.2
	c-0.1-0.1-0.1-0.1-0.1-0.1 M11.2,13.2H11l0.1-0.1l0.4-0.4l0.1,0.1l0,0l0.6,0.6l1.7,1.7c0.2,0.2,0.3,0.4,0.2,0.7
	c0,0.2-0.1,0.5-0.3,0.6L11.2,13.2z"/>
</svg>
