<svg id="Layer_1" data-name="Layer 1" xmlns="http://www.w3.org/2000/svg" viewBox="0 0 20.4 20.4"><defs><style>.cls-1{fill:#fff;}</style></defs><path class="cls-1" d="M12.41.92l2.07.89c.44.19.44.29.15.64L13.4,3.68s.15,0,.2.1C15.32,5.5,17,7.17,18.72,8.9a.92.92,0,0,1,0,1.47,1.25,1.25,0,0,1-.69.4.84.84,0,0,1-.69-.25c-1.63-1.58-3.2-3.2-4.83-4.82a.25.25,0,0,1,0-.35c.1-.1.25-.1.4.05l4.48,4.48.29.3a.43.43,0,0,0,.64,0l.05,0c.4-.35.44-.59,0-1-1.67-1.67-3.4-3.35-5.07-5.07-.05-.05-.1-.1-.1-.15h-.1C13,4,13,4,13,4.07L11.23,5.79a.83.83,0,0,1-1.28,0L9.26,5.1a.87.87,0,0,1,0-1.23L12.12,1l.15-.15A.16.16,0,0,0,12.41.92ZM14.19,2.2c-.59-.25-1.14-.49-1.73-.69a.27.27,0,0,0-.19.05L9.56,4.27a.37.37,0,0,0,0,.59l.59.59c.29.29.44.29.74,0L14,2.35C14.09,2.3,14.09,2.25,14.19,2.2Z"/><path class="cls-1" d="M17.88,10.82a.93.93,0,0,1-.64-.25l-3-3.05L12.41,5.74a.33.33,0,0,1-.05-.44.26.26,0,0,1,.2-.1.43.43,0,0,1,.3.15l4.58,4.58.19.2a.4.4,0,0,0,.54,0l0-.05h0c.2-.2.3-.3.3-.45s-.1-.29-.3-.49c-1.33-1.33-2.7-2.66-4-4L13.15,4.07C13.1,4,13.1,4,13.05,4V3.92h0V4s-.05.1-.09.15L11.23,5.84a.87.87,0,0,1-1.38,0L9.71,5.7l-.55-.55a.85.85,0,0,1,0-1.28l2.61-2.61L12,1l.1-.1.05-.05h.19l.6.25,1.47.59c.25.1.35.19.4.29a.52.52,0,0,1-.25.4L13.4,3.58h0s.1,0,.15.1l4.67,4.67.45.45a1,1,0,0,1,0,1.57,1.25,1.25,0,0,1-.69.4C18,10.82,17.93,10.82,17.88,10.82ZM12.56,5.35h0c-.05,0-.1,0-.1.05s-.05.2,0,.3l1.77,1.77,3.06,3.05a.84.84,0,0,0,.69.25.94.94,0,0,0,.64-.35.88.88,0,0,0,0-1.43l-.45-.44L13.55,3.87c-.05-.05-.05-.05-.1-.05s0,0,0,0l-.05,0,.05,0,1.23-1.23c.1-.1.25-.25.2-.35s-.15-.15-.35-.2c-.49-.19-1-.39-1.48-.64L12.41,1h-.09l-.05.05-.1.1-.25.24L9.31,4a.75.75,0,0,0,0,1.13l.54.55.15.14a.78.78,0,0,0,1.23,0L13,4.12s0,0,0-.1a0,0,0,0,1,.05,0V3.92h.15a0,0,0,0,0,.05.05s.05,0,.05.1l1,1.08,4,4a.87.87,0,0,1,.3.54c0,.15-.1.3-.35.54h0l-.05,0a.47.47,0,0,1-.69,0l-.19-.19-.1-.1L12.76,5.5C12.71,5.4,12.66,5.35,12.56,5.35Zm-2,.35a.51.51,0,0,1-.39-.2l-.1-.1-.49-.49a.41.41,0,0,1,0-.69l2.71-2.71a.2.2,0,0,1,.24-.05c.45.2.89.35,1.33.54l.44.2-.09.1-.1.1L11,5.5A.7.7,0,0,1,10.54,5.7Zm1.87-4.19c-.05,0-.09,0-.09.05L9.61,4.27c-.2.19-.2.34,0,.54l.49.49.1.1c.24.25.39.25.64,0l3.1-3.1.1-.1h0l-.3-.15c-.44-.19-.83-.34-1.33-.54Z"/><path class="cls-1" d="M11.77,9.54a1.27,1.27,0,0,1-.14.24L6.56,14.85c-.25.25-.3.25-.55,0l-.73-.74c-.15-.14-.15-.24,0-.44l6.3-6.3c.14-.15.24-.15.44,0l6.3,6.3a.27.27,0,0,1,0,.44l-.74.74c-.19.2-.29.2-.49,0-1.72-1.67-3.4-3.39-5.07-5.12C11.92,9.73,11.87,9.68,11.77,9.54Zm.05-1.68-6,6,.54.54c0-.05,0-.1.15-.15l5.07-5.07c.24-.25.29-.25.54,0l5.07,5.07c0,.05.1.1.1.15.24-.2.39-.39.59-.54C15.81,11.9,13.79,9.88,11.82,7.86Z"/><path class="cls-1" d="M6.31,15.1a.36.36,0,0,1-.3-.2l-.19-.2-.54-.54c-.2-.19-.2-.29,0-.49l6.3-6.3c.19-.2.29-.2.49,0l6.3,6.3c.2.2.2.35,0,.54l-.74.74c-.19.2-.34.2-.54,0-1.67-1.67-3.4-3.4-5.07-5.12,0-.05,0-.1-.1-.15a0,0,0,0,0-.05,0v0c0,.05,0,.1-.1.15L6.7,14.9C6.46,15,6.41,15.1,6.31,15.1Zm5.46-7.78s-.09,0-.19.1l-6.3,6.3c-.15.15-.15.2,0,.34l.54.55L6,14.8a.46.46,0,0,0,.25.15.46.46,0,0,0,.25-.15l5.07-5.07.1-.1c0-.05,0-.05,0-.09l0,0,.05,0s0,.09.1.09.05.1.1.1c1.67,1.73,3.4,3.4,5.07,5.12.2.2.25.2.39,0l.74-.74c.15-.14.15-.24,0-.39l-6.3-6.3s-.1-.1-.15-.1ZM6.36,14.56l-.64-.64,0-.05,6.05-6.06,0,.05,6.06,6.06-.69.64,0-.05v0a.11.11,0,0,0-.1-.1L12.41,9.68,12,9.24c-.1-.1-.15-.15-.2-.15h0s-.09.05-.24.15L6.46,14.31l-.1.1a0,0,0,0,1-.05.05Zm-.49-.64.49.49c0-.05,0-.1.1-.1l5.07-5.07c.24-.25.34-.25.59,0l.44.44,4.68,4.68.1.1.49-.49-6-6Z"/><path class="cls-1" d="M2.32,12.59V10a.38.38,0,0,0-.24-.4A1.53,1.53,0,0,1,1.34,8,1.66,1.66,0,0,1,2.42,6.58c.34-.15.44,0,.44.3v.93c0,.25.1.35.35.35.59,0,.64,0,.64-.59V6.78c0-.25.15-.3.34-.25A1.69,1.69,0,0,1,5.37,8a1.55,1.55,0,0,1-.73,1.57.41.41,0,0,0-.2.4v5.17a.48.48,0,0,0,.24.44,1.52,1.52,0,0,1,.74,1.58,1.66,1.66,0,0,1-1.18,1.47c-.24.05-.34,0-.34-.24v-1c0-.24-.1-.34-.35-.34-.54,0-.64,0-.64.64v.74c0,.24-.15.34-.34.24a1.56,1.56,0,0,1-1.13-1.38,1.55,1.55,0,0,1,.73-1.62.43.43,0,0,0,.25-.44A23.75,23.75,0,0,1,2.32,12.59Zm2-5.52v.79a.79.79,0,0,1-.59.74.66.66,0,0,1-.44,0,.75.75,0,0,1-.84-.84V7.07c-.05,0-.05,0-.1,0a1.24,1.24,0,0,0,0,2.07.69.69,0,0,1,.39.69V15.2a.7.7,0,0,1-.39.69A1.24,1.24,0,0,0,2.32,18a.17.17,0,0,0,.1.05v-.74a.72.72,0,0,1,.79-.78h.34a.76.76,0,0,1,.79.83v.74s0-.05.1-.05a1.23,1.23,0,0,0-.05-2.06A.77.77,0,0,1,4,15.2V10a.82.82,0,0,1,.44-.84A1.27,1.27,0,0,0,4.34,7.07Z"/><path class="cls-1" d="M4.09,18.69A.16.16,0,0,1,4,18.64c-.1-.05-.1-.14-.1-.29v-1c0-.24-.1-.29-.3-.29s-.44,0-.49.05-.1.19-.1.49v.79a.41.41,0,0,1-.1.29.3.3,0,0,1-.29,0,1.76,1.76,0,0,1-.45-3.1.4.4,0,0,0,.2-.39V10a.38.38,0,0,0-.2-.35A1.54,1.54,0,0,1,1.39,8,1.74,1.74,0,0,1,2.47,6.58c.2-.1.29-.1.39,0s.1.2.1.4v.93a.27.27,0,0,0,.3.3c.29,0,.44,0,.49-.05a.8.8,0,0,0,.1-.5V6.88a.42.42,0,0,1,.1-.3.29.29,0,0,1,.29,0A1.66,1.66,0,0,1,5.42,8.11a1.5,1.5,0,0,1-.78,1.62.38.38,0,0,0-.2.35v5.17a.4.4,0,0,0,.2.39,1.55,1.55,0,0,1,.73,1.62,1.7,1.7,0,0,1-1.18,1.53C4.19,18.69,4.14,18.69,4.09,18.69Zm-.73-1.77h.19c.3,0,.4.15.4.44v1s0,.15,0,.19.14,0,.19,0a1.56,1.56,0,0,0,1.13-1.42,1.49,1.49,0,0,0-.68-1.53.43.43,0,0,1-.25-.44V10a.42.42,0,0,1,.25-.44A1.58,1.58,0,0,0,5.37,8,1.59,1.59,0,0,0,4.24,6.58s-.15,0-.2,0a.36.36,0,0,0,0,.2v.79c0,.29,0,.49-.1.59s-.3.1-.59.1-.4-.15-.4-.4V6.93a.42.42,0,0,0-.1-.3c-.05,0-.14,0-.29,0A1.63,1.63,0,0,0,1.48,8a1.53,1.53,0,0,0,.74,1.57.44.44,0,0,1,.25.45V15.2a.5.5,0,0,1-.25.49,1.42,1.42,0,0,0-.69,1.57,1.59,1.59,0,0,0,1.14,1.38c.05,0,.14.05.19,0a.27.27,0,0,0,.05-.19v-.79c0-.35,0-.49.1-.59S3.16,16.92,3.36,16.92Zm.93,1.23v-.84a.69.69,0,0,0-.74-.73H3.21a.69.69,0,0,0-.74.73v.79l-.05-.05h0c-.05,0-.05,0-.1-.05a1.58,1.58,0,0,1-.54-1.18,1.31,1.31,0,0,1,.64-1,.67.67,0,0,0,.35-.64V9.88a.74.74,0,0,0-.4-.69,1.15,1.15,0,0,1-.59-1A1.6,1.6,0,0,1,2.27,7s0,0,0,0h.05l.1-.05v.78a.7.7,0,0,0,.79.79H3.7a.74.74,0,0,0,.59-.69V6.93l.1.05A1.17,1.17,0,0,1,5,8.06a1.26,1.26,0,0,1-.54,1.08A.89.89,0,0,0,4,9.93V15.1a.7.7,0,0,0,.4.69,1.25,1.25,0,0,1,.59,1A1.56,1.56,0,0,1,4.49,18a0,0,0,0,0,0,.05ZM3.4,16.48h.2a.81.81,0,0,1,.84.88V18a1.2,1.2,0,0,0,.49-1.08A1,1,0,0,0,4.39,16,.86.86,0,0,1,4,15.25V10.08a.93.93,0,0,1,.49-.89,1,1,0,0,0,.49-1,1.14,1.14,0,0,0-.49-.94V8a.86.86,0,0,1-.64.79.66.66,0,0,1-.44,0,.82.82,0,0,1-.89-.94V7.22h0A1.19,1.19,0,0,0,2,8.3a1,1,0,0,0,.54.89A.88.88,0,0,1,3,9.93v5.32a.86.86,0,0,1-.39.73,1.22,1.22,0,0,0-.59.89A1.18,1.18,0,0,0,2.47,18h0v-.64a.8.8,0,0,1,.84-.83Z"/><path class="cls-1" d="M10.25,18.94V16.18a1.63,1.63,0,0,1,1.23-1.62A1.5,1.5,0,0,1,13.35,16v2.91h1.28a1,1,0,0,0,1.13-1.13v-3c0-.19.1-.29.25-.29s.24.1.24.29v3.06a1.51,1.51,0,0,1-1.47,1.47H13.3c-.3,0-.34,0-.34-.34V16.08a1,1,0,0,0-.64-1,1.12,1.12,0,0,0-1.58,1V19c0,.29-.05.34-.34.34H9a1.43,1.43,0,0,1-1.53-1.47V14.8c0-.19.1-.29.25-.29s.24.1.24.29v3a1.06,1.06,0,0,0,1.14,1.13h1.08C10.1,19,10.15,19,10.25,18.94Z"/><path class="cls-1" d="M14.14,19.48h-.89c-.29,0-.39-.1-.39-.39V16.18a1,1,0,0,0-.59-1,1,1,0,0,0-1,.05,1.12,1.12,0,0,0-.49.93v3c0,.29-.1.39-.39.39H9A1.49,1.49,0,0,1,7.39,18V15a.38.38,0,0,1,.1-.25s.1,0,.2,0A.32.32,0,0,1,8,15V18A1,1,0,0,0,9.07,19H10.3V16.33A1.59,1.59,0,0,1,12.86,15a1.49,1.49,0,0,1,.59,1.18V19h1.23A1,1,0,0,0,15.76,18V15c0-.2.1-.34.3-.34h0c.1,0,.14,0,.19,0a.38.38,0,0,1,.1.25V18a1.57,1.57,0,0,1-1.52,1.53A3.76,3.76,0,0,0,14.14,19.48ZM11.77,15a1.78,1.78,0,0,1,.5.1,1.1,1.1,0,0,1,.64,1.08V19c0,.24.05.29.29.29h1.48a1.46,1.46,0,0,0,1.43-1.43V14.8c0-.1,0-.14-.05-.19s0,0-.1,0h0c-.1,0-.15.1-.15.24v3a1.08,1.08,0,0,1-1.18,1.18H13.3v-3a1.4,1.4,0,0,0-.59-1.14,1.44,1.44,0,0,0-1.23-.29,1.56,1.56,0,0,0-1.18,1.57v2.81H9a1.08,1.08,0,0,1-1.18-1.18v-3c0-.09,0-.24-.15-.24h0s-.1,0-.1.05,0,.1,0,.19v3.06A1.41,1.41,0,0,0,9,19.23H10.4c.24,0,.29-.05.29-.29V16a1.23,1.23,0,0,1,.54-1C11.38,15.05,11.58,15,11.77,15Z"/></svg>