<svg id="Layer_1" data-name="Layer 1" xmlns="http://www.w3.org/2000/svg" viewBox="0 0 20.4 20.4"><defs><style>.cls-1{fill:#fff;}</style></defs><path class="cls-1" d="M8.62,12.72v-.94s0-.1-.1-.15A3.43,3.43,0,0,1,6.84,9.26v-.1a.35.35,0,0,0-.25-.34,1.24,1.24,0,0,1-.74-1.09c-.64-.15-.94-.5-.94-1A1,1,0,0,1,5.8,5.8,9.85,9.85,0,0,1,6,4.61a4.25,4.25,0,0,1,2.82-3c.09,0,.19-.09.19-.19A.91.91,0,0,1,9.9.8h.65a.9.9,0,0,1,.89.7,1.17,1.17,0,0,0,.14.19A4.29,4.29,0,0,1,14.5,5.11a3.64,3.64,0,0,1,.05.74,1,1,0,0,1,.94,1,1,1,0,0,1-.89.89c0,.15,0,.24-.1.39a1.23,1.23,0,0,1-.69.74c-.1.05-.2.1-.2.25a3.45,3.45,0,0,1-1.68,2.57.27.27,0,0,0-.15.25v.84h2.77a2.87,2.87,0,0,1,2.77,2.57c.05,1,.2,1.93.3,2.92.05.35.05.64.1,1s-.1.35-.35.35H3.08c-.25-.05-.4-.15-.4-.4,0-.69.15-1.33.2-2S3,15.74,3.13,15A2.8,2.8,0,0,1,5.8,12.67l2.82.05ZM5.8,6.44a.37.37,0,0,0-.3.35.32.32,0,0,0,.35.29h8.6c.2,0,.35-.09.35-.29a.33.33,0,0,0-.3-.35c-.1.25-.2.35-.39.3s-.25-.15-.25-.45V5.8A3.68,3.68,0,0,0,13,3.38c-.2-.25-.45-.4-.64-.65l-.05,0v.74c0,.25-.1.35-.3.35s-.3-.15-.3-.35V2.58c0-.29,0-.29-.29-.34V4.12c0,.24-.1.34-.3.34a.3.3,0,0,1-.3-.34V1.74c0-.29-.1-.39-.39-.39h-.3c-.44,0-.54,0-.54.54V4.12a.36.36,0,0,1-.25.34H9.26A.3.3,0,0,1,9,4.12V2.19c-.34.2-.34.2-.34.49v1a.28.28,0,0,1-.25.3A.54.54,0,0,1,8,3.82a.37.37,0,0,1,0-.25V2.78A3.53,3.53,0,0,0,6.49,5.11a11.9,11.9,0,0,0-.1,1.33.37.37,0,0,1-.29.35.34.34,0,0,1-.3-.2S5.8,6.49,5.8,6.44ZM8.47,7.73h-1V9A2.78,2.78,0,0,0,13,8.82a7.93,7.93,0,0,0,0-1.09H11.88A.72.72,0,0,1,12,8c0,.2-.15.3-.4.3S11,8.22,11,8s.05-.19.1-.29h-2a.35.35,0,0,1,.05.54.66.66,0,0,1-.74,0C8.27,8.07,8.32,7.93,8.47,7.73Zm5.19,5.59v.94a2.15,2.15,0,0,1-2.12,2.17H9.06a2.2,2.2,0,0,1-2.27-2.08v-1H6.14V19h.6V17.47c0-.25.1-.35.34-.35h6.14c.24,0,.34.1.34.35V19h.6V13.37h-.5Zm-.64,0H11.78c-.29.79-.79,1.23-1.43,1.23a1.57,1.57,0,0,1-.94-.25,1.7,1.7,0,0,1-.69-1H7.43v1A1.55,1.55,0,0,0,9,15.79h2.53A1.54,1.54,0,0,0,13,14.45a8.18,8.18,0,0,0,0-1.13ZM5.5,19V13.41h0a2.22,2.22,0,0,0-1.73,2c-.05.74-.15,1.49-.2,2.18L3.38,19Zm9.4-5.58V19H17c0-.19,0-.34,0-.54l-.3-3A2.2,2.2,0,0,0,14.9,13.37ZM7.38,19H13V17.72H7.38Zm1.88-7v1.14a.88.88,0,0,0,.89.84.87.87,0,0,0,.94-.74V11.93a2.87,2.87,0,0,1-1.83,0ZM6.44,7.73a.54.54,0,0,0,.3.49V7.73Zm7.22,0v.49l.05,0,.3-.49Z"/><path class="cls-1" d="M9.26,5.85v-.3a.65.65,0,0,1,.59-.64h.65a.62.62,0,0,1,.64.59v.4h2.13c.24,0,.34.1.34.29a.3.3,0,0,1-.34.3H10.89c-.24,0-.34-.1-.34-.35V5.6H9.9v.54c0,.25-.1.35-.34.35H7.43c-.2,0-.35-.1-.35-.3s.15-.29.35-.29H9.26Z"/><path class="cls-1" d="M10.15,10.65a1.58,1.58,0,0,1-1.09-.5A.31.31,0,0,1,9,9.71H9a.32.32,0,0,1,.45-.05l0,.05a1,1,0,0,0,1.38,0l0,0a.32.32,0,0,1,.45-.05l0,.05a.31.31,0,0,1,0,.44h0A2.33,2.33,0,0,1,10.15,10.65Z"/></svg>